<svg width="200" height="88" viewBox="0 0 200 88" fill="none" xmlns="http://www.w3.org/2000/svg">
<g filter="url(#filter0_dd_2204_6734)">
<rect x="20" y="20" width="160" height="48" rx="6" fill="black"/>
<rect x="16" y="16" width="168" height="56" rx="10" stroke="#EBEBEB" stroke-width="8"/>
</g>
<path d="M54.6191 29.015C54.5537 28.9438 52.198 29.0431 50.148 31.2125C48.098 33.38 48.4133 35.8662 48.4595 35.93C48.5057 35.9937 51.3826 36.0931 53.2191 33.5712C55.0557 31.0494 54.6845 29.0881 54.6191 29.015ZM60.9922 51.0143C60.8999 50.8343 56.5211 48.7005 56.9288 44.5981C57.3364 40.4937 60.1499 39.3687 60.1941 39.2468C60.2384 39.125 59.0461 37.7656 57.7826 37.0775C56.8549 36.5923 55.8282 36.3144 54.7768 36.2637C54.5691 36.2581 53.848 36.0856 52.3653 36.4812C51.3884 36.7418 49.1864 37.5856 48.5807 37.6193C47.973 37.6531 46.1653 36.6406 44.221 36.3725C42.9768 36.1381 41.6576 36.6181 40.7133 36.9875C39.771 37.355 37.9787 38.4012 36.7249 41.1818C35.471 43.9606 36.1268 48.363 36.596 49.7318C37.0652 51.0986 37.7979 53.3393 39.0441 54.9743C40.1518 56.8192 41.621 58.0999 42.2345 58.5349C42.848 58.9699 44.5787 59.2586 45.7787 58.6605C46.7441 58.083 48.4864 57.7511 49.1749 57.7755C49.8614 57.7999 51.2153 58.0642 52.6018 58.7861C53.6999 59.1555 54.7384 59.0017 55.7788 58.5892C56.8191 58.1749 58.3249 56.6036 60.0826 53.418C60.7499 51.9368 61.0538 51.1361 60.9922 51.0143Z" fill="white"/>
<path d="M69.2359 57L74.9419 44.4H76.7239L82.4479 57H80.5579L75.4639 45.408H76.1839L71.0899 57H69.2359ZM71.6659 53.85L72.1519 52.41H79.2439L79.7659 53.85H71.6659ZM89.1335 57.108C88.3415 57.108 87.6155 56.928 86.9555 56.568C86.3075 56.196 85.7855 55.65 85.3895 54.93C85.0055 54.21 84.8135 53.31 84.8135 52.23C84.8135 51.15 84.9995 50.25 85.3715 49.53C85.7555 48.81 86.2715 48.27 86.9195 47.91C87.5795 47.55 88.3175 47.37 89.1335 47.37C90.0695 47.37 90.8975 47.574 91.6175 47.982C92.3375 48.39 92.9075 48.96 93.3275 49.692C93.7475 50.412 93.9575 51.258 93.9575 52.23C93.9575 53.202 93.7475 54.054 93.3275 54.786C92.9075 55.518 92.3375 56.088 91.6175 56.496C90.8975 56.904 90.0695 57.108 89.1335 57.108ZM84.0755 60.492V47.46H85.7315V50.034L85.6235 52.248L85.8035 54.462V60.492H84.0755ZM88.9895 55.596C89.6015 55.596 90.1475 55.458 90.6275 55.182C91.1195 54.906 91.5035 54.516 91.7795 54.012C92.0675 53.496 92.2115 52.902 92.2115 52.23C92.2115 51.546 92.0675 50.958 91.7795 50.466C91.5035 49.962 91.1195 49.572 90.6275 49.296C90.1475 49.02 89.6015 48.882 88.9895 48.882C88.3895 48.882 87.8435 49.02 87.3515 49.296C86.8715 49.572 86.4875 49.962 86.1995 50.466C85.9235 50.958 85.7855 51.546 85.7855 52.23C85.7855 52.902 85.9235 53.496 86.1995 54.012C86.4875 54.516 86.8715 54.906 87.3515 55.182C87.8435 55.458 88.3895 55.596 88.9895 55.596ZM101.403 57.108C100.611 57.108 99.885 56.928 99.225 56.568C98.577 56.196 98.055 55.65 97.659 54.93C97.275 54.21 97.083 53.31 97.083 52.23C97.083 51.15 97.269 50.25 97.641 49.53C98.025 48.81 98.541 48.27 99.189 47.91C99.849 47.55 100.587 47.37 101.403 47.37C102.339 47.37 103.167 47.574 103.887 47.982C104.607 48.39 105.177 48.96 105.597 49.692C106.017 50.412 106.227 51.258 106.227 52.23C106.227 53.202 106.017 54.054 105.597 54.786C105.177 55.518 104.607 56.088 103.887 56.496C103.167 56.904 102.339 57.108 101.403 57.108ZM96.345 60.492V47.46H98.001V50.034L97.893 52.248L98.073 54.462V60.492H96.345ZM101.259 55.596C101.871 55.596 102.417 55.458 102.897 55.182C103.389 54.906 103.773 54.516 104.049 54.012C104.337 53.496 104.481 52.902 104.481 52.23C104.481 51.546 104.337 50.958 104.049 50.466C103.773 49.962 103.389 49.572 102.897 49.296C102.417 49.02 101.871 48.882 101.259 48.882C100.659 48.882 100.113 49.02 99.621 49.296C99.141 49.572 98.757 49.962 98.469 50.466C98.193 50.958 98.055 51.546 98.055 52.23C98.055 52.902 98.193 53.496 98.469 54.012C98.757 54.516 99.141 54.906 99.621 55.182C100.113 55.458 100.659 55.596 101.259 55.596ZM117.373 57.144C116.413 57.144 115.495 57 114.619 56.712C113.743 56.412 113.053 56.028 112.549 55.56L113.215 54.156C113.695 54.576 114.307 54.924 115.051 55.2C115.795 55.476 116.569 55.614 117.373 55.614C118.105 55.614 118.699 55.53 119.155 55.362C119.611 55.194 119.947 54.966 120.163 54.678C120.379 54.378 120.487 54.042 120.487 53.67C120.487 53.238 120.343 52.89 120.055 52.626C119.779 52.362 119.413 52.152 118.957 51.996C118.513 51.828 118.021 51.684 117.481 51.564C116.941 51.444 116.395 51.306 115.843 51.15C115.303 50.982 114.805 50.772 114.349 50.52C113.905 50.268 113.545 49.932 113.269 49.512C112.993 49.08 112.855 48.528 112.855 47.856C112.855 47.208 113.023 46.614 113.359 46.074C113.707 45.522 114.235 45.084 114.943 44.76C115.663 44.424 116.575 44.256 117.679 44.256C118.411 44.256 119.137 44.352 119.857 44.544C120.577 44.736 121.201 45.012 121.729 45.372L121.135 46.812C120.595 46.452 120.025 46.194 119.425 46.038C118.825 45.87 118.243 45.786 117.679 45.786C116.971 45.786 116.389 45.876 115.933 46.056C115.477 46.236 115.141 46.476 114.925 46.776C114.721 47.076 114.619 47.412 114.619 47.784C114.619 48.228 114.757 48.582 115.033 48.846C115.321 49.11 115.687 49.32 116.131 49.476C116.587 49.632 117.085 49.776 117.625 49.908C118.165 50.028 118.705 50.166 119.245 50.322C119.797 50.478 120.295 50.682 120.739 50.934C121.195 51.186 121.561 51.522 121.837 51.942C122.113 52.362 122.251 52.902 122.251 53.562C122.251 54.198 122.077 54.792 121.729 55.344C121.381 55.884 120.841 56.322 120.109 56.658C119.389 56.982 118.477 57.144 117.373 57.144ZM127.904 57.108C126.944 57.108 126.2 56.85 125.672 56.334C125.144 55.818 124.88 55.08 124.88 54.12V45.372H126.608V54.048C126.608 54.564 126.734 54.96 126.986 55.236C127.25 55.512 127.622 55.65 128.102 55.65C128.642 55.65 129.092 55.5 129.452 55.2L129.992 56.442C129.728 56.67 129.41 56.838 129.038 56.946C128.678 57.054 128.3 57.108 127.904 57.108ZM123.26 48.882V47.46H129.344V48.882H123.26ZM135.851 57.108C134.891 57.108 134.039 56.898 133.295 56.478C132.551 56.058 131.963 55.482 131.531 54.75C131.099 54.006 130.883 53.166 130.883 52.23C130.883 51.282 131.099 50.442 131.531 49.71C131.963 48.978 132.551 48.408 133.295 48C134.039 47.58 134.891 47.37 135.851 47.37C136.799 47.37 137.645 47.58 138.389 48C139.145 48.408 139.733 48.978 140.153 49.71C140.585 50.43 140.801 51.27 140.801 52.23C140.801 53.178 140.585 54.018 140.153 54.75C139.733 55.482 139.145 56.058 138.389 56.478C137.645 56.898 136.799 57.108 135.851 57.108ZM135.851 55.596C136.463 55.596 137.009 55.458 137.489 55.182C137.981 54.906 138.365 54.516 138.641 54.012C138.917 53.496 139.055 52.902 139.055 52.23C139.055 51.546 138.917 50.958 138.641 50.466C138.365 49.962 137.981 49.572 137.489 49.296C137.009 49.02 136.463 48.882 135.851 48.882C135.239 48.882 134.693 49.02 134.213 49.296C133.733 49.572 133.349 49.962 133.061 50.466C132.773 50.958 132.629 51.546 132.629 52.23C132.629 52.902 132.773 53.496 133.061 54.012C133.349 54.516 133.733 54.906 134.213 55.182C134.693 55.458 135.239 55.596 135.851 55.596ZM143.191 57V47.46H144.847V50.052L144.685 49.404C144.949 48.744 145.393 48.24 146.017 47.892C146.641 47.544 147.409 47.37 148.321 47.37V49.044C148.249 49.032 148.177 49.026 148.105 49.026C148.045 49.026 147.985 49.026 147.925 49.026C147.001 49.026 146.269 49.302 145.729 49.854C145.189 50.406 144.919 51.204 144.919 52.248V57H143.191ZM154.611 57.108C153.591 57.108 152.691 56.898 151.911 56.478C151.143 56.058 150.543 55.482 150.111 54.75C149.691 54.018 149.481 53.178 149.481 52.23C149.481 51.282 149.685 50.442 150.093 49.71C150.513 48.978 151.083 48.408 151.803 48C152.535 47.58 153.357 47.37 154.269 47.37C155.193 47.37 156.009 47.574 156.717 47.982C157.425 48.39 157.977 48.966 158.373 49.71C158.781 50.442 158.985 51.3 158.985 52.284C158.985 52.356 158.979 52.44 158.967 52.536C158.967 52.632 158.961 52.722 158.949 52.806H150.831V51.564H158.049L157.347 51.996C157.359 51.384 157.233 50.838 156.969 50.358C156.705 49.878 156.339 49.506 155.871 49.242C155.415 48.966 154.881 48.828 154.269 48.828C153.669 48.828 153.135 48.966 152.667 49.242C152.199 49.506 151.833 49.884 151.569 50.376C151.305 50.856 151.173 51.408 151.173 52.032V52.32C151.173 52.956 151.317 53.526 151.605 54.03C151.905 54.522 152.319 54.906 152.847 55.182C153.375 55.458 153.981 55.596 154.665 55.596C155.229 55.596 155.739 55.5 156.195 55.308C156.663 55.116 157.071 54.828 157.419 54.444L158.373 55.56C157.941 56.064 157.401 56.448 156.753 56.712C156.117 56.976 155.403 57.108 154.611 57.108Z" fill="white"/>
<path d="M71.1434 33.31H74.7534V34.17H71.1434V33.31ZM71.2434 37H70.2434V30H75.1834V30.87H71.2434V37ZM79.5457 37V35.88L79.4957 35.67V33.76C79.4957 33.3533 79.3757 33.04 79.1357 32.82C78.9024 32.5933 78.549 32.48 78.0757 32.48C77.7624 32.48 77.4557 32.5333 77.1557 32.64C76.8557 32.74 76.6024 32.8767 76.3957 33.05L75.9957 32.33C76.269 32.11 76.5957 31.9433 76.9757 31.83C77.3624 31.71 77.7657 31.65 78.1857 31.65C78.9124 31.65 79.4724 31.8267 79.8657 32.18C80.259 32.5333 80.4557 33.0733 80.4557 33.8V37H79.5457ZM77.8057 37.06C77.4124 37.06 77.0657 36.9933 76.7657 36.86C76.4724 36.7267 76.2457 36.5433 76.0857 36.31C75.9257 36.07 75.8457 35.8 75.8457 35.5C75.8457 35.2133 75.9124 34.9533 76.0457 34.72C76.1857 34.4867 76.409 34.3 76.7157 34.16C77.029 34.02 77.449 33.95 77.9757 33.95H79.6557V34.64H78.0157C77.5357 34.64 77.2124 34.72 77.0457 34.88C76.879 35.04 76.7957 35.2333 76.7957 35.46C76.7957 35.72 76.899 35.93 77.1057 36.09C77.3124 36.2433 77.599 36.32 77.9657 36.32C78.3257 36.32 78.639 36.24 78.9057 36.08C79.179 35.92 79.3757 35.6867 79.4957 35.38L79.6857 36.04C79.559 36.3533 79.3357 36.6033 79.0157 36.79C78.6957 36.97 78.2924 37.06 77.8057 37.06ZM81.7223 37V36.38L85.1223 32.16L85.3123 32.49H81.7823V31.7H86.0823V32.33L82.6823 36.54L82.4623 36.21H86.1623V37H81.7223ZM89.729 37.06C89.1623 37.06 88.6623 36.9433 88.229 36.71C87.8023 36.4767 87.469 36.1567 87.229 35.75C86.9957 35.3433 86.879 34.8767 86.879 34.35C86.879 33.8233 86.9923 33.3567 87.219 32.95C87.4523 32.5433 87.769 32.2267 88.169 32C88.5757 31.7667 89.0323 31.65 89.539 31.65C90.0523 31.65 90.5057 31.7633 90.899 31.99C91.2923 32.2167 91.599 32.5367 91.819 32.95C92.0457 33.3567 92.159 33.8333 92.159 34.38C92.159 34.42 92.1557 34.4667 92.149 34.52C92.149 34.5733 92.1457 34.6233 92.139 34.67H87.629V33.98H91.639L91.249 34.22C91.2557 33.88 91.1857 33.5767 91.039 33.31C90.8923 33.0433 90.689 32.8367 90.429 32.69C90.1757 32.5367 89.879 32.46 89.539 32.46C89.2057 32.46 88.909 32.5367 88.649 32.69C88.389 32.8367 88.1857 33.0467 88.039 33.32C87.8923 33.5867 87.819 33.8933 87.819 34.24V34.4C87.819 34.7533 87.899 35.07 88.059 35.35C88.2257 35.6233 88.4557 35.8367 88.749 35.99C89.0423 36.1433 89.379 36.22 89.759 36.22C90.0723 36.22 90.3557 36.1667 90.609 36.06C90.869 35.9533 91.0957 35.7933 91.289 35.58L91.819 36.2C91.579 36.48 91.279 36.6933 90.919 36.84C90.5657 36.9867 90.169 37.06 89.729 37.06ZM93.492 37V31.7H94.412V33.14L94.322 32.78C94.4687 32.4133 94.7154 32.1333 95.062 31.94C95.4087 31.7467 95.8354 31.65 96.342 31.65V32.58C96.302 32.5733 96.262 32.57 96.222 32.57C96.1887 32.57 96.1554 32.57 96.122 32.57C95.6087 32.57 95.202 32.7233 94.902 33.03C94.602 33.3367 94.452 33.78 94.452 34.36V37H93.492ZM102.469 37.06C101.956 37.06 101.496 36.9467 101.089 36.72C100.689 36.4933 100.372 36.1767 100.139 35.77C99.9058 35.3633 99.7891 34.89 99.7891 34.35C99.7891 33.81 99.9058 33.34 100.139 32.94C100.372 32.5333 100.689 32.2167 101.089 31.99C101.496 31.7633 101.956 31.65 102.469 31.65C102.916 31.65 103.319 31.75 103.679 31.95C104.039 32.15 104.326 32.45 104.539 32.85C104.759 33.25 104.869 33.75 104.869 34.35C104.869 34.95 104.762 35.45 104.549 35.85C104.342 36.25 104.059 36.5533 103.699 36.76C103.339 36.96 102.929 37.06 102.469 37.06ZM102.549 36.22C102.882 36.22 103.182 36.1433 103.449 35.99C103.722 35.8367 103.936 35.62 104.089 35.34C104.249 35.0533 104.329 34.7233 104.329 34.35C104.329 33.97 104.249 33.6433 104.089 33.37C103.936 33.09 103.722 32.8733 103.449 32.72C103.182 32.5667 102.882 32.49 102.549 32.49C102.209 32.49 101.906 32.5667 101.639 32.72C101.372 32.8733 101.159 33.09 100.999 33.37C100.839 33.6433 100.759 33.97 100.759 34.35C100.759 34.7233 100.839 35.0533 100.999 35.34C101.159 35.62 101.372 35.8367 101.639 35.99C101.906 36.1433 102.209 36.22 102.549 36.22ZM104.359 37V35.57L104.419 34.34L104.319 33.11V29.58H105.279V37H104.359ZM109.366 37.06C108.832 37.06 108.359 36.9433 107.946 36.71C107.532 36.4767 107.206 36.1567 106.966 35.75C106.726 35.3367 106.606 34.87 106.606 34.35C106.606 33.8233 106.726 33.3567 106.966 32.95C107.206 32.5433 107.532 32.2267 107.946 32C108.359 31.7667 108.832 31.65 109.366 31.65C109.892 31.65 110.362 31.7667 110.776 32C111.196 32.2267 111.522 32.5433 111.756 32.95C111.996 33.35 112.116 33.8167 112.116 34.35C112.116 34.8767 111.996 35.3433 111.756 35.75C111.522 36.1567 111.196 36.4767 110.776 36.71C110.362 36.9433 109.892 37.06 109.366 37.06ZM109.366 36.22C109.706 36.22 110.009 36.1433 110.276 35.99C110.549 35.8367 110.762 35.62 110.916 35.34C111.069 35.0533 111.146 34.7233 111.146 34.35C111.146 33.97 111.069 33.6433 110.916 33.37C110.762 33.09 110.549 32.8733 110.276 32.72C110.009 32.5667 109.706 32.49 109.366 32.49C109.026 32.49 108.722 32.5667 108.456 32.72C108.189 32.8733 107.976 33.09 107.816 33.37C107.656 33.6433 107.576 33.97 107.576 34.35C107.576 34.7233 107.656 35.0533 107.816 35.34C107.976 35.62 108.189 35.8367 108.456 35.99C108.722 36.1433 109.026 36.22 109.366 36.22ZM114.417 37L112.447 31.7H113.357L115.107 36.5H114.677L116.497 31.7H117.307L119.087 36.5H118.667L120.457 31.7H121.317L119.337 37H118.417L116.747 32.62H117.027L115.337 37H114.417ZM125.121 31.65C125.554 31.65 125.934 31.7333 126.261 31.9C126.594 32.0667 126.854 32.32 127.041 32.66C127.228 33 127.321 33.43 127.321 33.95V37H126.361V34.06C126.361 33.5467 126.234 33.16 125.981 32.9C125.734 32.64 125.384 32.51 124.931 32.51C124.591 32.51 124.294 32.5767 124.041 32.71C123.788 32.8433 123.591 33.04 123.451 33.3C123.318 33.56 123.251 33.8833 123.251 34.27V37H122.291V31.7H123.211V33.13L123.061 32.75C123.234 32.4033 123.501 32.1333 123.861 31.94C124.221 31.7467 124.641 31.65 125.121 31.65ZM129.098 37V29.58H130.058V37H129.098ZM134.16 37.06C133.627 37.06 133.154 36.9433 132.74 36.71C132.327 36.4767 132 36.1567 131.76 35.75C131.52 35.3367 131.4 34.87 131.4 34.35C131.4 33.8233 131.52 33.3567 131.76 32.95C132 32.5433 132.327 32.2267 132.74 32C133.154 31.7667 133.627 31.65 134.16 31.65C134.687 31.65 135.157 31.7667 135.57 32C135.99 32.2267 136.317 32.5433 136.55 32.95C136.79 33.35 136.91 33.8167 136.91 34.35C136.91 34.8767 136.79 35.3433 136.55 35.75C136.317 36.1567 135.99 36.4767 135.57 36.71C135.157 36.9433 134.687 37.06 134.16 37.06ZM134.16 36.22C134.5 36.22 134.804 36.1433 135.07 35.99C135.344 35.8367 135.557 35.62 135.71 35.34C135.864 35.0533 135.94 34.7233 135.94 34.35C135.94 33.97 135.864 33.6433 135.71 33.37C135.557 33.09 135.344 32.8733 135.07 32.72C134.804 32.5667 134.5 32.49 134.16 32.49C133.82 32.49 133.517 32.5667 133.25 32.72C132.984 32.8733 132.77 33.09 132.61 33.37C132.45 33.6433 132.37 33.97 132.37 34.35C132.37 34.7233 132.45 35.0533 132.61 35.34C132.77 35.62 132.984 35.8367 133.25 35.99C133.517 36.1433 133.82 36.22 134.16 36.22ZM141.479 37V35.88L141.429 35.67V33.76C141.429 33.3533 141.309 33.04 141.069 32.82C140.836 32.5933 140.483 32.48 140.009 32.48C139.696 32.48 139.389 32.5333 139.089 32.64C138.789 32.74 138.536 32.8767 138.329 33.05L137.929 32.33C138.203 32.11 138.529 31.9433 138.909 31.83C139.296 31.71 139.699 31.65 140.119 31.65C140.846 31.65 141.406 31.8267 141.799 32.18C142.193 32.5333 142.389 33.0733 142.389 33.8V37H141.479ZM139.739 37.06C139.346 37.06 138.999 36.9933 138.699 36.86C138.406 36.7267 138.179 36.5433 138.019 36.31C137.859 36.07 137.779 35.8 137.779 35.5C137.779 35.2133 137.846 34.9533 137.979 34.72C138.119 34.4867 138.343 34.3 138.649 34.16C138.963 34.02 139.383 33.95 139.909 33.95H141.589V34.64H139.949C139.469 34.64 139.146 34.72 138.979 34.88C138.813 35.04 138.729 35.2333 138.729 35.46C138.729 35.72 138.833 35.93 139.039 36.09C139.246 36.2433 139.533 36.32 139.899 36.32C140.259 36.32 140.573 36.24 140.839 36.08C141.113 35.92 141.309 35.6867 141.429 35.38L141.619 36.04C141.493 36.3533 141.269 36.6033 140.949 36.79C140.629 36.97 140.226 37.06 139.739 37.06ZM146.356 37.06C145.843 37.06 145.383 36.9467 144.976 36.72C144.576 36.4933 144.259 36.1767 144.026 35.77C143.793 35.3633 143.676 34.89 143.676 34.35C143.676 33.81 143.793 33.34 144.026 32.94C144.259 32.5333 144.576 32.2167 144.976 31.99C145.383 31.7633 145.843 31.65 146.356 31.65C146.803 31.65 147.206 31.75 147.566 31.95C147.926 32.15 148.213 32.45 148.426 32.85C148.646 33.25 148.756 33.75 148.756 34.35C148.756 34.95 148.649 35.45 148.436 35.85C148.229 36.25 147.946 36.5533 147.586 36.76C147.226 36.96 146.816 37.06 146.356 37.06ZM146.436 36.22C146.769 36.22 147.069 36.1433 147.336 35.99C147.609 35.8367 147.823 35.62 147.976 35.34C148.136 35.0533 148.216 34.7233 148.216 34.35C148.216 33.97 148.136 33.6433 147.976 33.37C147.823 33.09 147.609 32.8733 147.336 32.72C147.069 32.5667 146.769 32.49 146.436 32.49C146.096 32.49 145.793 32.5667 145.526 32.72C145.259 32.8733 145.046 33.09 144.886 33.37C144.726 33.6433 144.646 33.97 144.646 34.35C144.646 34.7233 144.726 35.0533 144.886 35.34C145.046 35.62 145.259 35.8367 145.526 35.99C145.793 36.1433 146.096 36.22 146.436 36.22ZM148.246 37V35.57L148.306 34.34L148.206 33.11V29.58H149.166V37H148.246ZM156.498 31.65C156.931 31.65 157.311 31.7333 157.638 31.9C157.971 32.0667 158.231 32.32 158.418 32.66C158.604 33 158.698 33.43 158.698 33.95V37H157.738V34.06C157.738 33.5467 157.611 33.16 157.358 32.9C157.111 32.64 156.761 32.51 156.308 32.51C155.968 32.51 155.671 32.5767 155.418 32.71C155.164 32.8433 154.968 33.04 154.828 33.3C154.694 33.56 154.628 33.8833 154.628 34.27V37H153.668V31.7H154.588V33.13L154.438 32.75C154.611 32.4033 154.878 32.1333 155.238 31.94C155.598 31.7467 156.018 31.65 156.498 31.65ZM163.764 37V35.88L163.714 35.67V33.76C163.714 33.3533 163.594 33.04 163.354 32.82C163.121 32.5933 162.768 32.48 162.294 32.48C161.981 32.48 161.674 32.5333 161.374 32.64C161.074 32.74 160.821 32.8767 160.614 33.05L160.214 32.33C160.488 32.11 160.814 31.9433 161.194 31.83C161.581 31.71 161.984 31.65 162.404 31.65C163.131 31.65 163.691 31.8267 164.084 32.18C164.478 32.5333 164.674 33.0733 164.674 33.8V37H163.764ZM162.024 37.06C161.631 37.06 161.284 36.9933 160.984 36.86C160.691 36.7267 160.464 36.5433 160.304 36.31C160.144 36.07 160.064 35.8 160.064 35.5C160.064 35.2133 160.131 34.9533 160.264 34.72C160.404 34.4867 160.628 34.3 160.934 34.16C161.248 34.02 161.668 33.95 162.194 33.95H163.874V34.64H162.234C161.754 34.64 161.431 34.72 161.264 34.88C161.098 35.04 161.014 35.2333 161.014 35.46C161.014 35.72 161.118 35.93 161.324 36.09C161.531 36.2433 161.818 36.32 162.184 36.32C162.544 36.32 162.858 36.24 163.124 36.08C163.398 35.92 163.594 35.6867 163.714 35.38L163.904 36.04C163.778 36.3533 163.554 36.6033 163.234 36.79C162.914 36.97 162.511 37.06 162.024 37.06ZM166.681 33.02C166.494 33.02 166.334 32.9567 166.201 32.83C166.068 32.6967 166.001 32.53 166.001 32.33C166.001 32.13 166.068 31.9667 166.201 31.84C166.334 31.7133 166.494 31.65 166.681 31.65C166.861 31.65 167.014 31.7133 167.141 31.84C167.274 31.9667 167.341 32.13 167.341 32.33C167.341 32.53 167.274 32.6967 167.141 32.83C167.014 32.9567 166.861 33.02 166.681 33.02ZM166.681 37.06C166.494 37.06 166.334 36.9967 166.201 36.87C166.068 36.7367 166.001 36.57 166.001 36.37C166.001 36.17 166.068 36.0067 166.201 35.88C166.334 35.7533 166.494 35.69 166.681 35.69C166.861 35.69 167.014 35.7533 167.141 35.88C167.274 36.0067 167.341 36.17 167.341 36.37C167.341 36.57 167.274 36.7367 167.141 36.87C167.014 36.9967 166.861 37.06 166.681 37.06Z" fill="white"/>
<defs>
<filter id="filter0_dd_2204_6734" x="0" y="0" width="200" height="88" filterUnits="userSpaceOnUse" color-interpolation-filters="sRGB">
<feFlood flood-opacity="0" result="BackgroundImageFix"/>
<feColorMatrix in="SourceAlpha" type="matrix" values="0 0 0 0 0 0 0 0 0 0 0 0 0 0 0 0 0 0 127 0" result="hardAlpha"/>
<feOffset dx="4" dy="4"/>
<feGaussianBlur stdDeviation="4"/>
<feComposite in2="hardAlpha" operator="out"/>
<feColorMatrix type="matrix" values="0 0 0 0 0 0 0 0 0 0 0 0 0 0 0 0 0 0 0.25 0"/>
<feBlend mode="normal" in2="BackgroundImageFix" result="effect1_dropShadow_2204_6734"/>
<feColorMatrix in="SourceAlpha" type="matrix" values="0 0 0 0 0 0 0 0 0 0 0 0 0 0 0 0 0 0 127 0" result="hardAlpha"/>
<feOffset dx="-4" dy="-4"/>
<feGaussianBlur stdDeviation="4"/>
<feComposite in2="hardAlpha" operator="out"/>
<feColorMatrix type="matrix" values="0 0 0 0 1 0 0 0 0 1 0 0 0 0 1 0 0 0 0.75 0"/>
<feBlend mode="normal" in2="effect1_dropShadow_2204_6734" result="effect2_dropShadow_2204_6734"/>
<feBlend mode="normal" in="SourceGraphic" in2="effect2_dropShadow_2204_6734" result="shape"/>
</filter>
</defs>
</svg>
