<svg width="810" height="1411" viewBox="0 0 810 1411" fill="none" xmlns="http://www.w3.org/2000/svg">
<g filter="url(#filter0_ii_1967_6652)">
<path d="M349.373 733.586C349.373 733.586 319.992 771.822 349.373 790.936C378.753 810.05 414.01 854.168 444.867 812.995C475.714 771.822 505.104 733.586 505.104 733.586C505.104 733.586 515.389 724.759 516.856 688C518.323 651.241 559.465 642.414 596.189 630.65C632.913 618.886 690.216 592.414 710.778 433.596C710.778 433.596 709.311 420.364 750.444 360.069C791.578 299.774 848.872 245.37 772.482 213.015C696.092 180.661 524.199 105.666 524.199 105.666C524.199 105.666 486 99.7839 477.19 55.666C468.38 11.5481 424.304 24.7886 416.953 42.4341C409.61 60.0795 393.448 63.0247 358.191 63.0247C322.934 63.0247 300.896 67.4382 286.202 35.0839C271.507 2.72963 262.697 1.26134 239.192 1.26134C215.688 1.26134 180.431 -9.034 159.86 29.2021C139.289 67.4382 129.012 89.4972 104.032 89.4972C79.0518 89.4972 68.7749 93.9106 61.4233 118.906C54.0802 143.902 2.6616 315.96 2.6616 315.96C2.6616 315.96 -12.0331 351.251 27.6332 351.251C67.2994 351.251 137.813 351.251 137.813 351.251C137.813 351.251 156.909 342.424 180.422 377.723C203.927 413.014 369.935 638.009 369.935 638.009C369.935 638.009 415.477 674.768 349.373 733.586Z" fill="#EBEBEB"/>
</g>
<g filter="url(#filter1_ii_1967_6652)">
<rect x="280" y="886" width="287.817" height="525" rx="20" fill="#EBEBEB"/>
</g>
<g filter="url(#filter2_ii_1967_6652)">
<circle cx="424" cy="1341" r="28" fill="#EBEBEB"/>
</g>
<g filter="url(#filter3_ii_1967_6652)">
<rect x="372.185" y="904.965" width="103.448" height="13.7931" rx="6.89655" fill="#EBEBEB"/>
</g>
<path d="M309.508 918V906.8H314.596C315.812 906.8 316.884 907.034 317.812 907.504C318.74 907.962 319.465 908.608 319.988 909.44C320.51 910.272 320.772 911.258 320.772 912.4C320.772 913.53 320.51 914.517 319.988 915.36C319.465 916.192 318.74 916.842 317.812 917.312C316.884 917.77 315.812 918 314.596 918H309.508ZM312.1 915.872H314.468C315.214 915.872 315.86 915.733 316.404 915.456C316.958 915.168 317.385 914.762 317.684 914.24C317.993 913.717 318.148 913.104 318.148 912.4C318.148 911.685 317.993 911.072 317.684 910.56C317.385 910.037 316.958 909.637 316.404 909.36C315.86 909.072 315.214 908.928 314.468 908.928H312.1V915.872Z" fill="#D9D9D9"/>
<path d="M309.508 918V906.8H314.596C315.812 906.8 316.884 907.034 317.812 907.504C318.74 907.962 319.465 908.608 319.988 909.44C320.51 910.272 320.772 911.258 320.772 912.4C320.772 913.53 320.51 914.517 319.988 915.36C319.465 916.192 318.74 916.842 317.812 917.312C316.884 917.77 315.812 918 314.596 918H309.508ZM312.1 915.872H314.468C315.214 915.872 315.86 915.733 316.404 915.456C316.958 915.168 317.385 914.762 317.684 914.24C317.993 913.717 318.148 913.104 318.148 912.4C318.148 911.685 317.993 911.072 317.684 910.56C317.385 910.037 316.958 909.637 316.404 909.36C315.86 909.072 315.214 908.928 314.468 908.928H312.1V915.872Z" fill="black"/>
<path d="M322.727 918V906.8H327.575C328.577 906.8 329.441 906.965 330.167 907.296C330.892 907.616 331.452 908.08 331.847 908.688C332.241 909.296 332.439 910.021 332.439 910.864C332.439 911.696 332.241 912.416 331.847 913.024C331.452 913.621 330.892 914.08 330.167 914.4C329.441 914.72 328.577 914.88 327.575 914.88H324.167L325.319 913.744V918H322.727ZM329.847 918L327.047 913.936H329.815L332.647 918H329.847ZM325.319 914.032L324.167 912.816H327.431C328.231 912.816 328.828 912.645 329.223 912.304C329.617 911.952 329.815 911.472 329.815 910.864C329.815 910.245 329.617 909.765 329.223 909.424C328.828 909.082 328.231 908.912 327.431 908.912H324.167L325.319 907.68V914.032Z" fill="#D9D9D9"/>
<path d="M322.727 918V906.8H327.575C328.577 906.8 329.441 906.965 330.167 907.296C330.892 907.616 331.452 908.08 331.847 908.688C332.241 909.296 332.439 910.021 332.439 910.864C332.439 911.696 332.241 912.416 331.847 913.024C331.452 913.621 330.892 914.08 330.167 914.4C329.441 914.72 328.577 914.88 327.575 914.88H324.167L325.319 913.744V918H322.727ZM329.847 918L327.047 913.936H329.815L332.647 918H329.847ZM325.319 914.032L324.167 912.816H327.431C328.231 912.816 328.828 912.645 329.223 912.304C329.617 911.952 329.815 911.472 329.815 910.864C329.815 910.245 329.617 909.765 329.223 909.424C328.828 909.082 328.231 908.912 327.431 908.912H324.167L325.319 907.68V914.032Z" fill="black"/>
<path d="M337.12 918V913.424L337.712 914.992L332.784 906.8H335.536L339.312 913.088H337.728L341.52 906.8H344.064L339.136 914.992L339.712 913.424V918H337.12Z" fill="#D9D9D9"/>
<path d="M337.12 918V913.424L337.712 914.992L332.784 906.8H335.536L339.312 913.088H337.728L341.52 906.8H344.064L339.136 914.992L339.712 913.424V918H337.12Z" fill="black"/>
<rect x="513" y="912.929" width="2.42857" height="4.85714" fill="#D9D9D9"/>
<rect x="513" y="912.929" width="2.42857" height="4.85714" fill="black"/>
<rect x="517.857" y="909.286" width="2.42857" height="8.5" fill="#D9D9D9"/>
<rect x="517.857" y="909.286" width="2.42857" height="8.5" fill="black"/>
<rect x="522.714" y="905.643" width="2.42857" height="12.1429" fill="#D9D9D9"/>
<rect x="522.714" y="905.643" width="2.42857" height="12.1429" fill="black"/>
<rect x="527.571" y="902" width="2.42857" height="15.7857" fill="#D9D9D9"/>
<rect x="527.571" y="902" width="2.42857" height="15.7857" fill="black"/>
<g filter="url(#filter4_ii_1967_6652)">
<path d="M424 1341.5V1252L326 1154V926" stroke="#EBEBEB" stroke-width="10"/>
</g>
<g filter="url(#filter5_dd_1967_6652)">
<path d="M432 1342H610L610 789.5L436 764.783V700" stroke="#EBEBEB" stroke-width="10"/>
</g>
<g filter="url(#filter6_dii_1967_6652)">
<circle r="10" transform="matrix(1 0 0 -1 436 699)" fill="#FE5000"/>
</g>
<g filter="url(#filter7_dii_1967_6652)">
<circle r="19" transform="matrix(1 0 0 -1 424 1341)" fill="#FE5000"/>
</g>
<defs>
<filter id="filter0_ii_1967_6652" x="-4" y="-4" width="818" height="838" filterUnits="userSpaceOnUse" color-interpolation-filters="sRGB">
<feFlood flood-opacity="0" result="BackgroundImageFix"/>
<feBlend mode="normal" in="SourceGraphic" in2="BackgroundImageFix" result="shape"/>
<feColorMatrix in="SourceAlpha" type="matrix" values="0 0 0 0 0 0 0 0 0 0 0 0 0 0 0 0 0 0 127 0" result="hardAlpha"/>
<feOffset dx="4" dy="4"/>
<feGaussianBlur stdDeviation="4"/>
<feComposite in2="hardAlpha" operator="arithmetic" k2="-1" k3="1"/>
<feColorMatrix type="matrix" values="0 0 0 0 0 0 0 0 0 0 0 0 0 0 0 0 0 0 0.25 0"/>
<feBlend mode="normal" in2="shape" result="effect1_innerShadow_1967_6652"/>
<feColorMatrix in="SourceAlpha" type="matrix" values="0 0 0 0 0 0 0 0 0 0 0 0 0 0 0 0 0 0 127 0" result="hardAlpha"/>
<feOffset dx="-4" dy="-4"/>
<feGaussianBlur stdDeviation="4"/>
<feComposite in2="hardAlpha" operator="arithmetic" k2="-1" k3="1"/>
<feColorMatrix type="matrix" values="0 0 0 0 1 0 0 0 0 1 0 0 0 0 1 0 0 0 0.75 0"/>
<feBlend mode="normal" in2="effect1_innerShadow_1967_6652" result="effect2_innerShadow_1967_6652"/>
</filter>
<filter id="filter1_ii_1967_6652" x="276" y="882" width="295.817" height="533" filterUnits="userSpaceOnUse" color-interpolation-filters="sRGB">
<feFlood flood-opacity="0" result="BackgroundImageFix"/>
<feBlend mode="normal" in="SourceGraphic" in2="BackgroundImageFix" result="shape"/>
<feColorMatrix in="SourceAlpha" type="matrix" values="0 0 0 0 0 0 0 0 0 0 0 0 0 0 0 0 0 0 127 0" result="hardAlpha"/>
<feOffset dx="4" dy="4"/>
<feGaussianBlur stdDeviation="4"/>
<feComposite in2="hardAlpha" operator="arithmetic" k2="-1" k3="1"/>
<feColorMatrix type="matrix" values="0 0 0 0 0 0 0 0 0 0 0 0 0 0 0 0 0 0 0.25 0"/>
<feBlend mode="normal" in2="shape" result="effect1_innerShadow_1967_6652"/>
<feColorMatrix in="SourceAlpha" type="matrix" values="0 0 0 0 0 0 0 0 0 0 0 0 0 0 0 0 0 0 127 0" result="hardAlpha"/>
<feOffset dx="-4" dy="-4"/>
<feGaussianBlur stdDeviation="4"/>
<feComposite in2="hardAlpha" operator="arithmetic" k2="-1" k3="1"/>
<feColorMatrix type="matrix" values="0 0 0 0 1 0 0 0 0 1 0 0 0 0 1 0 0 0 0.75 0"/>
<feBlend mode="normal" in2="effect1_innerShadow_1967_6652" result="effect2_innerShadow_1967_6652"/>
</filter>
<filter id="filter2_ii_1967_6652" x="392" y="1309" width="64" height="64" filterUnits="userSpaceOnUse" color-interpolation-filters="sRGB">
<feFlood flood-opacity="0" result="BackgroundImageFix"/>
<feBlend mode="normal" in="SourceGraphic" in2="BackgroundImageFix" result="shape"/>
<feColorMatrix in="SourceAlpha" type="matrix" values="0 0 0 0 0 0 0 0 0 0 0 0 0 0 0 0 0 0 127 0" result="hardAlpha"/>
<feOffset dx="4" dy="4"/>
<feGaussianBlur stdDeviation="4"/>
<feComposite in2="hardAlpha" operator="arithmetic" k2="-1" k3="1"/>
<feColorMatrix type="matrix" values="0 0 0 0 0 0 0 0 0 0 0 0 0 0 0 0 0 0 0.25 0"/>
<feBlend mode="normal" in2="shape" result="effect1_innerShadow_1967_6652"/>
<feColorMatrix in="SourceAlpha" type="matrix" values="0 0 0 0 0 0 0 0 0 0 0 0 0 0 0 0 0 0 127 0" result="hardAlpha"/>
<feOffset dx="-4" dy="-4"/>
<feGaussianBlur stdDeviation="4"/>
<feComposite in2="hardAlpha" operator="arithmetic" k2="-1" k3="1"/>
<feColorMatrix type="matrix" values="0 0 0 0 1 0 0 0 0 1 0 0 0 0 1 0 0 0 0.05 0"/>
<feBlend mode="normal" in2="effect1_innerShadow_1967_6652" result="effect2_innerShadow_1967_6652"/>
</filter>
<filter id="filter3_ii_1967_6652" x="368.185" y="900.965" width="111.448" height="21.793" filterUnits="userSpaceOnUse" color-interpolation-filters="sRGB">
<feFlood flood-opacity="0" result="BackgroundImageFix"/>
<feBlend mode="normal" in="SourceGraphic" in2="BackgroundImageFix" result="shape"/>
<feColorMatrix in="SourceAlpha" type="matrix" values="0 0 0 0 0 0 0 0 0 0 0 0 0 0 0 0 0 0 127 0" result="hardAlpha"/>
<feOffset dx="4" dy="4"/>
<feGaussianBlur stdDeviation="4"/>
<feComposite in2="hardAlpha" operator="arithmetic" k2="-1" k3="1"/>
<feColorMatrix type="matrix" values="0 0 0 0 0 0 0 0 0 0 0 0 0 0 0 0 0 0 0.25 0"/>
<feBlend mode="normal" in2="shape" result="effect1_innerShadow_1967_6652"/>
<feColorMatrix in="SourceAlpha" type="matrix" values="0 0 0 0 0 0 0 0 0 0 0 0 0 0 0 0 0 0 127 0" result="hardAlpha"/>
<feOffset dx="-4" dy="-4"/>
<feGaussianBlur stdDeviation="4"/>
<feComposite in2="hardAlpha" operator="arithmetic" k2="-1" k3="1"/>
<feColorMatrix type="matrix" values="0 0 0 0 1 0 0 0 0 1 0 0 0 0 1 0 0 0 0.05 0"/>
<feBlend mode="normal" in2="effect1_innerShadow_1967_6652" result="effect2_innerShadow_1967_6652"/>
</filter>
<filter id="filter4_ii_1967_6652" x="317" y="922" width="116" height="423.5" filterUnits="userSpaceOnUse" color-interpolation-filters="sRGB">
<feFlood flood-opacity="0" result="BackgroundImageFix"/>
<feBlend mode="normal" in="SourceGraphic" in2="BackgroundImageFix" result="shape"/>
<feColorMatrix in="SourceAlpha" type="matrix" values="0 0 0 0 0 0 0 0 0 0 0 0 0 0 0 0 0 0 127 0" result="hardAlpha"/>
<feOffset dx="4" dy="4"/>
<feGaussianBlur stdDeviation="4"/>
<feComposite in2="hardAlpha" operator="arithmetic" k2="-1" k3="1"/>
<feColorMatrix type="matrix" values="0 0 0 0 0 0 0 0 0 0 0 0 0 0 0 0 0 0 0.25 0"/>
<feBlend mode="normal" in2="shape" result="effect1_innerShadow_1967_6652"/>
<feColorMatrix in="SourceAlpha" type="matrix" values="0 0 0 0 0 0 0 0 0 0 0 0 0 0 0 0 0 0 127 0" result="hardAlpha"/>
<feOffset dx="-4" dy="-4"/>
<feGaussianBlur stdDeviation="4"/>
<feComposite in2="hardAlpha" operator="arithmetic" k2="-1" k3="1"/>
<feColorMatrix type="matrix" values="0 0 0 0 1 0 0 0 0 1 0 0 0 0 1 0 0 0 0.05 0"/>
<feBlend mode="normal" in2="effect1_innerShadow_1967_6652" result="effect2_innerShadow_1967_6652"/>
</filter>
<filter id="filter5_dd_1967_6652" x="413" y="682" width="220" height="683" filterUnits="userSpaceOnUse" color-interpolation-filters="sRGB">
<feFlood flood-opacity="0" result="BackgroundImageFix"/>
<feColorMatrix in="SourceAlpha" type="matrix" values="0 0 0 0 0 0 0 0 0 0 0 0 0 0 0 0 0 0 127 0" result="hardAlpha"/>
<feOffset dx="4" dy="4"/>
<feGaussianBlur stdDeviation="7"/>
<feComposite in2="hardAlpha" operator="out"/>
<feColorMatrix type="matrix" values="0 0 0 0 0 0 0 0 0 0 0 0 0 0 0 0 0 0 0.25 0"/>
<feBlend mode="normal" in2="BackgroundImageFix" result="effect1_dropShadow_1967_6652"/>
<feColorMatrix in="SourceAlpha" type="matrix" values="0 0 0 0 0 0 0 0 0 0 0 0 0 0 0 0 0 0 127 0" result="hardAlpha"/>
<feOffset dx="-4" dy="-4"/>
<feGaussianBlur stdDeviation="7"/>
<feComposite in2="hardAlpha" operator="out"/>
<feColorMatrix type="matrix" values="0 0 0 0 1 0 0 0 0 1 0 0 0 0 1 0 0 0 0.75 0"/>
<feBlend mode="normal" in2="effect1_dropShadow_1967_6652" result="effect2_dropShadow_1967_6652"/>
<feBlend mode="normal" in="SourceGraphic" in2="effect2_dropShadow_1967_6652" result="shape"/>
</filter>
<filter id="filter6_dii_1967_6652" x="412" y="675" width="48" height="48" filterUnits="userSpaceOnUse" color-interpolation-filters="sRGB">
<feFlood flood-opacity="0" result="BackgroundImageFix"/>
<feColorMatrix in="SourceAlpha" type="matrix" values="0 0 0 0 0 0 0 0 0 0 0 0 0 0 0 0 0 0 127 0" result="hardAlpha"/>
<feOffset/>
<feGaussianBlur stdDeviation="7"/>
<feComposite in2="hardAlpha" operator="out"/>
<feColorMatrix type="matrix" values="0 0 0 0 0.996078 0 0 0 0 0.313726 0 0 0 0 0 0 0 0 0.5 0"/>
<feBlend mode="normal" in2="BackgroundImageFix" result="effect1_dropShadow_1967_6652"/>
<feBlend mode="normal" in="SourceGraphic" in2="effect1_dropShadow_1967_6652" result="shape"/>
<feColorMatrix in="SourceAlpha" type="matrix" values="0 0 0 0 0 0 0 0 0 0 0 0 0 0 0 0 0 0 127 0" result="hardAlpha"/>
<feOffset dx="2" dy="2"/>
<feGaussianBlur stdDeviation="2"/>
<feComposite in2="hardAlpha" operator="arithmetic" k2="-1" k3="1"/>
<feColorMatrix type="matrix" values="0 0 0 0 0 0 0 0 0 0 0 0 0 0 0 0 0 0 0.25 0"/>
<feBlend mode="normal" in2="shape" result="effect2_innerShadow_1967_6652"/>
<feColorMatrix in="SourceAlpha" type="matrix" values="0 0 0 0 0 0 0 0 0 0 0 0 0 0 0 0 0 0 127 0" result="hardAlpha"/>
<feOffset dx="-2" dy="-2"/>
<feGaussianBlur stdDeviation="2"/>
<feComposite in2="hardAlpha" operator="arithmetic" k2="-1" k3="1"/>
<feColorMatrix type="matrix" values="0 0 0 0 1 0 0 0 0 1 0 0 0 0 1 0 0 0 0.5 0"/>
<feBlend mode="normal" in2="effect2_innerShadow_1967_6652" result="effect3_innerShadow_1967_6652"/>
</filter>
<filter id="filter7_dii_1967_6652" x="385" y="1302" width="78" height="78" filterUnits="userSpaceOnUse" color-interpolation-filters="sRGB">
<feFlood flood-opacity="0" result="BackgroundImageFix"/>
<feColorMatrix in="SourceAlpha" type="matrix" values="0 0 0 0 0 0 0 0 0 0 0 0 0 0 0 0 0 0 127 0" result="hardAlpha"/>
<feOffset/>
<feGaussianBlur stdDeviation="10"/>
<feComposite in2="hardAlpha" operator="out"/>
<feColorMatrix type="matrix" values="0 0 0 0 0.996078 0 0 0 0 0.313726 0 0 0 0 0 0 0 0 0.5 0"/>
<feBlend mode="normal" in2="BackgroundImageFix" result="effect1_dropShadow_1967_6652"/>
<feBlend mode="normal" in="SourceGraphic" in2="effect1_dropShadow_1967_6652" result="shape"/>
<feColorMatrix in="SourceAlpha" type="matrix" values="0 0 0 0 0 0 0 0 0 0 0 0 0 0 0 0 0 0 127 0" result="hardAlpha"/>
<feOffset dx="2" dy="2"/>
<feGaussianBlur stdDeviation="2"/>
<feComposite in2="hardAlpha" operator="arithmetic" k2="-1" k3="1"/>
<feColorMatrix type="matrix" values="0 0 0 0 0 0 0 0 0 0 0 0 0 0 0 0 0 0 0.25 0"/>
<feBlend mode="normal" in2="shape" result="effect2_innerShadow_1967_6652"/>
<feColorMatrix in="SourceAlpha" type="matrix" values="0 0 0 0 0 0 0 0 0 0 0 0 0 0 0 0 0 0 127 0" result="hardAlpha"/>
<feOffset dx="-2" dy="-2"/>
<feGaussianBlur stdDeviation="2"/>
<feComposite in2="hardAlpha" operator="arithmetic" k2="-1" k3="1"/>
<feColorMatrix type="matrix" values="0 0 0 0 1 0 0 0 0 1 0 0 0 0 1 0 0 0 0.5 0"/>
<feBlend mode="normal" in2="effect2_innerShadow_1967_6652" result="effect3_innerShadow_1967_6652"/>
</filter>
</defs>
</svg>
