<svg width="67" height="65" viewBox="0 0 67 65" fill="none" xmlns="http://www.w3.org/2000/svg">
<mask id="mask0_1580_6596" style="mask-type:alpha" maskUnits="userSpaceOnUse" x="1" y="0" width="65" height="65">
<rect x="1" width="65" height="65" fill="#D9D9D9"/>
</mask>
<g mask="url(#mask0_1580_6596)">
<path d="M33.4987 60.9375C28.2174 60.9375 23.4219 59.6285 19.112 57.0104C14.8004 54.3924 11.4258 50.8941 8.98828 46.5156V54.5729H4.92578V39.6771H19.8216V43.7396H12.1029C14.089 47.7118 17.0004 50.8941 20.8372 53.2865C24.674 55.6788 28.8945 56.875 33.4987 56.875C36.7938 56.875 39.8976 56.2656 42.8099 55.0469C45.7205 53.8281 48.2708 52.158 50.461 50.0365C52.6493 47.9149 54.398 45.4097 55.707 42.5208C57.0161 39.6319 57.7383 36.5174 57.8737 33.1771H61.9362C61.8459 37.0139 61.0334 40.6142 59.4987 43.9779C57.964 47.3399 55.921 50.2847 53.3697 52.8125C50.8203 55.3403 47.842 57.3264 44.4349 58.7708C41.0261 60.2153 37.3806 60.9375 33.4987 60.9375ZM5.0612 31.8229C5.19661 27.8958 6.03168 24.2396 7.56641 20.8542C9.10113 17.4687 11.1667 14.523 13.7631 12.0169C16.3577 9.51257 19.3477 7.56076 22.7331 6.16146C26.1185 4.76215 29.707 4.0625 33.4987 4.0625C38.7348 4.0625 43.5304 5.37153 47.8854 7.98958C52.2422 10.6076 55.6167 14.151 58.0091 18.6198V10.4271H62.0716V25.3229H47.1758V21.2604H54.8945C52.9536 17.3785 50.0647 14.2187 46.2279 11.7812C42.3911 9.34375 38.148 8.125 33.4987 8.125C30.2487 8.125 27.1793 8.73437 24.2904 9.95312C21.4015 11.1719 18.8511 12.8303 16.6393 14.9283C14.4275 17.0282 12.6554 19.5226 11.3229 22.4115C9.99217 25.3003 9.25911 28.4375 9.1237 31.8229H5.0612Z" fill="#FE5000"/>
</g>
<path d="M30.9896 48.4479V51.8333H34.6458V48.5833C35.684 48.4028 36.6996 48.1211 37.6927 47.7383C38.6858 47.3538 39.566 46.8337 40.3333 46.1783C41.1007 45.5247 41.7218 44.7122 42.1967 43.7408C42.6697 42.7712 42.9062 41.6319 42.9062 40.3229C42.9062 38.4271 42.3537 36.7461 41.2487 35.28C40.1419 33.8121 37.9635 32.4913 34.7135 31.3177C31.8698 30.3698 29.974 29.5347 29.026 28.8125C28.0781 28.0903 27.6042 27.0972 27.6042 25.8333C27.6042 24.5694 28.0899 23.5313 29.0612 22.7188C30.0308 21.9063 31.3507 21.5 33.0208 21.5C34.4201 21.5 35.5594 21.8385 36.4387 22.5156C37.3199 23.1927 37.9861 24.0278 38.4375 25.0208L41.7552 23.6667C41.2135 22.2222 40.2999 20.9917 39.0144 19.9752C37.727 18.9605 36.316 18.3854 34.7812 18.25V15H31.125V18.25C28.8681 18.6563 27.1076 19.5816 25.8437 21.026C24.5799 22.4705 23.9479 24.0729 23.9479 25.8333C23.9479 27.8646 24.5573 29.5004 25.776 30.7408C26.9948 31.9831 29.0035 33.1007 31.8021 34.0938C34.691 35.1771 36.6545 36.1358 37.6927 36.97C38.7309 37.806 39.25 38.9236 39.25 40.3229C39.25 42.0382 38.6406 43.2795 37.4219 44.0469C36.2031 44.8142 34.8264 45.1979 33.2917 45.1979C31.7569 45.1979 30.3919 44.7357 29.1967 43.8113C27.9996 42.885 27.0851 41.5417 26.4531 39.7812L23 41.2031C23.7222 43.1892 24.7378 44.7799 26.0469 45.9752C27.3559 47.1723 29.0035 47.9965 30.9896 48.4479Z" fill="#FE5000"/>
</svg>
