<svg width="661" height="830" viewBox="0 0 661 830" fill="none" xmlns="http://www.w3.org/2000/svg">
<g filter="url(#filter0_ii_1857_6657)">
<rect x="257" y="305" width="287.817" height="525" rx="20" fill="#EBEBEB"/>
</g>
<g filter="url(#filter1_ii_1857_6657)">
<circle cx="401" cy="760" r="28" fill="#EBEBEB"/>
</g>
<g filter="url(#filter2_ii_1857_6657)">
<rect x="349.185" y="323.965" width="103.448" height="13.7931" rx="6.89655" fill="#EBEBEB"/>
</g>
<path d="M286.508 337V325.8H291.596C292.812 325.8 293.884 326.035 294.812 326.504C295.74 326.963 296.465 327.608 296.988 328.44C297.51 329.272 297.772 330.259 297.772 331.4C297.772 332.531 297.51 333.517 296.988 334.36C296.465 335.192 295.74 335.843 294.812 336.312C293.884 336.771 292.812 337 291.596 337H286.508ZM289.1 334.872H291.468C292.214 334.872 292.86 334.733 293.404 334.456C293.958 334.168 294.385 333.763 294.684 333.24C294.993 332.717 295.148 332.104 295.148 331.4C295.148 330.685 294.993 330.072 294.684 329.56C294.385 329.037 293.958 328.637 293.404 328.36C292.86 328.072 292.214 327.928 291.468 327.928H289.1V334.872ZM299.726 337V325.8H304.574C305.577 325.8 306.441 325.965 307.166 326.296C307.892 326.616 308.452 327.08 308.846 327.688C309.241 328.296 309.438 329.021 309.438 329.864C309.438 330.696 309.241 331.416 308.846 332.024C308.452 332.621 307.892 333.08 307.166 333.4C306.441 333.72 305.577 333.88 304.574 333.88H301.166L302.318 332.744V337H299.726ZM306.846 337L304.046 332.936H306.814L309.646 337H306.846ZM302.318 333.032L301.166 331.816H304.43C305.23 331.816 305.828 331.645 306.222 331.304C306.617 330.952 306.814 330.472 306.814 329.864C306.814 329.245 306.617 328.765 306.222 328.424C305.828 328.083 305.23 327.912 304.43 327.912H301.166L302.318 326.68V333.032ZM314.12 337V332.424L314.712 333.992L309.784 325.8H312.536L316.312 332.088H314.728L318.52 325.8H321.064L316.136 333.992L316.712 332.424V337H314.12Z" fill="#D9D9D9"/>
<path d="M286.508 337V325.8H291.596C292.812 325.8 293.884 326.035 294.812 326.504C295.74 326.963 296.465 327.608 296.988 328.44C297.51 329.272 297.772 330.259 297.772 331.4C297.772 332.531 297.51 333.517 296.988 334.36C296.465 335.192 295.74 335.843 294.812 336.312C293.884 336.771 292.812 337 291.596 337H286.508ZM289.1 334.872H291.468C292.214 334.872 292.86 334.733 293.404 334.456C293.958 334.168 294.385 333.763 294.684 333.24C294.993 332.717 295.148 332.104 295.148 331.4C295.148 330.685 294.993 330.072 294.684 329.56C294.385 329.037 293.958 328.637 293.404 328.36C292.86 328.072 292.214 327.928 291.468 327.928H289.1V334.872ZM299.726 337V325.8H304.574C305.577 325.8 306.441 325.965 307.166 326.296C307.892 326.616 308.452 327.08 308.846 327.688C309.241 328.296 309.438 329.021 309.438 329.864C309.438 330.696 309.241 331.416 308.846 332.024C308.452 332.621 307.892 333.08 307.166 333.4C306.441 333.72 305.577 333.88 304.574 333.88H301.166L302.318 332.744V337H299.726ZM306.846 337L304.046 332.936H306.814L309.646 337H306.846ZM302.318 333.032L301.166 331.816H304.43C305.23 331.816 305.828 331.645 306.222 331.304C306.617 330.952 306.814 330.472 306.814 329.864C306.814 329.245 306.617 328.765 306.222 328.424C305.828 328.083 305.23 327.912 304.43 327.912H301.166L302.318 326.68V333.032ZM314.12 337V332.424L314.712 333.992L309.784 325.8H312.536L316.312 332.088H314.728L318.52 325.8H321.064L316.136 333.992L316.712 332.424V337H314.12Z" fill="black"/>
<rect x="471" y="333" width="2" height="4" fill="#D9D9D9"/>
<rect x="471" y="333" width="2" height="4" fill="black"/>
<rect x="475" y="330" width="2" height="7" fill="#D9D9D9"/>
<rect x="475" y="330" width="2" height="7" fill="black"/>
<rect x="479" y="327" width="2" height="10" fill="#D9D9D9"/>
<rect x="479" y="327" width="2" height="10" fill="black"/>
<rect x="483" y="324" width="2" height="13" fill="#D9D9D9"/>
<rect x="483" y="324" width="2" height="13" fill="black"/>
<g filter="url(#filter3_ii_1857_6657)">
<path d="M401 760.5V671L303 573V345" stroke="#EBEBEB" stroke-width="10"/>
</g>
<g filter="url(#filter4_dd_1857_6657)">
<path d="M400 760H638L638 207.5L24 96.7832L24 25" stroke="#EBEBEB" stroke-width="10"/>
</g>
<g filter="url(#filter5_dii_1857_6657)">
<circle r="10" transform="matrix(1 0 0 -1 24 24)" fill="#FE5000"/>
</g>
<g filter="url(#filter6_dii_1857_6657)">
<circle r="19" transform="matrix(1 0 0 -1 401 760)" fill="#FE5000"/>
</g>
<defs>
<filter id="filter0_ii_1857_6657" x="253" y="301" width="295.817" height="533" filterUnits="userSpaceOnUse" color-interpolation-filters="sRGB">
<feFlood flood-opacity="0" result="BackgroundImageFix"/>
<feBlend mode="normal" in="SourceGraphic" in2="BackgroundImageFix" result="shape"/>
<feColorMatrix in="SourceAlpha" type="matrix" values="0 0 0 0 0 0 0 0 0 0 0 0 0 0 0 0 0 0 127 0" result="hardAlpha"/>
<feOffset dx="4" dy="4"/>
<feGaussianBlur stdDeviation="4"/>
<feComposite in2="hardAlpha" operator="arithmetic" k2="-1" k3="1"/>
<feColorMatrix type="matrix" values="0 0 0 0 0 0 0 0 0 0 0 0 0 0 0 0 0 0 0.25 0"/>
<feBlend mode="normal" in2="shape" result="effect1_innerShadow_1857_6657"/>
<feColorMatrix in="SourceAlpha" type="matrix" values="0 0 0 0 0 0 0 0 0 0 0 0 0 0 0 0 0 0 127 0" result="hardAlpha"/>
<feOffset dx="-4" dy="-4"/>
<feGaussianBlur stdDeviation="4"/>
<feComposite in2="hardAlpha" operator="arithmetic" k2="-1" k3="1"/>
<feColorMatrix type="matrix" values="0 0 0 0 1 0 0 0 0 1 0 0 0 0 1 0 0 0 0.75 0"/>
<feBlend mode="normal" in2="effect1_innerShadow_1857_6657" result="effect2_innerShadow_1857_6657"/>
</filter>
<filter id="filter1_ii_1857_6657" x="369" y="728" width="64" height="64" filterUnits="userSpaceOnUse" color-interpolation-filters="sRGB">
<feFlood flood-opacity="0" result="BackgroundImageFix"/>
<feBlend mode="normal" in="SourceGraphic" in2="BackgroundImageFix" result="shape"/>
<feColorMatrix in="SourceAlpha" type="matrix" values="0 0 0 0 0 0 0 0 0 0 0 0 0 0 0 0 0 0 127 0" result="hardAlpha"/>
<feOffset dx="4" dy="4"/>
<feGaussianBlur stdDeviation="4"/>
<feComposite in2="hardAlpha" operator="arithmetic" k2="-1" k3="1"/>
<feColorMatrix type="matrix" values="0 0 0 0 0 0 0 0 0 0 0 0 0 0 0 0 0 0 0.25 0"/>
<feBlend mode="normal" in2="shape" result="effect1_innerShadow_1857_6657"/>
<feColorMatrix in="SourceAlpha" type="matrix" values="0 0 0 0 0 0 0 0 0 0 0 0 0 0 0 0 0 0 127 0" result="hardAlpha"/>
<feOffset dx="-4" dy="-4"/>
<feGaussianBlur stdDeviation="4"/>
<feComposite in2="hardAlpha" operator="arithmetic" k2="-1" k3="1"/>
<feColorMatrix type="matrix" values="0 0 0 0 1 0 0 0 0 1 0 0 0 0 1 0 0 0 0.05 0"/>
<feBlend mode="normal" in2="effect1_innerShadow_1857_6657" result="effect2_innerShadow_1857_6657"/>
</filter>
<filter id="filter2_ii_1857_6657" x="345.185" y="319.965" width="111.448" height="21.793" filterUnits="userSpaceOnUse" color-interpolation-filters="sRGB">
<feFlood flood-opacity="0" result="BackgroundImageFix"/>
<feBlend mode="normal" in="SourceGraphic" in2="BackgroundImageFix" result="shape"/>
<feColorMatrix in="SourceAlpha" type="matrix" values="0 0 0 0 0 0 0 0 0 0 0 0 0 0 0 0 0 0 127 0" result="hardAlpha"/>
<feOffset dx="4" dy="4"/>
<feGaussianBlur stdDeviation="4"/>
<feComposite in2="hardAlpha" operator="arithmetic" k2="-1" k3="1"/>
<feColorMatrix type="matrix" values="0 0 0 0 0 0 0 0 0 0 0 0 0 0 0 0 0 0 0.25 0"/>
<feBlend mode="normal" in2="shape" result="effect1_innerShadow_1857_6657"/>
<feColorMatrix in="SourceAlpha" type="matrix" values="0 0 0 0 0 0 0 0 0 0 0 0 0 0 0 0 0 0 127 0" result="hardAlpha"/>
<feOffset dx="-4" dy="-4"/>
<feGaussianBlur stdDeviation="4"/>
<feComposite in2="hardAlpha" operator="arithmetic" k2="-1" k3="1"/>
<feColorMatrix type="matrix" values="0 0 0 0 1 0 0 0 0 1 0 0 0 0 1 0 0 0 0.05 0"/>
<feBlend mode="normal" in2="effect1_innerShadow_1857_6657" result="effect2_innerShadow_1857_6657"/>
</filter>
<filter id="filter3_ii_1857_6657" x="294" y="341" width="116" height="423.5" filterUnits="userSpaceOnUse" color-interpolation-filters="sRGB">
<feFlood flood-opacity="0" result="BackgroundImageFix"/>
<feBlend mode="normal" in="SourceGraphic" in2="BackgroundImageFix" result="shape"/>
<feColorMatrix in="SourceAlpha" type="matrix" values="0 0 0 0 0 0 0 0 0 0 0 0 0 0 0 0 0 0 127 0" result="hardAlpha"/>
<feOffset dx="4" dy="4"/>
<feGaussianBlur stdDeviation="4"/>
<feComposite in2="hardAlpha" operator="arithmetic" k2="-1" k3="1"/>
<feColorMatrix type="matrix" values="0 0 0 0 0 0 0 0 0 0 0 0 0 0 0 0 0 0 0.25 0"/>
<feBlend mode="normal" in2="shape" result="effect1_innerShadow_1857_6657"/>
<feColorMatrix in="SourceAlpha" type="matrix" values="0 0 0 0 0 0 0 0 0 0 0 0 0 0 0 0 0 0 127 0" result="hardAlpha"/>
<feOffset dx="-4" dy="-4"/>
<feGaussianBlur stdDeviation="4"/>
<feComposite in2="hardAlpha" operator="arithmetic" k2="-1" k3="1"/>
<feColorMatrix type="matrix" values="0 0 0 0 1 0 0 0 0 1 0 0 0 0 1 0 0 0 0.05 0"/>
<feBlend mode="normal" in2="effect1_innerShadow_1857_6657" result="effect2_innerShadow_1857_6657"/>
</filter>
<filter id="filter4_dd_1857_6657" x="1" y="7" width="660" height="776" filterUnits="userSpaceOnUse" color-interpolation-filters="sRGB">
<feFlood flood-opacity="0" result="BackgroundImageFix"/>
<feColorMatrix in="SourceAlpha" type="matrix" values="0 0 0 0 0 0 0 0 0 0 0 0 0 0 0 0 0 0 127 0" result="hardAlpha"/>
<feOffset dx="4" dy="4"/>
<feGaussianBlur stdDeviation="7"/>
<feComposite in2="hardAlpha" operator="out"/>
<feColorMatrix type="matrix" values="0 0 0 0 0 0 0 0 0 0 0 0 0 0 0 0 0 0 0.25 0"/>
<feBlend mode="normal" in2="BackgroundImageFix" result="effect1_dropShadow_1857_6657"/>
<feColorMatrix in="SourceAlpha" type="matrix" values="0 0 0 0 0 0 0 0 0 0 0 0 0 0 0 0 0 0 127 0" result="hardAlpha"/>
<feOffset dx="-4" dy="-4"/>
<feGaussianBlur stdDeviation="7"/>
<feComposite in2="hardAlpha" operator="out"/>
<feColorMatrix type="matrix" values="0 0 0 0 1 0 0 0 0 1 0 0 0 0 1 0 0 0 0.75 0"/>
<feBlend mode="normal" in2="effect1_dropShadow_1857_6657" result="effect2_dropShadow_1857_6657"/>
<feBlend mode="normal" in="SourceGraphic" in2="effect2_dropShadow_1857_6657" result="shape"/>
</filter>
<filter id="filter5_dii_1857_6657" x="0" y="0" width="48" height="48" filterUnits="userSpaceOnUse" color-interpolation-filters="sRGB">
<feFlood flood-opacity="0" result="BackgroundImageFix"/>
<feColorMatrix in="SourceAlpha" type="matrix" values="0 0 0 0 0 0 0 0 0 0 0 0 0 0 0 0 0 0 127 0" result="hardAlpha"/>
<feOffset/>
<feGaussianBlur stdDeviation="7"/>
<feComposite in2="hardAlpha" operator="out"/>
<feColorMatrix type="matrix" values="0 0 0 0 0.996078 0 0 0 0 0.313726 0 0 0 0 0 0 0 0 0.5 0"/>
<feBlend mode="normal" in2="BackgroundImageFix" result="effect1_dropShadow_1857_6657"/>
<feBlend mode="normal" in="SourceGraphic" in2="effect1_dropShadow_1857_6657" result="shape"/>
<feColorMatrix in="SourceAlpha" type="matrix" values="0 0 0 0 0 0 0 0 0 0 0 0 0 0 0 0 0 0 127 0" result="hardAlpha"/>
<feOffset dx="2" dy="2"/>
<feGaussianBlur stdDeviation="2"/>
<feComposite in2="hardAlpha" operator="arithmetic" k2="-1" k3="1"/>
<feColorMatrix type="matrix" values="0 0 0 0 0 0 0 0 0 0 0 0 0 0 0 0 0 0 0.25 0"/>
<feBlend mode="normal" in2="shape" result="effect2_innerShadow_1857_6657"/>
<feColorMatrix in="SourceAlpha" type="matrix" values="0 0 0 0 0 0 0 0 0 0 0 0 0 0 0 0 0 0 127 0" result="hardAlpha"/>
<feOffset dx="-2" dy="-2"/>
<feGaussianBlur stdDeviation="2"/>
<feComposite in2="hardAlpha" operator="arithmetic" k2="-1" k3="1"/>
<feColorMatrix type="matrix" values="0 0 0 0 1 0 0 0 0 1 0 0 0 0 1 0 0 0 0.5 0"/>
<feBlend mode="normal" in2="effect2_innerShadow_1857_6657" result="effect3_innerShadow_1857_6657"/>
</filter>
<filter id="filter6_dii_1857_6657" x="362" y="721" width="78" height="78" filterUnits="userSpaceOnUse" color-interpolation-filters="sRGB">
<feFlood flood-opacity="0" result="BackgroundImageFix"/>
<feColorMatrix in="SourceAlpha" type="matrix" values="0 0 0 0 0 0 0 0 0 0 0 0 0 0 0 0 0 0 127 0" result="hardAlpha"/>
<feOffset/>
<feGaussianBlur stdDeviation="10"/>
<feComposite in2="hardAlpha" operator="out"/>
<feColorMatrix type="matrix" values="0 0 0 0 0.996078 0 0 0 0 0.313726 0 0 0 0 0 0 0 0 0.5 0"/>
<feBlend mode="normal" in2="BackgroundImageFix" result="effect1_dropShadow_1857_6657"/>
<feBlend mode="normal" in="SourceGraphic" in2="effect1_dropShadow_1857_6657" result="shape"/>
<feColorMatrix in="SourceAlpha" type="matrix" values="0 0 0 0 0 0 0 0 0 0 0 0 0 0 0 0 0 0 127 0" result="hardAlpha"/>
<feOffset dx="2" dy="2"/>
<feGaussianBlur stdDeviation="2"/>
<feComposite in2="hardAlpha" operator="arithmetic" k2="-1" k3="1"/>
<feColorMatrix type="matrix" values="0 0 0 0 0 0 0 0 0 0 0 0 0 0 0 0 0 0 0.25 0"/>
<feBlend mode="normal" in2="shape" result="effect2_innerShadow_1857_6657"/>
<feColorMatrix in="SourceAlpha" type="matrix" values="0 0 0 0 0 0 0 0 0 0 0 0 0 0 0 0 0 0 127 0" result="hardAlpha"/>
<feOffset dx="-2" dy="-2"/>
<feGaussianBlur stdDeviation="2"/>
<feComposite in2="hardAlpha" operator="arithmetic" k2="-1" k3="1"/>
<feColorMatrix type="matrix" values="0 0 0 0 1 0 0 0 0 1 0 0 0 0 1 0 0 0 0.5 0"/>
<feBlend mode="normal" in2="effect2_innerShadow_1857_6657" result="effect3_innerShadow_1857_6657"/>
</filter>
</defs>
</svg>
