<svg width="1048" height="721" viewBox="0 0 1048 721" fill="none" xmlns="http://www.w3.org/2000/svg">
<rect width="1048" height="721" fill="#FE5000"/>
<path fill-rule="evenodd" clip-rule="evenodd" d="M316.314 449.812C315.471 449.867 314.626 449.745 313.834 449.452C313.042 449.158 312.321 448.702 311.717 448.111C310.577 446.741 310.001 444.988 310.106 443.209V421.825H321.472V415.892H310.106V407.28H302.867V415.892H296.17V421.789H302.903V443.498C302.791 445.17 303.024 446.846 303.588 448.424C304.151 450.002 305.033 451.447 306.179 452.67C308.73 454.919 312.067 456.07 315.463 455.872C317.082 455.873 318.692 455.635 320.242 455.167C321.687 454.758 323.026 454.042 324.169 453.068L321.925 447.93C320.324 449.171 318.339 449.812 316.314 449.74" fill="white"/>
<path fill-rule="evenodd" clip-rule="evenodd" d="M360.641 418.191C357.55 416.452 354.052 415.565 350.506 415.622C346.937 415.567 343.416 416.453 340.298 418.191C337.303 419.892 334.845 422.399 333.203 425.427C331.484 428.622 330.593 432.197 330.612 435.825C330.631 439.453 331.559 443.018 333.312 446.195C335.066 449.286 337.682 451.8 340.841 453.432C343.95 454.935 347.333 455.791 350.784 455.946C354.234 456.102 357.681 455.554 360.913 454.336C363.493 453.299 365.789 451.661 367.609 449.56L363.646 444.838C362.201 446.416 360.428 447.659 358.453 448.481C356.477 449.303 354.345 449.684 352.207 449.596C348.683 449.725 345.228 448.604 342.452 446.43C341.166 445.409 340.096 444.143 339.303 442.705C338.511 441.267 338.012 439.686 337.837 438.054H369.999C370.089 437.34 370.144 436.621 370.161 435.902C370.235 432.218 369.369 428.576 367.646 425.318C366.195 422.212 363.723 419.696 360.641 418.191M337.8 432.971C338.087 429.824 339.555 426.902 341.909 424.794C344.326 422.753 347.387 421.634 350.551 421.634C353.715 421.634 356.776 422.753 359.193 424.794C361.523 426.902 362.976 429.807 363.266 432.935L337.8 432.971Z" fill="white"/>
<path d="M390.348 400.603H383.166V455.852H390.348V400.603Z" fill="white"/>
<path fill-rule="evenodd" clip-rule="evenodd" d="M433.205 418.185C430.119 416.432 426.617 415.545 423.069 415.616C419.499 415.551 415.975 416.438 412.861 418.185C409.855 419.879 407.389 422.387 405.748 425.422C404.274 428.693 403.409 432.206 403.196 435.788C403.133 439.437 404.052 443.035 405.857 446.208C407.605 449.297 410.215 451.812 413.368 453.444C416.481 454.948 419.866 455.804 423.32 455.96C426.774 456.115 430.223 455.567 433.458 454.349C436.025 453.339 438.314 451.733 440.137 449.663L436.191 445.05C434.739 446.624 432.963 447.865 430.985 448.686C429.007 449.508 426.875 449.891 424.734 449.808C421.211 449.931 417.758 448.81 414.979 446.642C413.695 445.62 412.628 444.353 411.839 442.915C411.05 441.477 410.554 439.897 410.382 438.266H442.616C442.701 437.551 442.749 436.833 442.761 436.113C442.829 432.414 441.951 428.758 440.209 425.494C438.626 422.478 436.223 419.969 433.277 418.258M410.472 433.02C410.765 429.883 412.217 426.967 414.544 424.843C416.962 422.81 420.019 421.696 423.178 421.696C426.336 421.696 429.394 422.81 431.811 424.843C434.135 426.963 435.586 429.871 435.883 433.002L410.472 433.02Z" fill="white"/>
<path fill-rule="evenodd" clip-rule="evenodd" d="M465.936 423.558C468.071 422.365 470.477 421.742 472.923 421.749C475.051 421.723 477.155 422.207 479.058 423.16C480.948 424.147 482.546 425.613 483.691 427.411L489.121 423.92C487.623 421.214 485.347 419.021 482.587 417.624C479.599 416.156 476.306 415.419 472.977 415.471C469.198 415.394 465.461 416.278 462.117 418.04C459.014 419.716 456.438 422.221 454.679 425.277C452.917 428.458 451.992 432.034 451.992 435.67C451.992 439.306 452.917 442.882 454.679 446.063C456.451 449.109 459.024 451.611 462.117 453.299C465.458 455.073 469.195 455.969 472.977 455.905C476.312 455.956 479.609 455.199 482.587 453.697C485.338 452.296 487.612 450.112 489.121 447.42L483.691 443.983C482.556 445.789 480.956 447.258 479.058 448.234C477.158 449.196 475.052 449.68 472.923 449.645C470.486 449.686 468.081 449.101 465.936 447.945C463.881 446.819 462.196 445.123 461.086 443.06C459.926 440.801 459.322 438.299 459.322 435.76C459.322 433.222 459.926 430.72 461.086 428.461C462.197 426.403 463.882 424.712 465.936 423.594" fill="white"/>
<path fill-rule="evenodd" clip-rule="evenodd" d="M528.305 418.135C525.063 416.378 521.421 415.493 517.735 415.566C514.032 415.503 510.375 416.387 507.111 418.135C504.028 419.813 501.477 422.319 499.745 425.371C498.005 428.559 497.094 432.133 497.094 435.764C497.094 439.396 498.005 442.969 499.745 446.157C501.484 449.203 504.034 451.708 507.111 453.394C510.375 455.145 514.03 456.041 517.735 455.999C521.423 456.05 525.063 455.153 528.305 453.394C531.369 451.697 533.91 449.195 535.653 446.157C537.392 442.969 538.304 439.396 538.304 435.764C538.304 432.133 537.392 428.559 535.653 425.371C533.928 422.32 531.382 419.813 528.305 418.135M529.318 442.919C528.235 444.974 526.591 446.681 524.576 447.84C522.476 448.988 520.12 449.589 517.726 449.589C515.332 449.589 512.976 448.988 510.875 447.84C508.855 446.677 507.2 444.972 506.097 442.919C504.952 440.679 504.355 438.199 504.355 435.683C504.355 433.167 504.952 430.687 506.097 428.446C507.206 426.407 508.86 424.716 510.875 423.562C512.984 422.439 515.337 421.852 517.726 421.852C520.115 421.852 522.468 422.439 524.576 423.562C526.589 424.707 528.234 426.401 529.318 428.446C530.446 430.692 531.033 433.17 531.033 435.683C531.033 438.195 530.446 440.673 529.318 442.919" fill="white"/>
<path fill-rule="evenodd" clip-rule="evenodd" d="M600.738 416.021C597.614 415.974 594.52 416.636 591.689 417.957C589.15 419.162 586.991 421.039 585.445 423.384C584.203 421.047 582.268 419.151 579.906 417.957C577.355 416.695 574.535 416.074 571.689 416.148C568.939 416.093 566.209 416.636 563.689 417.74C561.406 418.75 559.441 420.364 558.006 422.407V416.491H551.201V455.875H558.441V435.523C558.211 431.989 559.366 428.505 561.662 425.808C562.792 424.671 564.146 423.783 565.639 423.2C567.132 422.618 568.731 422.354 570.332 422.425C571.734 422.337 573.138 422.552 574.45 423.054C575.761 423.557 576.95 424.336 577.933 425.338C579.878 427.776 580.828 430.858 580.594 433.967V455.857H587.834V435.523C587.596 431.988 588.752 428.501 591.055 425.808C592.183 424.669 593.537 423.78 595.031 423.197C596.524 422.614 598.123 422.351 599.725 422.425C601.127 422.337 602.531 422.552 603.843 423.054C605.154 423.557 606.342 424.336 607.326 425.338C609.272 427.774 610.217 430.86 609.969 433.967V455.857H617.208V433.153C617.208 427.497 615.748 423.227 612.828 420.345C611.224 418.856 609.337 417.706 607.278 416.964C605.219 416.221 603.032 415.9 600.847 416.021" fill="white"/>
<path fill-rule="evenodd" clip-rule="evenodd" d="M682.284 350.761L684.42 344.791L688.04 334.678L698.121 306.438L737.269 196.988H777.757L724.473 346.075L714.247 374.713L685.144 455.869H644.729L668.728 388.752H668.493C659.576 386.226 651.685 380.952 645.941 373.682L645.308 372.85C643.478 370.359 641.89 367.7 640.566 364.908L640.457 364.655C639.681 363.04 638.993 361.386 638.394 359.698L580.93 196.988H621.236L660.475 307.686L673.814 345.333C674.526 346.987 675.709 348.394 677.215 349.382C678.721 350.369 680.483 350.893 682.284 350.887" fill="white"/>
<path fill-rule="evenodd" clip-rule="evenodd" d="M560.569 234.979V196.988H509.276C494.08 196.96 479.495 202.963 468.726 213.68C457.957 224.396 451.886 238.948 451.848 254.137V388.752H489.982V254.137C490.006 249.039 492.053 244.158 495.674 240.566C499.294 236.974 504.193 234.965 509.294 234.979H560.569Z" fill="white"/>
<path fill-rule="evenodd" clip-rule="evenodd" d="M385.2 388.754C397.463 388.778 409.234 383.934 417.925 375.287C426.617 366.64 431.518 354.898 431.552 342.64V200.211L390.123 159H296.171V196.991H258V350.763H296.171V388.754H385.2ZM296.117 205.91C296.254 203.653 297.188 201.518 298.752 199.885C300.317 198.252 302.41 197.226 304.659 196.991H374.322L393.417 215.986V342.622C393.412 343.696 393.196 344.759 392.78 345.749C392.365 346.739 391.758 347.638 390.995 348.394C390.232 349.15 389.328 349.748 388.333 350.155C387.339 350.561 386.274 350.768 385.2 350.763H303.248C301.21 350.231 299.406 349.038 298.119 347.372C296.832 345.706 296.134 343.66 296.135 341.555L296.117 205.91Z" fill="white"/>
<path d="M139.064 551.384C136.504 551.384 134.136 550.968 131.96 550.136C129.816 549.272 127.944 548.072 126.344 546.536C124.776 544.968 123.544 543.144 122.648 541.064C121.752 538.984 121.304 536.696 121.304 534.2C121.304 531.704 121.752 529.416 122.648 527.336C123.544 525.256 124.792 523.448 126.392 521.912C127.992 520.344 129.864 519.144 132.008 518.312C134.184 517.448 136.552 517.016 139.112 517.016C141.704 517.016 144.088 517.464 146.264 518.36C148.472 519.224 150.344 520.52 151.88 522.248L148.76 525.272C147.48 523.928 146.04 522.936 144.44 522.296C142.84 521.624 141.128 521.288 139.304 521.288C137.416 521.288 135.656 521.608 134.024 522.248C132.424 522.888 131.032 523.784 129.848 524.936C128.664 526.088 127.736 527.464 127.064 529.064C126.424 530.632 126.104 532.344 126.104 534.2C126.104 536.056 126.424 537.784 127.064 539.384C127.736 540.952 128.664 542.312 129.848 543.464C131.032 544.616 132.424 545.512 134.024 546.152C135.656 546.792 137.416 547.112 139.304 547.112C141.128 547.112 142.84 546.792 144.44 546.152C146.04 545.48 147.48 544.456 148.76 543.08L151.88 546.104C150.344 547.832 148.472 549.144 146.264 550.04C144.088 550.936 141.688 551.384 139.064 551.384ZM167.873 551.288C165.313 551.288 163.041 550.728 161.057 549.608C159.073 548.488 157.505 546.952 156.353 545C155.201 543.016 154.625 540.776 154.625 538.28C154.625 535.752 155.201 533.512 156.353 531.56C157.505 529.608 159.073 528.088 161.057 527C163.041 525.88 165.313 525.32 167.873 525.32C170.401 525.32 172.657 525.88 174.641 527C176.657 528.088 178.225 529.608 179.345 531.56C180.497 533.48 181.073 535.72 181.073 538.28C181.073 540.808 180.497 543.048 179.345 545C178.225 546.952 176.657 548.488 174.641 549.608C172.657 550.728 170.401 551.288 167.873 551.288ZM167.873 547.256C169.505 547.256 170.961 546.888 172.241 546.152C173.553 545.416 174.577 544.376 175.313 543.032C176.049 541.656 176.417 540.072 176.417 538.28C176.417 536.456 176.049 534.888 175.313 533.576C174.577 532.232 173.553 531.192 172.241 530.456C170.961 529.72 169.505 529.352 167.873 529.352C166.241 529.352 164.785 529.72 163.505 530.456C162.225 531.192 161.201 532.232 160.433 533.576C159.665 534.888 159.281 536.456 159.281 538.28C159.281 540.072 159.665 541.656 160.433 543.032C161.201 544.376 162.225 545.416 163.505 546.152C164.785 546.888 166.241 547.256 167.873 547.256ZM201.03 525.32C203.11 525.32 204.934 525.72 206.502 526.52C208.102 527.32 209.35 528.536 210.246 530.168C211.142 531.8 211.59 533.864 211.59 536.36V551H206.982V536.888C206.982 534.424 206.374 532.568 205.158 531.32C203.974 530.072 202.294 529.448 200.118 529.448C198.486 529.448 197.062 529.768 195.846 530.408C194.63 531.048 193.686 531.992 193.014 533.24C192.374 534.488 192.054 536.04 192.054 537.896V551H187.446V525.56H191.862V532.424L191.142 530.6C191.974 528.936 193.254 527.64 194.982 526.712C196.71 525.784 198.726 525.32 201.03 525.32ZM231.446 551.288C228.726 551.288 226.326 550.728 224.246 549.608C222.198 548.488 220.598 546.952 219.446 545C218.326 543.048 217.766 540.808 217.766 538.28C217.766 535.752 218.31 533.512 219.398 531.56C220.518 529.608 222.038 528.088 223.958 527C225.91 525.88 228.102 525.32 230.534 525.32C232.998 525.32 235.174 525.864 237.062 526.952C238.95 528.04 240.422 529.576 241.478 531.56C242.566 533.512 243.11 535.8 243.11 538.424C243.11 538.616 243.094 538.84 243.062 539.096C243.062 539.352 243.046 539.592 243.014 539.816H221.366V536.504H240.614L238.742 537.656C238.774 536.024 238.438 534.568 237.734 533.288C237.03 532.008 236.054 531.016 234.806 530.312C233.59 529.576 232.166 529.208 230.534 529.208C228.934 529.208 227.51 529.576 226.262 530.312C225.014 531.016 224.038 532.024 223.334 533.336C222.63 534.616 222.278 536.088 222.278 537.752V538.52C222.278 540.216 222.662 541.736 223.43 543.08C224.23 544.392 225.334 545.416 226.742 546.152C228.15 546.888 229.766 547.256 231.59 547.256C233.094 547.256 234.454 547 235.67 546.488C236.918 545.976 238.006 545.208 238.934 544.184L241.478 547.16C240.326 548.504 238.886 549.528 237.158 550.232C235.462 550.936 233.558 551.288 231.446 551.288ZM260.597 551.288C258.005 551.288 255.685 550.728 253.637 549.608C251.621 548.488 250.037 546.952 248.885 545C247.733 543.048 247.157 540.808 247.157 538.28C247.157 535.752 247.733 533.512 248.885 531.56C250.037 529.608 251.621 528.088 253.637 527C255.685 525.88 258.005 525.32 260.597 525.32C262.901 525.32 264.949 525.784 266.741 526.712C268.565 527.608 269.973 528.952 270.965 530.744L267.461 533C266.629 531.752 265.605 530.84 264.389 530.264C263.205 529.656 261.925 529.352 260.549 529.352C258.885 529.352 257.397 529.72 256.085 530.456C254.773 531.192 253.733 532.232 252.965 533.576C252.197 534.888 251.813 536.456 251.813 538.28C251.813 540.104 252.197 541.688 252.965 543.032C253.733 544.376 254.773 545.416 256.085 546.152C257.397 546.888 258.885 547.256 260.549 547.256C261.925 547.256 263.205 546.968 264.389 546.392C265.605 545.784 266.629 544.856 267.461 543.608L270.965 545.816C269.973 547.576 268.565 548.936 266.741 549.896C264.949 550.824 262.901 551.288 260.597 551.288ZM285.995 551.288C283.435 551.288 281.451 550.6 280.043 549.224C278.635 547.848 277.931 545.88 277.931 543.32V519.992H282.539V543.128C282.539 544.504 282.875 545.56 283.547 546.296C284.251 547.032 285.243 547.4 286.523 547.4C287.963 547.4 289.163 547 290.123 546.2L291.563 549.512C290.859 550.12 290.011 550.568 289.019 550.856C288.059 551.144 287.051 551.288 285.995 551.288ZM273.611 529.352V525.56H289.835V529.352H273.611ZM312.926 551V545.624L312.686 544.616V535.448C312.686 533.496 312.11 531.992 310.958 530.936C309.838 529.848 308.142 529.304 305.87 529.304C304.366 529.304 302.894 529.56 301.454 530.072C300.014 530.552 298.798 531.208 297.806 532.04L295.886 528.584C297.198 527.528 298.766 526.728 300.59 526.184C302.446 525.608 304.382 525.32 306.398 525.32C309.886 525.32 312.574 526.168 314.462 527.864C316.35 529.56 317.294 532.152 317.294 535.64V551H312.926ZM304.574 551.288C302.686 551.288 301.022 550.968 299.582 550.328C298.174 549.688 297.086 548.808 296.318 547.688C295.55 546.536 295.166 545.24 295.166 543.8C295.166 542.424 295.486 541.176 296.126 540.056C296.798 538.936 297.87 538.04 299.342 537.368C300.846 536.696 302.862 536.36 305.39 536.36H313.454V539.672H305.582C303.278 539.672 301.726 540.056 300.926 540.824C300.126 541.592 299.726 542.52 299.726 543.608C299.726 544.856 300.222 545.864 301.214 546.632C302.206 547.368 303.582 547.736 305.342 547.736C307.07 547.736 308.574 547.352 309.854 546.584C311.166 545.816 312.11 544.696 312.686 543.224L313.598 546.392C312.99 547.896 311.918 549.096 310.382 549.992C308.846 550.856 306.91 551.288 304.574 551.288ZM339.405 525.32C341.485 525.32 343.309 525.72 344.877 526.52C346.477 527.32 347.725 528.536 348.621 530.168C349.517 531.8 349.965 533.864 349.965 536.36V551H345.357V536.888C345.357 534.424 344.749 532.568 343.533 531.32C342.349 530.072 340.669 529.448 338.493 529.448C336.861 529.448 335.437 529.768 334.221 530.408C333.005 531.048 332.061 531.992 331.389 533.24C330.749 534.488 330.429 536.04 330.429 537.896V551H325.821V525.56H330.237V532.424L329.517 530.6C330.349 528.936 331.629 527.64 333.357 526.712C335.085 525.784 337.101 525.32 339.405 525.32ZM369.005 551.288C366.541 551.288 364.333 550.744 362.381 549.656C360.461 548.568 358.941 547.048 357.821 545.096C356.701 543.144 356.141 540.872 356.141 538.28C356.141 535.688 356.701 533.432 357.821 531.512C358.941 529.56 360.461 528.04 362.381 526.952C364.333 525.864 366.541 525.32 369.005 525.32C371.149 525.32 373.085 525.8 374.813 526.76C376.541 527.72 377.917 529.16 378.941 531.08C379.997 533 380.525 535.4 380.525 538.28C380.525 541.16 380.013 543.56 378.989 545.48C377.997 547.4 376.637 548.856 374.909 549.848C373.181 550.808 371.213 551.288 369.005 551.288ZM369.389 547.256C370.989 547.256 372.429 546.888 373.709 546.152C375.021 545.416 376.045 544.376 376.781 543.032C377.549 541.656 377.933 540.072 377.933 538.28C377.933 536.456 377.549 534.888 376.781 533.576C376.045 532.232 375.021 531.192 373.709 530.456C372.429 529.72 370.989 529.352 369.389 529.352C367.757 529.352 366.301 529.72 365.021 530.456C363.741 531.192 362.717 532.232 361.949 533.576C361.181 534.888 360.797 536.456 360.797 538.28C360.797 540.072 361.181 541.656 361.949 543.032C362.717 544.376 363.741 545.416 365.021 546.152C366.301 546.888 367.757 547.256 369.389 547.256ZM378.077 551V544.136L378.365 538.232L377.885 532.328V515.384H382.493V551H378.077ZM402.108 551.288C399.548 551.288 397.276 550.728 395.292 549.608C393.308 548.488 391.74 546.952 390.588 545C389.436 543.016 388.86 540.776 388.86 538.28C388.86 535.752 389.436 533.512 390.588 531.56C391.74 529.608 393.308 528.088 395.292 527C397.276 525.88 399.548 525.32 402.108 525.32C404.636 525.32 406.892 525.88 408.876 527C410.892 528.088 412.46 529.608 413.58 531.56C414.732 533.48 415.308 535.72 415.308 538.28C415.308 540.808 414.732 543.048 413.58 545C412.46 546.952 410.892 548.488 408.876 549.608C406.892 550.728 404.636 551.288 402.108 551.288ZM402.108 547.256C403.74 547.256 405.196 546.888 406.476 546.152C407.788 545.416 408.812 544.376 409.548 543.032C410.284 541.656 410.652 540.072 410.652 538.28C410.652 536.456 410.284 534.888 409.548 533.576C408.812 532.232 407.788 531.192 406.476 530.456C405.196 529.72 403.74 529.352 402.108 529.352C400.476 529.352 399.02 529.72 397.74 530.456C396.46 531.192 395.436 532.232 394.668 533.576C393.9 534.888 393.516 536.456 393.516 538.28C393.516 540.072 393.9 541.656 394.668 543.032C395.436 544.376 396.46 545.416 397.74 546.152C399.02 546.888 400.476 547.256 402.108 547.256ZM441.243 551L430.107 525.56H434.907L444.795 548.6H442.491L452.571 525.56H457.083L445.947 551H441.243ZM471.577 551.288C469.017 551.288 466.745 550.728 464.761 549.608C462.777 548.488 461.209 546.952 460.057 545C458.905 543.016 458.329 540.776 458.329 538.28C458.329 535.752 458.905 533.512 460.057 531.56C461.209 529.608 462.777 528.088 464.761 527C466.745 525.88 469.017 525.32 471.577 525.32C474.105 525.32 476.361 525.88 478.345 527C480.361 528.088 481.929 529.608 483.049 531.56C484.201 533.48 484.777 535.72 484.777 538.28C484.777 540.808 484.201 543.048 483.049 545C481.929 546.952 480.361 548.488 478.345 549.608C476.361 550.728 474.105 551.288 471.577 551.288ZM471.577 547.256C473.209 547.256 474.665 546.888 475.945 546.152C477.257 545.416 478.281 544.376 479.017 543.032C479.753 541.656 480.121 540.072 480.121 538.28C480.121 536.456 479.753 534.888 479.017 533.576C478.281 532.232 477.257 531.192 475.945 530.456C474.665 529.72 473.209 529.352 471.577 529.352C469.945 529.352 468.489 529.72 467.209 530.456C465.929 531.192 464.905 532.232 464.137 533.576C463.369 534.888 462.985 536.456 462.985 538.28C462.985 540.072 463.369 541.656 464.137 543.032C464.905 544.376 465.929 545.416 467.209 546.152C468.489 546.888 469.945 547.256 471.577 547.256ZM502.237 551.288C499.645 551.288 497.325 550.728 495.277 549.608C493.261 548.488 491.677 546.952 490.525 545C489.373 543.048 488.797 540.808 488.797 538.28C488.797 535.752 489.373 533.512 490.525 531.56C491.677 529.608 493.261 528.088 495.277 527C497.325 525.88 499.645 525.32 502.237 525.32C504.541 525.32 506.589 525.784 508.381 526.712C510.205 527.608 511.613 528.952 512.605 530.744L509.101 533C508.269 531.752 507.245 530.84 506.029 530.264C504.845 529.656 503.565 529.352 502.189 529.352C500.525 529.352 499.037 529.72 497.725 530.456C496.413 531.192 495.373 532.232 494.605 533.576C493.837 534.888 493.453 536.456 493.453 538.28C493.453 540.104 493.837 541.688 494.605 543.032C495.373 544.376 496.413 545.416 497.725 546.152C499.037 546.888 500.525 547.256 502.189 547.256C503.565 547.256 504.845 546.968 506.029 546.392C507.245 545.784 508.269 544.856 509.101 543.608L512.605 545.816C511.613 547.576 510.205 548.936 508.381 549.896C506.589 550.824 504.541 551.288 502.237 551.288ZM529.524 551.288C526.804 551.288 524.404 550.728 522.324 549.608C520.276 548.488 518.676 546.952 517.524 545C516.404 543.048 515.844 540.808 515.844 538.28C515.844 535.752 516.388 533.512 517.476 531.56C518.596 529.608 520.116 528.088 522.036 527C523.988 525.88 526.18 525.32 528.612 525.32C531.076 525.32 533.252 525.864 535.14 526.952C537.028 528.04 538.5 529.576 539.556 531.56C540.644 533.512 541.188 535.8 541.188 538.424C541.188 538.616 541.172 538.84 541.14 539.096C541.14 539.352 541.124 539.592 541.092 539.816H519.444V536.504H538.692L536.82 537.656C536.852 536.024 536.516 534.568 535.812 533.288C535.108 532.008 534.132 531.016 532.884 530.312C531.668 529.576 530.244 529.208 528.612 529.208C527.012 529.208 525.588 529.576 524.34 530.312C523.092 531.016 522.116 532.024 521.412 533.336C520.708 534.616 520.356 536.088 520.356 537.752V538.52C520.356 540.216 520.74 541.736 521.508 543.08C522.308 544.392 523.412 545.416 524.82 546.152C526.228 546.888 527.844 547.256 529.668 547.256C531.172 547.256 532.532 547 533.748 546.488C534.996 545.976 536.084 545.208 537.012 544.184L539.556 547.16C538.404 548.504 536.964 549.528 535.236 550.232C533.54 550.936 531.636 551.288 529.524 551.288ZM519.972 521.864L526.356 515.624H530.772L537.156 521.864H532.98L526.644 516.584H530.484L524.148 521.864H519.972ZM576.269 551V545.624L576.029 544.616V535.448C576.029 533.496 575.453 531.992 574.301 530.936C573.181 529.848 571.485 529.304 569.213 529.304C567.709 529.304 566.237 529.56 564.797 530.072C563.357 530.552 562.141 531.208 561.149 532.04L559.229 528.584C560.541 527.528 562.109 526.728 563.933 526.184C565.789 525.608 567.725 525.32 569.741 525.32C573.229 525.32 575.917 526.168 577.805 527.864C579.693 529.56 580.637 532.152 580.637 535.64V551H576.269ZM567.917 551.288C566.029 551.288 564.365 550.968 562.925 550.328C561.517 549.688 560.429 548.808 559.661 547.688C558.893 546.536 558.509 545.24 558.509 543.8C558.509 542.424 558.829 541.176 559.469 540.056C560.141 538.936 561.213 538.04 562.685 537.368C564.189 536.696 566.205 536.36 568.733 536.36H576.797V539.672H568.925C566.621 539.672 565.069 540.056 564.269 540.824C563.469 541.592 563.069 542.52 563.069 543.608C563.069 544.856 563.565 545.864 564.557 546.632C565.549 547.368 566.925 547.736 568.685 547.736C570.413 547.736 571.917 547.352 573.197 546.584C574.509 545.816 575.453 544.696 576.029 543.224L576.941 546.392C576.333 547.896 575.261 549.096 573.725 549.992C572.189 550.856 570.253 551.288 567.917 551.288ZM596.461 551.288C594.349 551.288 592.333 551 590.413 550.424C588.525 549.848 587.037 549.144 585.949 548.312L587.869 544.664C588.957 545.4 590.301 546.024 591.901 546.536C593.501 547.048 595.133 547.304 596.797 547.304C598.941 547.304 600.477 547 601.405 546.392C602.365 545.784 602.845 544.936 602.845 543.848C602.845 543.048 602.557 542.424 601.981 541.976C601.405 541.528 600.637 541.192 599.677 540.968C598.749 540.744 597.709 540.552 596.557 540.392C595.405 540.2 594.253 539.976 593.101 539.72C591.949 539.432 590.893 539.048 589.933 538.568C588.973 538.056 588.205 537.368 587.629 536.504C587.053 535.608 586.765 534.424 586.765 532.952C586.765 531.416 587.197 530.072 588.061 528.92C588.925 527.768 590.141 526.888 591.709 526.28C593.309 525.64 595.197 525.32 597.373 525.32C599.037 525.32 600.717 525.528 602.413 525.944C604.141 526.328 605.549 526.888 606.637 527.624L604.669 531.272C603.517 530.504 602.317 529.976 601.069 529.688C599.821 529.4 598.573 529.256 597.325 529.256C595.309 529.256 593.805 529.592 592.813 530.264C591.821 530.904 591.325 531.736 591.325 532.76C591.325 533.624 591.613 534.296 592.189 534.776C592.797 535.224 593.565 535.576 594.493 535.832C595.453 536.088 596.509 536.312 597.661 536.504C598.813 536.664 599.965 536.888 601.117 537.176C602.269 537.432 603.309 537.8 604.237 538.28C605.197 538.76 605.965 539.432 606.541 540.296C607.149 541.16 607.453 542.312 607.453 543.752C607.453 545.288 607.005 546.616 606.109 547.736C605.213 548.856 603.949 549.736 602.317 550.376C600.685 550.984 598.733 551.288 596.461 551.288ZM633.398 551.288C631.286 551.288 629.27 551 627.35 550.424C625.462 549.848 623.974 549.144 622.886 548.312L624.806 544.664C625.894 545.4 627.238 546.024 628.838 546.536C630.438 547.048 632.07 547.304 633.734 547.304C635.878 547.304 637.414 547 638.342 546.392C639.302 545.784 639.782 544.936 639.782 543.848C639.782 543.048 639.494 542.424 638.918 541.976C638.342 541.528 637.574 541.192 636.614 540.968C635.686 540.744 634.646 540.552 633.494 540.392C632.342 540.2 631.19 539.976 630.038 539.72C628.886 539.432 627.83 539.048 626.87 538.568C625.91 538.056 625.142 537.368 624.566 536.504C623.99 535.608 623.702 534.424 623.702 532.952C623.702 531.416 624.134 530.072 624.998 528.92C625.862 527.768 627.078 526.888 628.646 526.28C630.246 525.64 632.134 525.32 634.31 525.32C635.974 525.32 637.654 525.528 639.35 525.944C641.078 526.328 642.486 526.888 643.574 527.624L641.606 531.272C640.454 530.504 639.254 529.976 638.006 529.688C636.758 529.4 635.51 529.256 634.262 529.256C632.246 529.256 630.742 529.592 629.75 530.264C628.758 530.904 628.262 531.736 628.262 532.76C628.262 533.624 628.55 534.296 629.126 534.776C629.734 535.224 630.502 535.576 631.43 535.832C632.39 536.088 633.446 536.312 634.598 536.504C635.75 536.664 636.902 536.888 638.054 537.176C639.206 537.432 640.246 537.8 641.174 538.28C642.134 538.76 642.902 539.432 643.478 540.296C644.086 541.16 644.39 542.312 644.39 543.752C644.39 545.288 643.942 546.616 643.046 547.736C642.15 548.856 640.886 549.736 639.254 550.376C637.622 550.984 635.67 551.288 633.398 551.288ZM660.853 551.288C658.677 551.288 656.757 550.888 655.093 550.088C653.461 549.288 652.181 548.072 651.253 546.44C650.357 544.776 649.909 542.696 649.909 540.2V525.56H654.517V539.672C654.517 542.168 655.109 544.04 656.293 545.288C657.509 546.536 659.205 547.16 661.381 547.16C662.981 547.16 664.373 546.84 665.557 546.2C666.741 545.528 667.653 544.568 668.293 543.32C668.933 542.04 669.253 540.504 669.253 538.712V525.56H673.861V551H669.493V544.136L670.213 545.96C669.381 547.656 668.133 548.968 666.469 549.896C664.805 550.824 662.933 551.288 660.853 551.288ZM698.426 551V545.624L698.186 544.616V535.448C698.186 533.496 697.61 531.992 696.458 530.936C695.338 529.848 693.642 529.304 691.37 529.304C689.866 529.304 688.394 529.56 686.954 530.072C685.514 530.552 684.298 531.208 683.306 532.04L681.386 528.584C682.698 527.528 684.266 526.728 686.09 526.184C687.946 525.608 689.882 525.32 691.898 525.32C695.386 525.32 698.074 526.168 699.962 527.864C701.85 529.56 702.794 532.152 702.794 535.64V551H698.426ZM690.074 551.288C688.186 551.288 686.522 550.968 685.082 550.328C683.674 549.688 682.586 548.808 681.818 547.688C681.05 546.536 680.666 545.24 680.666 543.8C680.666 542.424 680.986 541.176 681.626 540.056C682.298 538.936 683.37 538.04 684.842 537.368C686.346 536.696 688.362 536.36 690.89 536.36H698.954V539.672H691.082C688.778 539.672 687.226 540.056 686.426 540.824C685.626 541.592 685.226 542.52 685.226 543.608C685.226 544.856 685.722 545.864 686.714 546.632C687.706 547.368 689.082 547.736 690.842 547.736C692.57 547.736 694.074 547.352 695.354 546.584C696.666 545.816 697.61 544.696 698.186 543.224L699.098 546.392C698.49 547.896 697.418 549.096 695.882 549.992C694.346 550.856 692.41 551.288 690.074 551.288ZM718.617 551.288C716.505 551.288 714.489 551 712.569 550.424C710.681 549.848 709.193 549.144 708.105 548.312L710.025 544.664C711.113 545.4 712.457 546.024 714.057 546.536C715.657 547.048 717.289 547.304 718.953 547.304C721.097 547.304 722.633 547 723.561 546.392C724.521 545.784 725.001 544.936 725.001 543.848C725.001 543.048 724.713 542.424 724.137 541.976C723.561 541.528 722.793 541.192 721.833 540.968C720.905 540.744 719.865 540.552 718.713 540.392C717.561 540.2 716.409 539.976 715.257 539.72C714.105 539.432 713.049 539.048 712.089 538.568C711.129 538.056 710.361 537.368 709.785 536.504C709.209 535.608 708.921 534.424 708.921 532.952C708.921 531.416 709.353 530.072 710.217 528.92C711.081 527.768 712.297 526.888 713.865 526.28C715.465 525.64 717.353 525.32 719.529 525.32C721.193 525.32 722.873 525.528 724.569 525.944C726.297 526.328 727.705 526.888 728.793 527.624L726.825 531.272C725.673 530.504 724.473 529.976 723.225 529.688C721.977 529.4 720.729 529.256 719.481 529.256C717.465 529.256 715.961 529.592 714.969 530.264C713.977 530.904 713.481 531.736 713.481 532.76C713.481 533.624 713.769 534.296 714.345 534.776C714.953 535.224 715.721 535.576 716.649 535.832C717.609 536.088 718.665 536.312 719.817 536.504C720.969 536.664 722.121 536.888 723.273 537.176C724.425 537.432 725.465 537.8 726.393 538.28C727.353 538.76 728.121 539.432 728.697 540.296C729.305 541.16 729.609 542.312 729.609 543.752C729.609 545.288 729.161 546.616 728.265 547.736C727.369 548.856 726.105 549.736 724.473 550.376C722.841 550.984 720.889 551.288 718.617 551.288ZM761.747 551.288C759.635 551.288 757.699 550.808 755.939 549.848C754.211 548.856 752.819 547.4 751.763 545.48C750.739 543.56 750.227 541.16 750.227 538.28C750.227 535.4 750.723 533 751.715 531.08C752.739 529.16 754.115 527.72 755.843 526.76C757.603 525.8 759.571 525.32 761.747 525.32C764.243 525.32 766.451 525.864 768.371 526.952C770.291 528.04 771.811 529.56 772.931 531.512C774.051 533.432 774.611 535.688 774.611 538.28C774.611 540.872 774.051 543.144 772.931 545.096C771.811 547.048 770.291 548.568 768.371 549.656C766.451 550.744 764.243 551.288 761.747 551.288ZM748.259 560.312V525.56H752.675V532.424L752.387 538.328L752.867 544.232V560.312H748.259ZM761.363 547.256C762.995 547.256 764.451 546.888 765.731 546.152C767.043 545.416 768.067 544.376 768.803 543.032C769.571 541.656 769.955 540.072 769.955 538.28C769.955 536.456 769.571 534.888 768.803 533.576C768.067 532.232 767.043 531.192 765.731 530.456C764.451 529.72 762.995 529.352 761.363 529.352C759.763 529.352 758.307 529.72 756.995 530.456C755.715 531.192 754.691 532.232 753.923 533.576C753.187 534.888 752.819 536.456 752.819 538.28C752.819 540.072 753.187 541.656 753.923 543.032C754.691 544.376 755.715 545.416 756.995 546.152C758.307 546.888 759.763 547.256 761.363 547.256ZM796.535 551V545.624L796.295 544.616V535.448C796.295 533.496 795.719 531.992 794.567 530.936C793.447 529.848 791.751 529.304 789.479 529.304C787.975 529.304 786.503 529.56 785.063 530.072C783.623 530.552 782.407 531.208 781.415 532.04L779.495 528.584C780.807 527.528 782.375 526.728 784.199 526.184C786.055 525.608 787.991 525.32 790.007 525.32C793.495 525.32 796.183 526.168 798.071 527.864C799.959 529.56 800.903 532.152 800.903 535.64V551H796.535ZM788.183 551.288C786.295 551.288 784.631 550.968 783.191 550.328C781.783 549.688 780.695 548.808 779.927 547.688C779.159 546.536 778.775 545.24 778.775 543.8C778.775 542.424 779.095 541.176 779.735 540.056C780.407 538.936 781.479 538.04 782.951 537.368C784.455 536.696 786.471 536.36 788.999 536.36H797.063V539.672H789.191C786.887 539.672 785.335 540.056 784.535 540.824C783.735 541.592 783.335 542.52 783.335 543.608C783.335 544.856 783.831 545.864 784.823 546.632C785.815 547.368 787.191 547.736 788.951 547.736C790.679 547.736 792.183 547.352 793.463 546.584C794.775 545.816 795.719 544.696 796.295 543.224L797.207 546.392C796.599 547.896 795.527 549.096 793.991 549.992C792.455 550.856 790.519 551.288 788.183 551.288ZM809.431 551V525.56H814.039V551H809.431ZM811.735 520.664C810.839 520.664 810.087 520.376 809.479 519.8C808.903 519.224 808.615 518.52 808.615 517.688C808.615 516.824 808.903 516.104 809.479 515.528C810.087 514.952 810.839 514.664 811.735 514.664C812.631 514.664 813.367 514.952 813.943 515.528C814.551 516.072 814.855 516.76 814.855 517.592C814.855 518.456 814.567 519.192 813.991 519.8C813.415 520.376 812.663 520.664 811.735 520.664ZM819.141 551L830.085 536.792L830.037 539.144L819.621 525.56H824.757L832.725 536.024H830.757L838.725 525.56H843.765L833.205 539.24L833.253 536.792L844.293 551H839.061L830.661 539.864L832.533 540.152L824.277 551H819.141ZM859.373 551.288C856.813 551.288 854.541 550.728 852.557 549.608C850.573 548.488 849.005 546.952 847.853 545C846.701 543.016 846.125 540.776 846.125 538.28C846.125 535.752 846.701 533.512 847.853 531.56C849.005 529.608 850.573 528.088 852.557 527C854.541 525.88 856.813 525.32 859.373 525.32C861.901 525.32 864.157 525.88 866.141 527C868.157 528.088 869.725 529.608 870.845 531.56C871.997 533.48 872.573 535.72 872.573 538.28C872.573 540.808 871.997 543.048 870.845 545C869.725 546.952 868.157 548.488 866.141 549.608C864.157 550.728 861.901 551.288 859.373 551.288ZM859.373 547.256C861.005 547.256 862.461 546.888 863.741 546.152C865.053 545.416 866.077 544.376 866.813 543.032C867.549 541.656 867.917 540.072 867.917 538.28C867.917 536.456 867.549 534.888 866.813 533.576C866.077 532.232 865.053 531.192 863.741 530.456C862.461 529.72 861.005 529.352 859.373 529.352C857.741 529.352 856.285 529.72 855.005 530.456C853.725 531.192 852.701 532.232 851.933 533.576C851.165 534.888 850.781 536.456 850.781 538.28C850.781 540.072 851.165 541.656 851.933 543.032C852.701 544.376 853.725 545.416 855.005 546.152C856.285 546.888 857.741 547.256 859.373 547.256ZM862.685 521.72C861.917 521.72 861.229 521.56 860.621 521.24C860.045 520.92 859.517 520.552 859.037 520.136C858.557 519.688 858.093 519.304 857.645 518.984C857.197 518.664 856.749 518.504 856.301 518.504C855.597 518.504 855.021 518.776 854.573 519.32C854.157 519.832 853.917 520.552 853.853 521.48H851.261C851.325 519.688 851.773 518.264 852.605 517.208C853.437 516.152 854.557 515.624 855.965 515.624C856.733 515.624 857.421 515.8 858.029 516.152C858.637 516.472 859.181 516.856 859.661 517.304C860.141 517.72 860.589 518.088 861.005 518.408C861.453 518.728 861.901 518.888 862.349 518.888C863.053 518.888 863.629 518.632 864.077 518.12C864.525 517.608 864.765 516.904 864.797 516.008H867.389C867.357 517.704 866.909 519.08 866.045 520.136C865.213 521.192 864.093 521.72 862.685 521.72ZM890.274 551.288C887.554 551.288 885.154 550.728 883.074 549.608C881.026 548.488 879.426 546.952 878.274 545C877.154 543.048 876.594 540.808 876.594 538.28C876.594 535.752 877.138 533.512 878.226 531.56C879.346 529.608 880.866 528.088 882.786 527C884.738 525.88 886.93 525.32 889.362 525.32C891.826 525.32 894.002 525.864 895.89 526.952C897.778 528.04 899.25 529.576 900.306 531.56C901.394 533.512 901.938 535.8 901.938 538.424C901.938 538.616 901.922 538.84 901.89 539.096C901.89 539.352 901.874 539.592 901.842 539.816H880.194V536.504H899.442L897.57 537.656C897.602 536.024 897.266 534.568 896.562 533.288C895.858 532.008 894.882 531.016 893.634 530.312C892.418 529.576 890.994 529.208 889.362 529.208C887.762 529.208 886.338 529.576 885.09 530.312C883.842 531.016 882.866 532.024 882.162 533.336C881.458 534.616 881.106 536.088 881.106 537.752V538.52C881.106 540.216 881.49 541.736 882.258 543.08C883.058 544.392 884.162 545.416 885.57 546.152C886.978 546.888 888.594 547.256 890.418 547.256C891.922 547.256 893.282 547 894.498 546.488C895.746 545.976 896.834 545.208 897.762 544.184L900.306 547.16C899.154 548.504 897.714 549.528 895.986 550.232C894.29 550.936 892.386 551.288 890.274 551.288ZM915.633 551.288C913.521 551.288 911.505 551 909.585 550.424C907.697 549.848 906.209 549.144 905.121 548.312L907.041 544.664C908.129 545.4 909.473 546.024 911.073 546.536C912.673 547.048 914.305 547.304 915.969 547.304C918.113 547.304 919.649 547 920.577 546.392C921.537 545.784 922.017 544.936 922.017 543.848C922.017 543.048 921.729 542.424 921.153 541.976C920.577 541.528 919.809 541.192 918.849 540.968C917.921 540.744 916.881 540.552 915.729 540.392C914.577 540.2 913.425 539.976 912.273 539.72C911.121 539.432 910.065 539.048 909.105 538.568C908.145 538.056 907.377 537.368 906.801 536.504C906.225 535.608 905.937 534.424 905.937 532.952C905.937 531.416 906.369 530.072 907.233 528.92C908.097 527.768 909.313 526.888 910.881 526.28C912.481 525.64 914.369 525.32 916.545 525.32C918.209 525.32 919.889 525.528 921.585 525.944C923.313 526.328 924.721 526.888 925.809 527.624L923.841 531.272C922.689 530.504 921.489 529.976 920.241 529.688C918.993 529.4 917.745 529.256 916.497 529.256C914.481 529.256 912.977 529.592 911.985 530.264C910.993 530.904 910.497 531.736 910.497 532.76C910.497 533.624 910.785 534.296 911.361 534.776C911.969 535.224 912.737 535.576 913.665 535.832C914.625 536.088 915.681 536.312 916.833 536.504C917.985 536.664 919.137 536.888 920.289 537.176C921.441 537.432 922.481 537.8 923.409 538.28C924.369 538.76 925.137 539.432 925.713 540.296C926.321 541.16 926.625 542.312 926.625 543.752C926.625 545.288 926.177 546.616 925.281 547.736C924.385 548.856 923.121 549.736 921.489 550.376C919.857 550.984 917.905 551.288 915.633 551.288Z" fill="white"/>
</svg>
