<svg width="14" height="7" viewBox="0 0 14 7" fill="none" xmlns="http://www.w3.org/2000/svg">
<path fill-rule="evenodd" clip-rule="evenodd" d="M13.2076 0.133057C13.4363 -0.0934904 13.7608 -0.0165643 13.9148 0.256569C14.0523 0.500407 14.0249 0.849008 13.8213 1.05069L13.6075 0.757057L13.8213 1.0507C13.1439 1.72179 12.4615 2.26657 11.7805 2.70063L13.1289 4.49509C13.2986 4.72094 13.2986 5.06852 13.1289 5.29437C12.9366 5.55023 12.6044 5.55023 12.4122 5.29437L10.8564 3.22385C9.69711 3.79958 8.55691 4.06938 7.47082 4.11874L7.47339 6.40766C7.4737 6.68462 7.29658 6.99939 6.98856 7C6.68038 7.00061 6.50245 6.6863 6.50214 6.40928L6.49955 4.10528C5.27653 4.01639 4.14513 3.66413 3.15804 3.18917L1.57618 5.29437C1.38392 5.55023 1.05173 5.55023 0.859478 5.29437L1.08343 5.06536L0.859477 5.29437C0.689778 5.06853 0.689777 4.72094 0.859478 4.49509L2.22336 2.68C1.38744 2.16928 0.687743 1.58623 0.168137 1.04134C-0.0320947 0.83137 -0.0490697 0.481199 0.0936889 0.243714C0.245839 -0.00939415 0.568716 -0.100435 0.802168 0.144408C2.51736 1.94329 6.50656 4.28052 10.7495 1.99304C10.7862 1.96416 10.8266 1.94188 10.8693 1.92725C11.6402 1.49629 12.4237 0.909603 13.2076 0.133058L13.4233 0.429469L13.4242 0.430706M13.2076 0.133057L13.4233 0.429469Z" fill="black"/>
</svg>
