<svg width="14" height="7" viewBox="0 0 14 7" fill="none" xmlns="http://www.w3.org/2000/svg">
<path fill-rule="evenodd" clip-rule="evenodd" d="M13.9237 3.77161C13.7857 4.01301 13.4883 4.08694 13.2791 3.87641C10.7291 1.30986 8.11461 0.784898 5.88002 1.15525C3.63136 1.52794 1.75573 2.8106 0.724705 3.87255C0.518331 4.08511 0.219922 4.01707 0.0790332 3.77625C-0.0449405 3.56435 -0.0248217 3.26021 0.151843 3.07825C1.28272 1.91345 3.31378 0.523841 5.75887 0.117083C8.21807 -0.292023 11.0844 0.296429 13.8444 3.07439C14.0234 3.25459 14.0454 3.55876 13.9237 3.77161ZM6.98533 6.99992C8.0818 6.99992 8.97066 6.11802 8.97066 5.03015C8.97066 3.94227 8.0818 3.06038 6.98533 3.06038C5.88886 3.06038 5 3.94227 5 5.03015C5 6.11802 5.88886 6.99992 6.98533 6.99992Z" fill="black"/>
</svg>
