<svg width="1600" height="440" viewBox="0 0 1600 440" fill="none" xmlns="http://www.w3.org/2000/svg">
<rect width="1600" height="440" fill="#181818"/>
<rect width="1600" height="440" fill="#EBEBEB"/>
<path d="M487.62 217.1H534.66V235.3H487.62V217.1ZM489.3 271H466.62V173H540.68V191.2H489.3V271ZM599.574 272.68C585.667 272.68 574.794 268.807 566.954 261.06C559.114 253.313 555.194 242.253 555.194 227.88V173H577.874V227.04C577.874 236.373 579.787 243.093 583.614 247.2C587.441 251.307 592.807 253.36 599.714 253.36C606.621 253.36 611.987 251.307 615.814 247.2C619.641 243.093 621.554 236.373 621.554 227.04V173H643.954V227.88C643.954 242.253 640.034 253.313 632.194 261.06C624.354 268.807 613.481 272.68 599.574 272.68ZM685.025 271V191.48H653.665V173H739.065V191.48H707.705V271H685.025ZM772.128 212.48H819.308V230.12H772.128V212.48ZM773.808 252.8H827.148V271H751.268V173H825.328V191.2H773.808V252.8ZM845.194 271V173H893.074C905.394 173 914.634 175.333 920.794 180C927.048 184.667 930.174 190.827 930.174 198.48C930.174 203.613 928.914 208.093 926.394 211.92C923.874 215.653 920.421 218.547 916.034 220.6C911.648 222.653 906.608 223.68 900.914 223.68L903.574 217.94C909.734 217.94 915.194 218.967 919.954 221.02C924.714 222.98 928.401 225.92 931.014 229.84C933.721 233.76 935.074 238.567 935.074 244.26C935.074 252.66 931.761 259.24 925.134 264C918.508 268.667 908.754 271 895.874 271H845.194ZM867.734 253.92H894.194C900.074 253.92 904.508 252.987 907.494 251.12C910.574 249.16 912.114 246.08 912.114 241.88C912.114 237.773 910.574 234.74 907.494 232.78C904.508 230.727 900.074 229.7 894.194 229.7H866.054V213.18H890.274C895.781 213.18 899.981 212.247 902.874 210.38C905.861 208.42 907.354 205.48 907.354 201.56C907.354 197.733 905.861 194.887 902.874 193.02C899.981 191.06 895.781 190.08 890.274 190.08H867.734V253.92ZM999.845 272.68C992.098 272.68 984.912 271.42 978.285 268.9C971.752 266.38 966.058 262.833 961.205 258.26C956.445 253.687 952.712 248.32 950.005 242.16C947.392 236 946.085 229.28 946.085 222C946.085 214.72 947.392 208 950.005 201.84C952.712 195.68 956.492 190.313 961.345 185.74C966.198 181.167 971.892 177.62 978.425 175.1C984.958 172.58 992.052 171.32 999.705 171.32C1007.45 171.32 1014.54 172.58 1020.99 175.1C1027.52 177.62 1033.17 181.167 1037.93 185.74C1042.78 190.313 1046.56 195.68 1049.27 201.84C1051.97 207.907 1053.33 214.627 1053.33 222C1053.33 229.28 1051.97 236.047 1049.27 242.3C1046.56 248.46 1042.78 253.827 1037.93 258.4C1033.17 262.88 1027.52 266.38 1020.99 268.9C1014.54 271.42 1007.5 272.68 999.845 272.68ZM999.705 253.36C1004.09 253.36 1008.11 252.613 1011.75 251.12C1015.48 249.627 1018.75 247.48 1021.55 244.68C1024.35 241.88 1026.49 238.567 1027.99 234.74C1029.57 230.913 1030.37 226.667 1030.37 222C1030.37 217.333 1029.57 213.087 1027.99 209.26C1026.49 205.433 1024.35 202.12 1021.55 199.32C1018.84 196.52 1015.62 194.373 1011.89 192.88C1008.15 191.387 1004.09 190.64 999.705 190.64C995.318 190.64 991.258 191.387 987.525 192.88C983.885 194.373 980.665 196.52 977.865 199.32C975.065 202.12 972.872 205.433 971.285 209.26C969.792 213.087 969.045 217.333 969.045 222C969.045 226.573 969.792 230.82 971.285 234.74C972.872 238.567 975.018 241.88 977.725 244.68C980.525 247.48 983.792 249.627 987.525 251.12C991.258 252.613 995.318 253.36 999.705 253.36ZM1070.37 271V173H1093.05V252.52H1142.19V271H1070.37Z" fill="#181818"/>
</svg>
