<?xml version="1.0" encoding="utf-8"?>
<!-- Generator: Adobe Illustrator 19.0.1, SVG Export Plug-In . SVG Version: 6.00 Build 0)  -->
<svg version="1.1" id="Logotipo" xmlns="http://www.w3.org/2000/svg" xmlns:xlink="http://www.w3.org/1999/xlink" x="0px" y="0px"
	 viewBox="0 0 344.9 110" style="enable-background:new 0 0 344.9 110;" xml:space="preserve">
<style type="text/css">
	.st0{fill:#00B0A8;}
	.st1{fill:#848384;}
	.st2{fill:#01676E;}
</style>
<g>
	<g>
		<path class="st0" d="M147.1,24.4c1.8,0,2.4,0.6,2.4,2.4v8c0,4.1-1.5,7.4-4.5,9.9c-3.1,2.6-7.3,3.9-12.7,3.9
			c-10.9,0-17.2-5.9-17.2-15.6V21.2c0-9.8,6.3-15.6,17.2-15.6c8.5,0,13.9,3.3,16.3,9.8c0.6,1.5,0.1,2.5-1.5,3l-4.5,1.6
			c-1.7,0.5-2.4,0.2-3-1.5c-1.1-2.8-3.5-4.2-7.3-4.2c-5.1,0-7.7,2.3-7.7,6.9V33c0,4.6,2.6,6.9,7.7,6.9c4.8,0,7.8-2.1,7.8-5.1v-2.1
			h-7c-1.8,0-2.4-0.6-2.4-2.4v-3.6c0-1.8,0.6-2.4,2.4-2.4H147.1z"/>
		<path class="st0" d="M166.6,16.6c8.7,0,13,4.1,13,12.3v14.8c0,2-0.5,2.7-2.2,3.4c-2.3,1-6,1.6-11,1.6c-5.1,0-8.5-0.8-10.4-2.3
			c-1.9-1.6-2.9-4-2.9-7.3c0-7.2,3.8-9.5,13.5-9.5c1.5,0,2.9,0.1,4.1,0.1v-1.3c0-2.8-1.5-4.3-4.5-4.3c-2.2,0-3.7,0.7-4.8,2.1
			c-1,1.3-1.3,1.6-3,0.9l-3.2-1.3c-1.5-0.6-1.9-1.6-1.2-3.1C156.3,18.6,160.4,16.6,166.6,16.6z M170.8,36.3c-0.3,0-1.1,0-2.3-0.1
			c-1.2-0.1-2-0.1-2.6-0.1c-3.1,0-4,1-4,2.8c0,1.9,0.9,2.8,3.9,2.8c2,0,3.6-0.1,4.6-0.2c0.3-0.1,0.4-0.2,0.4-0.4V36.3z"/>
		<path class="st0" d="M206.3,39.9c1.6,0,2.2,0.6,2.2,2.2v3.5c0,1.6-0.5,2.2-2.2,2.2h-20.5c-1.6,0-2.1-0.5-2.1-2.2v-3.4
			c0-0.9,0.2-1.6,0.7-2.2l12.4-14.7h-10.7c-1.6,0-2.1-0.6-2.1-2.2v-3.5c0-1.6,0.5-2.2,2.1-2.2H206c1.6,0,2.1,0.5,2.1,2.2v3.4
			c0,0.8-0.3,1.6-0.9,2.3l-12.6,14.5H206.3z"/>
		<path class="st0" d="M212.1,29.5c0-8.4,4.9-12.9,14-12.9c9.2,0,14,5.1,14,12.3v3.5c0,1.9-1,2.9-3,2.9h-16.2v1.5
			c0,3.1,1.7,4.6,5.2,4.6c2.5,0,4.4-0.8,5.5-2.3c1-1.4,1.7-1.6,3.4-0.8l2.8,1.5c1.5,0.8,1.8,1.9,0.9,3.4c-2.3,3.6-6.5,5.4-12.8,5.4
			c-9.5,0-13.9-5.1-13.9-12.9V29.5z M231.2,28.1c0-3-1.7-4.5-5.2-4.5c-3.4,0-5.2,1.5-5.2,4.5V29h10.3V28.1z"/>
		<path class="st0" d="M254.1,10.5c1.6,0,2.1,0.5,2.1,2.2v4.8h5.4c1.6,0,2.1,0.5,2.1,2.2v3.5c0,1.6-0.5,2.2-2.1,2.2h-5.4V35
			c0,4.4,1.3,5.4,5.3,5.4c1.6,0,2.1,0.5,2.1,2.2v3.7c0,1.7-0.5,2.2-2.1,2.2c-5.1,0.2-8.7-0.8-10.9-2.7c-2.2-1.9-3.3-5.4-3.3-10.5
			V25.3h-3.1c-1.6,0-2.2-0.5-2.2-2.2v-3.5c0-1.6,0.5-2.2,2.2-2.2h3.1v-4.8c0-1.6,0.6-2.2,2.2-2.2H254.1z"/>
		<path class="st0" d="M280,16.6c8.7,0,13,4.1,13,12.3v14.8c0,2-0.5,2.7-2.2,3.4c-2.3,1-6,1.6-11,1.6c-5.1,0-8.5-0.8-10.4-2.3
			c-1.9-1.6-2.9-4-2.9-7.3c0-7.2,3.8-9.5,13.5-9.5c1.5,0,2.9,0.1,4.1,0.1v-1.3c0-2.8-1.5-4.3-4.5-4.3c-2.2,0-3.7,0.7-4.8,2.1
			c-1,1.3-1.3,1.6-3,0.9l-3.2-1.3c-1.5-0.6-1.9-1.6-1.2-3.1C269.7,18.6,273.9,16.6,280,16.6z M284.2,36.3c-0.3,0-1.1,0-2.3-0.1
			c-1.2-0.1-2-0.1-2.6-0.1c-3.1,0-4,1-4,2.8c0,1.9,0.9,2.8,3.9,2.8c2,0,3.6-0.1,4.6-0.2c0.3-0.1,0.4-0.2,0.4-0.4V36.3z"/>
		<path class="st1" d="M142.4,56c0.8,0,1.1,0.4,1.1,1.2v1.6c0,0.8-0.3,1.2-1.1,1.2h-20.5v14.4h17.9c0.8,0,1.1,0.4,1.1,1.2v1.6
			c0,0.8-0.3,1.2-1.1,1.2h-17.9v15h21.3c0.8,0,1.1,0.4,1.1,1.2v1.6c0,0.8-0.3,1.2-1.1,1.2h-24.3c-0.9,0-1.2-0.3-1.2-1.2v-39
			c0-0.9,0.3-1.2,1.2-1.2H142.4z"/>
		<path class="st1" d="M160.7,66.5c6,0,10,2.1,11.9,6.3c0.4,0.7,0.2,1.2-0.5,1.5l-1.5,0.6c-0.6,0.3-1.1,0.1-1.5-0.5
			c-1.3-3-3.5-4.4-8.4-4.4c-5.1,0-7.6,1.7-7.6,5.1c0.2,2.8,1.1,4,3.5,4.7c1.7,0.5,2.7,0.6,5.2,0.8c3.5,0.3,5.7,0.8,8,2
			c2.3,1.2,3.4,3.4,3.4,6.6c0,5.6-4.1,8.9-11.9,8.9c-6.5,0-10.7-2.4-12.6-7.2c-0.3-0.7-0.1-1.2,0.6-1.4l1.5-0.5
			c0.6-0.2,1.1,0,1.4,0.6c1.3,3.4,4.2,5.1,8.9,5.1c5.5,0,8.2-1.7,8.2-5.3c0-3.8-2.6-4.7-8.4-5.3c-3-0.3-4.2-0.5-6.6-1.2
			c-1.2-0.4-2.2-0.9-2.8-1.5c-1.3-1.2-2.4-3.3-2.4-6.1C149.3,69.8,153.3,66.5,160.7,66.5z"/>
		<path class="st1" d="M191.2,66.5c8.1,0,12.1,3.9,12.1,11.6v8.4c0,7.7-4,11.6-11.9,11.6c-2.5,0-5.4-0.6-8.7-2V109c0,0.7-0.3,1-1,1
			h-1.9c-0.7,0-1-0.3-1-1V71.4c0-1.9,0.5-2.5,2.3-3.3C183.9,67.1,187.2,66.5,191.2,66.5z M199.4,78.2c0-5.4-2.9-8.1-8.7-8.1
			c-2.6,0-4.9,0.3-7,1.1c-1,0.4-1.1,0.6-1.1,1.6v19.7c2.8,1.3,5.6,2,8.4,2c5.5,0,8.3-2.7,8.3-8.1V78.2z"/>
		<path class="st1" d="M208.3,77.2c0-6.7,4.8-10.7,12.7-10.7c8,0,12.8,4,12.8,10.7v10.2c0,6.7-4.9,10.6-12.8,10.6
			c-7.9,0-12.7-4.1-12.7-10.6V77.2z M229.9,77.2c0-4.4-3.4-7.2-8.9-7.2c-5.4,0-8.8,2.7-8.8,7.2v10.2c0,4.4,3.5,7.1,8.8,7.1
			c5.5,0,8.9-2.7,8.9-7.1V77.2z"/>
		<path class="st1" d="M254,66.5c0.7,0,1,0.3,1,1V69c0,0.7-0.3,1-1,1H252c-2.9,0-5.5,0.4-7.7,1.2c-0.6,0.3-1,0.8-1,1.5v23.4
			c0,0.7-0.3,1-1,1h-1.9c-0.7,0-1-0.3-1-1V71.5c0-1.8,0.5-2.5,2.2-3.3c3-1.1,6.5-1.7,10.5-1.8H254z"/>
		<path class="st1" d="M267.1,60.4c0.9,0,1,0.3,1,1v5.9h8.4c0.7,0,1,0.4,1,1v1.5c0,0.7-0.3,1-1,1h-8.4v15.1c0,3.4,0.6,5.6,1.7,6.6
			c1.1,1.1,3.3,1.6,6.6,1.6c0.7,0,1,0.3,1,1.1V97c0,0.8-0.3,1-1,1c-4.5,0.1-7.7-0.7-9.5-2.4c-1.8-1.7-2.7-4.8-2.7-9.4V71h-5.5
			c-0.7,0-1-0.3-1-1v-1.5c0-0.7,0.3-1,1-1h5.5v-5.9c0-0.7,0.3-1,1-1H267.1z"/>
		<path class="st1" d="M284.3,56.7c1.6,0,2.2,0.5,2.2,2.1v0.4c0,1.6-0.5,2.2-2.2,2.2h-0.3c-1.6,0-2.2-0.5-2.2-2.2v-0.4
			c0-1.6,0.5-2.1,2.2-2.1H284.3z M285,67.3c0.7,0,1,0.4,1,1v27.8c0,0.7-0.4,1-1,1h-1.9c-0.7,0-1-0.3-1-1V68.4c0-0.7,0.4-1,1-1H285z"
			/>
		<path class="st1" d="M317.6,67.3c1,0,1.2,0.2,0.8,1.2l-11.6,27.9c-0.3,0.6-0.8,1-1.5,1h-1.1c-0.8,0-1.2-0.3-1.5-1l-11.6-27.8
			c-0.4-1-0.2-1.2,0.9-1.2h1.3c1.2,0,1.5,0.2,1.8,1l8,19.2c0.3,0.8,0.6,1.7,1,3c0.3,1.2,0.6,1.9,0.6,2.1h0.2
			c0.1-0.2,0.3-0.9,0.6-2.1c0.3-1.2,0.6-2.2,0.9-2.9l7.9-19.2c0.3-0.9,0.6-1,1.9-1H317.6z"/>
		<path class="st1" d="M333.3,66.5c8.6,0,11.6,4.5,11.6,11.5v15.2c0,2-0.5,2.6-2.1,3.3c-2.3,1-5.5,1.5-9.7,1.5
			c-4.8,0-8.1-0.7-9.9-2.2c-1.8-1.5-2.7-3.7-2.7-6.8c0-6.6,3.5-9,12.8-9c1.6,0,4.1,0.2,7.6,0.6v-2.7c0-5.1-2-8-7.9-8
			c-3.8,0-6.6,1.4-8.1,4.2c-0.4,0.6-0.9,0.8-1.5,0.5l-1.4-0.6c-0.8-0.3-0.9-0.8-0.6-1.5C323.8,68.5,327.7,66.5,333.3,66.5z
			 M341,83.8c-3.5-0.3-6.2-0.5-8-0.5c-6.1,0-8.4,1.7-8.4,5.7c0,4,1.8,5.8,8.3,5.8c3,0,5.3-0.3,7-0.9c0.9-0.4,1.1-0.6,1.1-1.7V83.8z"
			/>
	</g>
	<g>
		<path class="st2" d="M76.7,43.9c-1.9,0-3.4,1.5-3.4,3.4c0,0.9,0.1,12.8-0.3,19.5c-0.5,8.7-6.1,15.6-14.8,16.8
			c-6.3,0.9-14.7,0.7-21.2,0.1c-8.9-0.8-15.4-7.4-15.8-16.1c-0.3-1.2-0.8-15.2-0.2-29.4c0.3-5.8,2.9-10.5,6.7-13.4
			c4.3-3.3,8.5-4,19.3-4c11.3,0,20.9,1.6,24.3,6c0,0,0,0,0,0c0.5,0.6,1.2,1,2,1.1c0.8,0.1,1.6-0.2,2.2-0.7l11.6-10.4
			c1.1-1,1.3-2.7,0.4-3.8c-5.1-6.6-12.1-10.8-20-11.8C54-0.4,41.3-0.4,27.1,1.2C12.9,2.8,0.4,15.1,0.4,31.2C0.4,32.7,0,42.6,0,52.6
			c0,10.6,0.4,21.2,0.4,21.7c0.2,14.5,10.9,27.9,27.3,29.8c14.5,1.6,29.1,1.3,39.9-0.1c13.5-1.8,25.8-12.7,26.2-30
			c0.2-8.6,0.5-17.9,0.4-26.6c0-1.8-1.5-3.3-3.4-3.3C85.4,43.9,76.7,43.9,76.7,43.9z"/>
		<path class="st0" d="M61.9,52.5c0-5.8-0.2-7.7-0.3-10.3c-0.1-4.1-2.7-8.9-9.5-9.5c-3.3-0.3-6.7-0.3-9.9,0
			c-5.4,0.5-9.2,3.8-9.5,9.6c-0.2,3.4-0.3,6.8-0.3,10.3c0,3.1,0.2,9.5,0.3,10.5c0.5,4.4,3.2,8.7,9.5,9.3c3.5,0.3,6.9,0.3,9.9,0
			c6.5-0.6,8.9-5.1,9.5-9.5C61.6,62.1,61.9,54.2,61.9,52.5z"/>
		<path class="st2" d="M42.6,63.1c-0.1-1-0.3-7.4-0.3-10.5c0-3.5,0.1-6.9,0.3-10.3c0.3-5.7,4.1-9,9.5-9.5c-3.3-0.3-6.7-0.3-9.9,0
			c-5.4,0.5-9.2,3.8-9.5,9.6c-0.2,3.4-0.3,6.8-0.3,10.3c0,3.1,0.2,9.5,0.3,10.5c0.5,4.4,3.2,8.7,9.5,9.3c3.4,0.3,6.9,0.3,9.9,0
			C45.7,71.7,43,67.4,42.6,63.1z"/>
	</g>
</g>
</svg>
