<svg width="67" height="65" viewBox="0 0 67 65" fill="none" xmlns="http://www.w3.org/2000/svg">
<path d="M18.1498 22.7425C17.061 22.7425 16.0584 22.5605 15.1422 22.1965C14.2392 21.8185 13.4491 21.2934 12.7719 20.6213C12.0947 19.9353 11.5701 19.1302 11.1983 18.2061C10.8265 17.282 10.6406 16.2739 10.6406 15.1818C10.6406 14.0897 10.8265 13.0816 11.1983 12.1575C11.5701 11.2334 12.0947 10.4354 12.7719 9.7633C13.4624 9.07723 14.2658 8.55218 15.182 8.18815C16.0983 7.81011 17.1008 7.62109 18.1897 7.62109C19.3715 7.62109 20.4338 7.82411 21.3766 8.23015C22.3327 8.63619 23.1361 9.23125 23.7867 10.0153L22.1534 11.6955C21.609 11.1214 21.0181 10.7014 20.3807 10.4354C19.7566 10.1553 19.0661 10.0153 18.3092 10.0153C17.5788 10.0153 16.9016 10.1413 16.2775 10.3934C15.6534 10.6454 15.1156 11.0024 14.6641 11.4645C14.2126 11.9265 13.8608 12.4726 13.6085 13.1026C13.3694 13.7327 13.2499 14.4257 13.2499 15.1818C13.2499 15.9239 13.3694 16.61 13.6085 17.24C13.8608 17.8701 14.2126 18.4231 14.6641 18.8992C15.1156 19.3612 15.6468 19.7183 16.2576 19.9703C16.8684 20.2223 17.5457 20.3483 18.2893 20.3483C18.9798 20.3483 19.6437 20.2363 20.2811 20.0123C20.9318 19.7743 21.5492 19.3822 22.1335 18.8362L23.6075 20.8734C22.8771 21.4894 22.0273 21.9585 21.0579 22.2805C20.1018 22.5885 19.1325 22.7425 18.1498 22.7425ZM21.1575 20.5163V15.0138H23.6075V20.8734L21.1575 20.5163Z" fill="#FE5000"/>
<path d="M27.0227 22.5325V7.83111H33.5559C35.229 7.83111 36.5038 8.18115 37.3802 8.88121C38.2566 9.56728 38.6948 10.4914 38.6948 11.6535C38.6948 12.4376 38.5222 13.1096 38.177 13.6697C37.8317 14.2157 37.3669 14.6428 36.7827 14.9508C36.2117 15.2448 35.5876 15.3918 34.9103 15.3918L35.2689 14.6358C36.0523 14.6358 36.7561 14.7898 37.3802 15.0978C38.0043 15.3918 38.4956 15.8259 38.8542 16.3999C39.226 16.974 39.4119 17.6881 39.4119 18.5421C39.4119 19.8023 38.9538 20.7824 38.0375 21.4824C37.1213 22.1825 35.7602 22.5325 33.9543 22.5325H27.0227ZM29.6121 20.3903H33.7949C34.7643 20.3903 35.5079 20.2223 36.0258 19.8863C36.5437 19.5502 36.8026 19.0112 36.8026 18.2691C36.8026 17.541 36.5437 17.009 36.0258 16.673C35.5079 16.3229 34.7643 16.1479 33.7949 16.1479H29.4129V14.0267H33.277C34.18 14.0267 34.8705 13.8587 35.3486 13.5227C35.8399 13.1866 36.0855 12.6826 36.0855 12.0105C36.0855 11.3245 35.8399 10.8134 35.3486 10.4774C34.8705 10.1413 34.18 9.97332 33.277 9.97332H29.6121V20.3903Z" fill="#FE5000"/>
<path fill-rule="evenodd" clip-rule="evenodd" d="M17.0407 51.0133H12.6147V57.6641H17.0407V51.0133ZM9.44141 47.6777V60.9997H20.214V47.6777H9.44141Z" fill="#FE5000"/>
<path fill-rule="evenodd" clip-rule="evenodd" d="M30.3474 42.3551H25.9213V57.6651H30.3474V42.3551ZM22.748 39.0195V61.0007H33.5207V39.0195H22.748Z" fill="#FE5000"/>
<path fill-rule="evenodd" clip-rule="evenodd" d="M43.7343 37.6403H38.2944V57.654H43.7343V37.6403ZM35.1211 34.3047V60.9896H46.9076V34.3047H35.1211Z" fill="#FE5000"/>
<path fill-rule="evenodd" clip-rule="evenodd" d="M57.334 27.1579H51.894V57.6549H57.334V27.1579ZM48.7207 23.8223V60.9905H60.5073V23.8223H48.7207Z" fill="#FE5000"/>
<path fill-rule="evenodd" clip-rule="evenodd" d="M49.6268 5H63V17.1512H59.8267V10.4542L40.7232 28.8258H15.0867L5.58785 42.8953L3 40.9648L13.4476 25.4902H39.4906L57.3286 8.33561H49.6268V5Z" fill="#FE5000"/>
</svg>
