<svg width="41" height="40" viewBox="0 0 41 40" fill="none" xmlns="http://www.w3.org/2000/svg">
<path fill-rule="evenodd" clip-rule="evenodd" d="M3.5 2.9C5.3 1.1 7.9 0 10.5 0H30.5C33.2 0 35.7 1.1 37.6 2.9C39.5 4.7 40.5 7.3 40.5 10V30C40.5 32.7 39.4 35.2 37.6 37.1C35.7 39 33.2 40 30.5 40H10.5C7.8 40 5.3 38.9 3.4 37.1C1.5 35.2 0.5 32.7 0.5 30V10C0.5 7.3 1.6 4.8 3.5 2.9ZM10.5 4C8.9 4 7.4 4.6 6.3 5.8C5.2 6.9 4.5 8.4 4.5 10V30C4.5 31.6 5.1 33.1 6.3 34.2C7.4 35.3 8.9 36 10.5 36H30.5C32.1 36 33.6 35.4 34.7 34.2C35.8 33.1 36.5 31.5 36.5 30V10C36.5 8.4 35.9 6.9 34.7 5.8C33.6 4.6 32.1 4 30.5 4H10.5Z" fill="#FE5000"/>
<path d="M20.5 28C22.6 28 24.7 27.2 26.2 25.7C27.7 24.2 28.5 22.2 28.5 20C28.5 17.8 27.7 15.8 26.2 14.3C24.7 12.8 22.7 12 20.5 12C18.4 12 16.3 12.8 14.8 14.3C13.3 15.8 12.5 17.8 12.5 20C12.5 22.2 13.3 24.2 14.8 25.7C16.4 27.2 18.4 28 20.5 28Z" stroke="#FE5000" stroke-width="4" stroke-linejoin="round"/>
<path d="M31.5 11C32 11 32.5 10.8 32.9 10.4C33.3 10 33.5 9.5 33.5 9C33.5 8.5 33.3 8 32.9 7.6C32.6 7.2 32 7 31.5 7C31 7 30.5 7.2 30.1 7.6C29.7 8 29.5 8.5 29.5 9C29.5 9.5 29.7 10 30.1 10.4C30.5 10.8 31 11 31.5 11Z" fill="#FE5000"/>
</svg>
