<svg width="41" height="40" viewBox="0 0 41 40" fill="none" xmlns="http://www.w3.org/2000/svg">
<path d="M30.5 22.3V29.7H26.2V22.8C26.2 21.1 25.6 19.9 24 19.9C22.8 19.9 22.1 20.7 21.8 21.5C21.7 21.8 21.7 22.2 21.7 22.5V29.7H17.4C17.4 29.7 17.5 18 17.4 16.8H21.7V18.6C22.3 17.7 23.3 16.5 25.6 16.5C28.4 16.5 30.5 18.3 30.5 22.3ZM12.9 10.5C11.4 10.5 10.5 11.5 10.5 12.7C10.5 13.9 11.4 14.9 12.9 14.9C14.4 14.9 15.3 13.9 15.3 12.7C15.3 11.5 14.4 10.5 12.9 10.5ZM10.7 29.7H15V16.8H10.7V29.7Z" fill="#FE5000"/>
<path d="M8.5 4C7.4 4 6.4 4.4 5.7 5.2C4.9 5.9 4.5 6.9 4.5 8V32C4.5 33.1 4.9 34.1 5.7 34.8C6.4 35.6 7.4 36 8.5 36H32.5C33.6 36 34.6 35.6 35.3 34.8C36 34 36.5 33 36.5 32V8C36.5 6.9 36.1 5.9 35.3 5.2C34.5 4.4 33.5 4 32.5 4H8.5ZM8.5 0H32.5C34.6 0 36.7 0.8 38.2 2.3C39.7 3.8 40.5 5.8 40.5 8V32C40.5 34.1 39.7 36.2 38.2 37.7C36.7 39.2 34.7 40 32.5 40H8.5C6.4 40 4.3 39.2 2.8 37.7C1.3 36.2 0.5 34.2 0.5 32V8C0.5 5.9 1.3 3.8 2.8 2.3C4.3 0.8 6.4 0 8.5 0Z" fill="#FE5000"/>
</svg>
