<svg width="80" height="36" viewBox="0 0 80 36" fill="none" xmlns="http://www.w3.org/2000/svg">
<path fill-rule="evenodd" clip-rule="evenodd" d="M35.8678 10.8308L28.1264 4.05824L28.1222 4.05468C26.6511 2.79587 25.0314 1.80574 23.2645 1.0858C21.4872 0.361639 19.6213 0 17.6704 0C12.7335 0 8.54174 1.74186 5.12585 5.22146C1.70996 8.70105 0 12.971 0 18C0 23.029 1.70996 27.2989 5.12585 30.7785C8.54174 34.2581 12.7335 36 17.6704 36C19.6187 36 21.4963 35.6533 23.3001 34.9598C25.1035 34.2678 26.7167 33.2581 28.1369 31.9323L28.1383 31.931L54.7576 7.43928L54.7586 7.43836C55.8003 6.48916 56.978 5.76376 58.2947 5.2608C59.6148 4.75653 60.9589 4.50547 62.3296 4.50547C65.9764 4.50547 69.086 5.82231 71.6852 8.46992C74.2843 11.1175 75.577 14.2851 75.577 18C75.577 21.7149 74.2843 24.8825 71.6852 27.5301C69.086 30.1777 65.9764 31.4945 62.3296 31.4945C60.9589 31.4945 59.6148 31.2435 58.2947 30.7392C56.9776 30.2361 55.7996 29.5103 54.7576 28.5607L47.5531 22.1391L44.2358 25.1803L51.8714 31.9399L51.8778 31.9453C53.3489 33.2041 54.9686 34.1943 56.7355 34.9142C58.5128 35.6384 60.3787 36 62.3296 36C67.2665 36 71.4583 34.2581 74.8741 30.7785C78.29 27.2989 80 23.029 80 18C80 12.971 78.29 8.70105 74.8741 5.22146C71.4583 1.74186 67.2665 0 62.3296 0C60.3815 0 58.5049 0.345554 56.7033 1.03674C54.8978 1.73095 53.2835 2.74179 51.8633 4.06758L51.8617 4.06904L25.2424 28.5607L25.2416 28.5614C24.1999 29.5107 23.0221 30.2362 21.7053 30.7392C20.3852 31.2435 19.0411 31.4945 17.6704 31.4945C14.0236 31.4945 10.914 30.1777 8.31483 27.5301C5.71571 24.8825 4.42297 21.7149 4.42297 18C4.42297 14.2851 5.71571 11.1175 8.31483 8.46992C10.914 5.82231 14.0236 4.50547 17.6704 4.50547C19.0411 4.50547 20.3852 4.75653 21.7053 5.2608C23.0224 5.76392 24.2004 6.48969 25.2423 7.43935L32.4378 13.7612L35.8678 10.8308Z" fill="#FE5000"/>
</svg>
