<svg width="1600" height="440" viewBox="0 0 1600 440" fill="none" xmlns="http://www.w3.org/2000/svg">
<rect width="1600" height="440" fill="#181818"/>
<rect width="1600" height="440" fill="#EBEBEB"/>
<path d="M466.62 173H489.3V252.52H538.44V271H466.62V173ZM616.473 250H570.973L562.293 271H539.052L582.733 173H605.133L648.953 271H625.153L616.473 250ZM609.333 232.78L593.793 195.26L578.253 232.78H609.333ZM721.56 271L702.66 243.7H701.54H681.8V271H659.12V173H701.54C710.22 173 717.733 174.447 724.08 177.34C730.52 180.233 735.467 184.34 738.92 189.66C742.373 194.98 744.1 201.28 744.1 208.56C744.1 215.84 742.327 222.14 738.78 227.46C735.327 232.687 730.38 236.7 723.94 239.5L745.92 271H721.56ZM721.14 208.56C721.14 203.053 719.367 198.853 715.82 195.96C712.273 192.973 707.093 191.48 700.28 191.48H681.8V225.64H700.28C707.093 225.64 712.273 224.147 715.82 221.16C719.367 218.173 721.14 213.973 721.14 208.56ZM762.069 173H784.749V271H762.069V173ZM854.907 272.68C844.92 272.68 835.867 270.533 827.747 266.24C819.72 261.853 813.373 255.833 808.707 248.18C804.133 240.433 801.847 231.707 801.847 222C801.847 212.293 804.133 203.613 808.707 195.96C813.373 188.213 819.72 182.193 827.747 177.9C835.867 173.513 844.967 171.32 855.047 171.32C863.54 171.32 871.193 172.813 878.007 175.8C884.913 178.787 890.7 183.08 895.367 188.68L880.807 202.12C874.18 194.467 865.967 190.64 856.167 190.64C850.1 190.64 844.687 191.993 839.927 194.7C835.167 197.313 831.433 201 828.727 205.76C826.113 210.52 824.807 215.933 824.807 222C824.807 228.067 826.113 233.48 828.727 238.24C831.433 243 835.167 246.733 839.927 249.44C844.687 252.053 850.1 253.36 856.167 253.36C865.967 253.36 874.18 249.487 880.807 241.74L895.367 255.18C890.7 260.873 884.913 265.213 878.007 268.2C871.1 271.187 863.4 272.68 854.907 272.68ZM986.562 252.8V271H910.683V173H984.743V191.2H933.223V212.48H978.723V230.12H933.223V252.8H986.562ZM1004.61 173H1027.29V252.52H1076.43V271H1004.61V173Z" fill="#181818"/>
</svg>
