<svg width="70" height="40" viewBox="0 0 70 40" fill="none" xmlns="http://www.w3.org/2000/svg">
<path fill-rule="evenodd" clip-rule="evenodd" d="M7.8539 39.1666C7.74039 39.1741 7.62658 39.1576 7.5199 39.1181C7.41321 39.0786 7.31605 39.0171 7.23475 38.9376C7.08118 38.753 7.00362 38.517 7.01781 38.2773V35.3974H8.54861V34.5982H7.01781V33.4385H6.04277V34.5982H5.14087V35.3925H6.04765V38.3163C6.03262 38.5414 6.06403 38.7673 6.13992 38.9798C6.21582 39.1922 6.33458 39.3869 6.48885 39.5516C6.83251 39.8545 7.28193 40.0095 7.73933 39.9829C7.95734 39.9829 8.17417 39.9509 8.38285 39.8878C8.57745 39.8327 8.75787 39.7363 8.91181 39.6052L8.60955 38.9133C8.39397 39.0804 8.12655 39.1666 7.8539 39.1569" fill="#FE5000"/>
<path fill-rule="evenodd" clip-rule="evenodd" d="M13.8235 34.9078C13.4072 34.6737 12.9361 34.5543 12.4585 34.5619C11.9777 34.5545 11.5036 34.6738 11.0837 34.9078C10.6802 35.137 10.3492 35.4747 10.1281 35.8824C9.89654 36.3128 9.77654 36.7942 9.77909 37.2828C9.78165 37.7715 9.90668 38.2516 10.1428 38.6795C10.3791 39.0958 10.7314 39.4344 11.1568 39.6541C11.5756 39.8566 12.0312 39.9718 12.4959 39.9928C12.9606 40.0137 13.4248 39.9399 13.8601 39.7759C14.2076 39.6362 14.5167 39.4157 14.762 39.1327L14.2281 38.4968C14.0335 38.7093 13.7948 38.8767 13.5287 38.9874C13.2626 39.0981 12.9756 39.1493 12.6876 39.1376C12.213 39.155 11.7476 39.0039 11.3737 38.7112C11.2005 38.5737 11.0564 38.4031 10.9497 38.2095C10.843 38.0158 10.7758 37.8029 10.7521 37.5831H15.0837C15.096 37.4869 15.1033 37.3901 15.1057 37.2932C15.1156 36.797 14.999 36.3065 14.7668 35.8678C14.5714 35.4495 14.2385 35.1107 13.8235 34.9078ZM10.7473 36.8984C10.7858 36.4746 10.9835 36.0812 11.3006 35.7972C11.6261 35.5223 12.0385 35.3716 12.4645 35.3716C12.8906 35.3716 13.303 35.5223 13.6285 35.7972C13.9423 36.0811 14.138 36.4723 14.1769 36.8936L10.7473 36.8984Z" fill="#FE5000"/>
<path d="M17.8254 32.5391H16.8582V39.9801H17.8254V32.5391Z" fill="#FE5000"/>
<path fill-rule="evenodd" clip-rule="evenodd" d="M23.5956 34.9071C23.1801 34.671 22.7085 34.5515 22.2306 34.5611C21.7497 34.5523 21.2752 34.6718 20.8558 34.9071C20.4509 35.1351 20.1188 35.473 19.8978 35.8817C19.6993 36.3223 19.5828 36.7954 19.5541 37.2778C19.5456 37.7692 19.6694 38.2539 19.9124 38.6812C20.1479 39.0973 20.4994 39.4359 20.924 39.6558C21.3432 39.8583 21.7992 39.9736 22.2644 39.9945C22.7295 40.0155 23.194 39.9417 23.6298 39.7776C23.9754 39.6416 24.2838 39.4253 24.5292 39.1465L23.9978 38.5252C23.8023 38.7373 23.5631 38.9043 23.2967 39.015C23.0303 39.1256 22.7431 39.1771 22.4548 39.166C21.9804 39.1826 21.5152 39.0316 21.141 38.7396C20.9681 38.602 20.8244 38.4314 20.7181 38.2377C20.6118 38.0441 20.5451 37.8312 20.5218 37.6116H24.8632C24.8746 37.5153 24.8811 37.4185 24.8827 37.3216C24.8919 36.8234 24.7736 36.3311 24.539 35.8914C24.3258 35.4852 24.0022 35.1473 23.6054 34.9168M20.534 36.905C20.5734 36.4825 20.769 36.0898 21.0825 35.8037C21.408 35.53 21.8198 35.3799 22.2452 35.3799C22.6706 35.3799 23.0824 35.53 23.4079 35.8037C23.7209 36.0892 23.9164 36.4809 23.9564 36.9025L20.534 36.905Z" fill="#FE5000"/>
<path fill-rule="evenodd" clip-rule="evenodd" d="M28.0052 35.6308C28.2927 35.47 28.6167 35.3861 28.9461 35.3871C29.2328 35.3836 29.5161 35.4488 29.7724 35.5772C30.027 35.7101 30.2422 35.9076 30.3965 36.1497L31.1277 35.6795C30.926 35.3151 30.6194 35.0197 30.2478 34.8316C29.8454 34.6339 29.4017 34.5345 28.9534 34.5416C28.4444 34.5312 27.9412 34.6503 27.4909 34.8876C27.0729 35.1133 26.726 35.4507 26.489 35.8622C26.2517 36.2906 26.1272 36.7723 26.1272 37.262C26.1272 37.7517 26.2517 38.2333 26.489 38.6617C26.7277 39.0719 27.0742 39.4089 27.4909 39.6363C27.9408 39.8752 28.444 39.9959 28.9534 39.9872C29.4026 39.9941 29.8467 39.8921 30.2478 39.6899C30.6182 39.5012 30.9244 39.207 31.1277 38.8445L30.3965 38.3815C30.2435 38.6248 30.028 38.8226 29.7724 38.9541C29.5165 39.0836 29.2329 39.1489 28.9461 39.1442C28.618 39.1497 28.294 39.0709 28.0052 38.9151C27.7284 38.7635 27.5015 38.5351 27.3519 38.2573C27.1958 37.9531 27.1143 37.6161 27.1143 37.2742C27.1143 36.9323 27.1958 36.5953 27.3519 36.291C27.5015 36.0139 27.7285 35.7862 28.0052 35.6356" fill="#FE5000"/>
<path fill-rule="evenodd" clip-rule="evenodd" d="M36.4052 34.9002C35.9686 34.6637 35.4781 34.5445 34.9816 34.5543C34.483 34.5458 33.9904 34.6649 33.5508 34.9002C33.1356 35.1263 32.792 35.4639 32.5587 35.8748C32.3244 36.3042 32.2017 36.7855 32.2017 37.2746C32.2017 37.7637 32.3244 38.245 32.5587 38.6744C32.7929 39.0846 33.1363 39.422 33.5508 39.6489C33.9904 39.8848 34.4827 40.0055 34.9816 39.9998C35.4784 40.0067 35.9686 39.8859 36.4052 39.6489C36.8179 39.4205 37.1601 39.0834 37.3948 38.6744C37.6291 38.245 37.7518 37.7637 37.7518 37.2746C37.7518 36.7855 37.6291 36.3042 37.3948 35.8748C37.1625 35.464 36.8196 35.1263 36.4052 34.9002ZM36.5417 38.2382C36.3958 38.5151 36.1743 38.7449 35.903 38.9009C35.6201 39.0556 35.3028 39.1366 34.9804 39.1366C34.658 39.1366 34.3407 39.0556 34.0578 38.9009C33.7857 38.7443 33.5628 38.5148 33.4143 38.2382C33.26 37.9365 33.1796 37.6025 33.1796 37.2636C33.1796 36.9248 33.26 36.5908 33.4143 36.289C33.5636 36.0144 33.7864 35.7866 34.0578 35.6312C34.3418 35.48 34.6586 35.4009 34.9804 35.4009C35.3022 35.4009 35.619 35.48 35.903 35.6312C36.1741 35.7854 36.3956 36.0136 36.5417 36.289C36.6935 36.5915 36.7725 36.9252 36.7725 37.2636C36.7725 37.602 36.6935 37.9358 36.5417 38.2382Z" fill="#FE5000"/>
<path fill-rule="evenodd" clip-rule="evenodd" d="M46.1604 34.6157C45.7397 34.6094 45.323 34.6985 44.9416 34.8764C44.5998 35.0387 44.3089 35.2915 44.1007 35.6073C43.9334 35.2926 43.6729 35.0373 43.3548 34.8764C43.0112 34.7065 42.6313 34.6229 42.2481 34.6327C41.8777 34.6253 41.5101 34.6985 41.1707 34.8471C40.8631 34.9832 40.5985 35.2005 40.4053 35.4757V34.679H39.4888V39.9832H40.4638V37.2422C40.4328 36.7663 40.5884 36.297 40.8977 35.9338C41.0498 35.7807 41.2322 35.661 41.4333 35.5826C41.6344 35.5041 41.8496 35.4685 42.0653 35.4782C42.2541 35.4663 42.4433 35.4952 42.6199 35.5629C42.7966 35.6306 42.9566 35.7355 43.0891 35.8704C43.3509 36.1988 43.4789 36.6139 43.4474 37.0326V39.9808H44.4224V37.2422C44.3904 36.7661 44.5461 36.2965 44.8563 35.9338C45.0082 35.7804 45.1906 35.6606 45.3918 35.5821C45.5929 35.5037 45.8082 35.4682 46.0239 35.4782C46.2127 35.4663 46.4019 35.4952 46.5785 35.5629C46.7552 35.6306 46.9152 35.7355 47.0477 35.8704C47.3098 36.1986 47.437 36.6141 47.4036 37.0326V39.9808H48.3786V36.923C48.3786 36.1612 48.182 35.5862 47.7887 35.198C47.5727 34.9975 47.3185 34.8427 47.0412 34.7426C46.764 34.6426 46.4694 34.5994 46.1751 34.6157" fill="#FE5000"/>
<path fill-rule="evenodd" clip-rule="evenodd" d="M57.1417 25.8263L57.4293 25.0223L57.9168 23.6603L59.2745 19.8569L64.547 5.11621H69.9999L62.8237 25.1953L61.4464 29.0522L57.5268 39.9823H52.0837L55.3159 30.9429H55.2842C54.0834 30.6027 53.0205 29.8925 52.247 28.9133L52.1617 28.8012C51.9152 28.4659 51.7013 28.1077 51.523 27.7316L51.5084 27.6975C51.4039 27.4801 51.3111 27.2573 51.2305 27.0299L43.4912 5.11621H48.9197L54.2044 20.025L56.0009 25.0954C56.0968 25.318 56.2561 25.5076 56.4589 25.6406C56.6617 25.7735 56.8991 25.8441 57.1417 25.8434" fill="#FE5000"/>
<path fill-rule="evenodd" clip-rule="evenodd" d="M40.749 10.2328V5.11622H33.8409C31.7943 5.11234 29.8299 5.92092 28.3796 7.36422C26.9292 8.80752 26.1116 10.7674 26.1064 12.8131V30.9429H31.2424V12.8131C31.2457 12.1264 31.5213 11.469 32.009 10.9852C32.4966 10.5015 33.1563 10.2309 33.8433 10.2328H40.749Z" fill="#FE5000"/>
<path fill-rule="evenodd" clip-rule="evenodd" d="M17.1313 30.9433C18.7829 30.9466 20.3682 30.2942 21.5388 29.1296C22.7093 27.965 23.3694 26.3836 23.374 24.7327V5.55031L17.7943 0H5.14086V5.11661H0V25.8267H5.14086V30.9433H17.1313ZM5.13354 6.3178C5.15208 6.01386 5.27787 5.72636 5.48854 5.50641C5.69921 5.28646 5.98111 5.14834 6.28408 5.11661H15.6663L18.238 7.67492V24.7303C18.2373 24.8749 18.2082 25.018 18.1522 25.1514C18.0963 25.2847 18.0146 25.4058 17.9118 25.5076C17.8091 25.6094 17.6872 25.69 17.5533 25.7447C17.4194 25.7995 17.276 25.8273 17.1313 25.8267H6.09395C5.81953 25.755 5.57663 25.5944 5.40328 25.37C5.22994 25.1456 5.13593 24.8701 5.13598 24.5865L5.13354 6.3178Z" fill="#FE5000"/>
</svg>
