<svg width="381" height="47" viewBox="0 0 381 47" fill="none" xmlns="http://www.w3.org/2000/svg">
<path d="M40.7924 30.6083C40.7924 33.5451 40.9352 35.1113 42.8815 35.1113V35.9391H29.9617V35.1113C31.908 35.1113 32.0507 33.5494 32.0507 30.6083V20.4929C32.0507 17.3679 31.6709 15.6211 29.0166 15.6211C28.1176 15.6211 26.8814 15.8974 25.8352 16.4488C25.9347 17.1185 25.9824 17.7943 25.9779 18.4708V30.6083C25.9779 33.5451 26.1195 35.1113 28.067 35.1113V35.9391H15.1472V35.1113C17.0935 35.1113 17.2362 33.5494 17.2362 30.6083V20.4929C17.2362 17.3679 16.8564 15.6211 14.2021 15.6211C13.3469 15.6211 12.1602 15.8974 11.1679 16.3107V30.6083C11.1679 33.5451 11.3095 35.1113 13.257 35.1113V35.9391H0.337149V35.1113C2.2835 35.1113 2.42621 33.5494 2.42621 30.6083V18.1989C2.42621 15.2622 1.61936 14.4312 0.0045166 13.8797V13.052L10.5937 11.3976H11.1589V14.4769C13.3907 12.5919 16.4766 11.3052 19.6107 11.3052C22.7921 11.3052 24.644 12.5919 25.4543 14.9359C27.7332 12.7757 31.0573 11.3052 34.4286 11.3052C38.9394 11.3052 40.7913 13.8797 40.7913 18.4752L40.7924 30.6083Z" fill="#0034FF"/>
<path d="M67.403 22.244H53.2055C53.5426 27.5737 55.6272 31.3436 59.9008 31.3436C62.7496 31.3436 64.6015 30.2407 65.9781 28.9072L67.403 29.7349C65.4556 33.5494 61.8966 36.4905 56.3397 36.4905C48.6475 36.4905 44.5166 30.6997 44.5166 24.3574C44.5166 17.1885 49.8342 11.3052 57.5263 11.3052C64.2689 11.3052 67.875 15.5341 67.403 22.244ZM53.1538 20.0371H60.2335C60.6122 15.8093 59.8525 13.3272 57.242 13.3272C54.4405 13.3272 53.301 15.9017 53.1538 20.0371Z" fill="#0034FF"/>
<path d="M69.4685 35.9391V35.1113C71.416 35.1113 71.5576 33.5494 71.5576 30.6083V18.1989C71.5576 15.2622 70.7507 14.4312 69.1359 13.8797V13.052L79.725 11.3976H80.2948V30.6083C80.2948 33.5451 80.4375 35.1113 82.3839 35.1113V35.9391H69.4685ZM71.1789 4.36573C71.1789 1.97282 73.2196 -0.000244141 75.7863 -0.000244141C76.9802 0.00716951 78.1231 0.469535 78.9674 1.28671C79.8117 2.10389 80.2894 3.21009 80.297 4.36573C80.297 6.84783 78.2552 8.82524 75.7863 8.82524C75.1802 8.82885 74.5794 8.71597 74.0187 8.49313C73.458 8.2703 72.9486 7.94195 72.52 7.52713C72.0914 7.1123 71.7522 6.61925 71.522 6.07657C71.2918 5.53389 71.1751 4.95237 71.1789 4.36573Z" fill="#0034FF"/>
<path d="M209.537 22.2744H195.341C195.678 27.6041 197.762 31.374 202.036 31.374C204.885 31.374 206.737 30.2711 208.113 28.9387L209.537 29.7653C207.591 33.5798 204.031 36.5209 198.474 36.5209C190.782 36.5209 186.651 30.7301 186.651 24.3889C186.651 17.2189 191.969 11.3367 199.661 11.3367C206.404 11.3367 210.012 15.5645 209.537 22.2744ZM195.292 20.0686H202.372C202.752 15.8397 201.992 13.3587 199.381 13.3587C196.576 13.3587 195.435 15.9321 195.292 20.0686Z" fill="#0034FF"/>
<path d="M237.885 30.6387C237.885 33.5755 238.028 35.1428 239.974 35.1428V35.9695H227.06V35.1428C229.006 35.1428 229.148 33.5798 229.148 30.6387V20.5233C229.148 17.3983 228.769 15.6515 226.114 15.6515C225.26 15.6515 224.025 15.9278 222.98 16.3411V30.6387C222.98 33.5755 223.122 35.1428 225.07 35.1428V35.9695H212.15V35.1428C214.096 35.1428 214.239 33.5798 214.239 30.6387V18.2304C214.239 15.2882 213.432 14.4616 211.817 13.9101V13.0824L222.405 11.428H222.975V14.5073C225.255 12.6234 228.388 11.3367 231.522 11.3367C236.033 11.3367 237.885 13.9101 237.885 18.5056V30.6387Z" fill="#0034FF"/>
<path d="M242.871 35.418L242.444 28.0653H243.298C245.388 31.7417 247.145 34.5914 250.896 34.5914C253.175 34.5914 254.604 33.3949 254.604 31.9255C254.604 29.9948 253.322 29.3063 250.235 27.7433L248.336 26.7785C246.627 25.9084 242.876 24.1126 242.876 19.3333C242.876 14.1853 247.196 11.3367 252.42 11.3367C254.319 11.3367 257.5 11.7032 259.499 12.3471V18.5056H258.644C256.839 15.2425 255.13 13.2662 252.239 13.2662C249.96 13.2662 249.01 14.3691 249.01 15.7483C249.01 17.5865 250.53 18.3218 252.144 19.1495L254.044 20.1143C257.272 21.7687 260.738 23.3317 260.738 28.111C260.738 33.3503 256.467 36.5209 250.103 36.5209C247.901 36.5209 244.77 36.1533 242.871 35.418Z" fill="#0034FF"/>
<path d="M287.363 33.1664C286.567 34.22 285.523 35.0741 284.317 35.6576C283.111 36.2411 281.779 36.5371 280.43 36.5209C277.486 36.5209 276.347 35.1884 275.967 33.7636C274.162 35.5104 271.409 36.5209 268.939 36.5209C265.71 36.5209 263.095 34.4075 263.095 30.8225C263.095 27.5137 265.327 24.8478 270.836 23.3316L275.347 22.0905V19.7955C275.347 18.5088 275.347 15.2 271.31 15.2C268.366 15.2 266.751 17.0382 265.804 18.9678L263.668 18.1868C265.242 13.7752 269.699 11.3398 275.018 11.3398C280.62 11.3398 283.802 14.4648 283.802 19.888V30.0905C283.802 31.2391 283.802 32.6639 284.942 32.6639C285.448 32.6548 285.934 32.476 286.319 32.1581L287.363 33.1664ZM273.402 32.6607C274.085 32.6504 274.754 32.4767 275.35 32.1549V24.0669L274.451 24.3932C271.838 25.3112 270.651 26.4152 270.651 28.8048C270.648 31.2815 271.883 32.6607 273.402 32.6607Z" fill="#0034FF"/>
<path d="M303.792 30.0415C309.014 30.0415 312.054 32.5682 312.054 36.6133C312.054 42.9556 304.314 46.9996 296.621 46.9996C290.069 46.9996 287.647 44.4262 287.647 42.2203C287.647 39.463 289.736 38.359 291.541 37.6238L292.633 37.2561H294.722C294.2 38.1752 293.915 38.9105 293.915 39.8764C293.915 42.8131 295.815 44.0096 299.993 44.0096C303.601 44.0096 306.83 42.1246 306.83 39.735C306.83 37.8968 305.501 36.7482 302.462 36.7482H293.301C289.977 36.7482 288.552 34.9557 288.552 32.4736C288.552 30.1753 290.167 28.2914 292.968 26.6371C290.024 25.3503 288.315 22.9139 288.315 19.6052C288.315 14.6877 292.303 11.3387 298.57 11.3387C299.834 11.3237 301.094 11.4626 302.322 11.7521L312.056 11.4258L311.157 14.9183L307.121 14.505C308.213 15.7917 308.783 17.4418 308.783 19.3767C308.783 24.3399 304.842 27.6486 298.573 27.6486C297.345 27.6523 296.119 27.5294 294.918 27.2821C294.205 27.7411 294.019 28.0162 294.019 28.7058C294.019 29.4411 294.494 30.0393 296.203 30.0393L303.792 30.0415ZM295.529 19.4692C295.529 23.5143 296.005 25.7201 298.563 25.7201C301.122 25.7201 301.56 23.5154 301.56 19.4692C301.56 15.423 301.132 13.2694 298.568 13.2694C296.003 13.2694 295.529 15.4263 295.529 19.4692Z" fill="#0034FF"/>
<path d="M335.843 22.2744H321.645C321.983 27.6041 324.067 31.374 328.341 31.374C331.19 31.374 333.041 30.2711 334.419 28.9387L335.843 29.7653C333.897 33.5798 330.337 36.5209 324.78 36.5209C317.087 36.5209 312.957 30.7301 312.957 24.3889C312.957 17.2189 318.274 11.3367 325.966 11.3367C332.709 11.3367 336.318 15.5645 335.843 22.2744ZM321.598 20.0686H328.678C329.058 15.8397 328.298 13.3587 325.686 13.3587C322.88 13.3587 321.741 15.9321 321.598 20.0686Z" fill="#0034FF"/>
<path d="M378.91 30.6387C378.91 33.5755 379.053 35.1428 381 35.1428V35.9695H368.084V35.1428C370.031 35.1428 370.174 33.5798 370.174 30.6387V20.5233C370.174 17.3983 369.793 15.6515 367.134 15.6515C366.235 15.6515 364.999 15.9278 363.954 16.4792C364.053 17.1489 364.1 17.8248 364.095 18.5013V30.6387C364.095 33.5755 364.238 35.1428 366.184 35.1428V35.9695H353.269V35.1428C355.217 35.1428 355.358 33.5798 355.358 30.6387V20.5233C355.358 17.3983 354.978 15.6515 352.324 15.6515C351.47 15.6515 350.282 15.9278 349.29 16.3411V30.6387C349.29 33.5755 349.433 35.1428 351.379 35.1428V35.9695H338.456V35.1428C340.402 35.1428 340.544 33.5798 340.544 30.6387V18.2304C340.544 15.2882 339.737 14.4616 338.123 13.9101V13.0824L348.711 11.428H349.281V14.5073C351.513 12.6234 354.6 11.3367 357.733 11.3367C360.914 11.3367 362.766 12.6234 363.576 14.9663C365.855 12.8072 369.179 11.3367 372.551 11.3367C377.061 11.3367 378.913 13.9101 378.913 18.5056L378.91 30.6387Z" fill="#0034FF"/>
<path d="M108.658 19.5324C107.1 14.3627 102.608 11.3052 96.5342 11.3052C89.032 11.3052 83.72 16.3607 83.72 23.9898C83.72 31.7123 88.8477 36.4905 96.4454 36.4905C101.297 36.4905 105.232 34.3739 107.41 30.8161C106.931 29.438 106.687 27.9934 106.69 26.5393C106.679 24.0743 107.36 21.6527 108.658 19.5324ZM96.5308 34.5599C93.5877 34.5599 92.8224 29.9644 92.8224 23.9006C92.8224 17.5583 93.4877 13.2413 96.4319 13.2413C99.3762 13.2413 100.135 17.8367 100.135 23.9006C100.143 30.2374 99.4784 34.5599 96.5308 34.5599Z" fill="#0034FF"/>
<path d="M182.922 30.6387V18.5056C182.922 13.9101 181.071 11.3367 176.56 11.3367C173.189 11.3367 169.865 12.8072 167.586 14.9663C166.778 12.6234 164.927 11.3367 161.743 11.3367C158.61 11.3367 155.523 12.6234 153.291 14.5073V11.428H152.719L149.492 11.9316C149.347 13.6297 148.83 15.2785 147.978 16.7693C147.126 18.2602 145.957 19.5593 144.548 20.5809V30.6387C144.548 33.5755 144.405 35.1429 142.459 35.1429V35.9695H155.382V35.1429C153.436 35.1429 153.293 33.5798 153.293 30.6387V16.3455C154.291 15.9321 155.478 15.6559 156.333 15.6559C158.992 15.6559 159.367 17.4027 159.367 20.5276V30.6431C159.367 33.5798 159.224 35.1472 157.278 35.1472V35.9738H170.193V35.1472C168.246 35.1472 168.103 33.5842 168.103 30.6431V18.5056C168.108 17.8291 168.06 17.1533 167.961 16.4836C169.005 15.9321 170.24 15.6559 171.143 15.6559C173.802 15.6559 174.177 17.4027 174.177 20.5276V30.6431C174.177 33.5798 174.034 35.1472 172.088 35.1472V35.9738H185.003V35.1472C183.06 35.1429 182.922 33.5798 182.922 30.6387Z" fill="#0034FF"/>
<path d="M143.027 4.37546L141.818 4.8845C142.343 5.9004 142.553 6.81514 142.553 7.62873C142.553 12.4069 136.251 13.474 133.206 14.2364C127.061 15.7592 123.018 18.5567 123.018 23.7928C123.018 28.1131 125.853 30.8073 129.582 31.4675L130.481 30.5528C129.85 29.8415 129.325 28.7744 129.325 26.9439C129.325 23.6406 131.583 21.4032 134.261 21.4032C136.834 21.4032 138.673 23.4872 138.673 26.3848C138.673 30.655 134.314 34.5174 128.852 34.5174C123.391 34.5174 118.401 31.163 118.401 24.2508C118.401 19.7771 120.555 15.7113 126.332 13.3739L126.542 12.1535C125.172 11.7467 123.389 10.1152 123.389 7.06966C123.389 4.32434 125.384 2.1903 128.221 2.1903C131.367 2.1903 133.053 4.32434 133.788 9.91287H134.733L136.676 1.17005C134.467 0.513092 130.948 0.0551758 128.428 0.0551758C121.548 0.0551758 115.825 3.51184 115.825 8.6479C115.825 10.7819 116.821 13.0693 118.397 14.442C113.619 16.7261 109.26 20.7506 109.26 26.5392C109.26 33.4015 115.352 38.2863 124.909 38.2863C135.832 38.2863 141.878 32.1876 141.878 25.8866C141.878 23.4937 141.142 21.6164 140.092 20.0925C142.008 19.4399 143.463 18.4327 144.527 17.2645C145.784 15.8814 146.599 14.1739 146.871 12.3504C146.937 11.9182 146.971 11.482 146.972 11.0452C146.966 7.57761 144.76 5.49361 143.027 4.37546Z" fill="#0034FF"/>
</svg>
