<svg width="200" height="88" viewBox="0 0 200 88" fill="none" xmlns="http://www.w3.org/2000/svg">
<g filter="url(#filter0_dd_2204_6736)">
<rect x="20" y="20" width="160" height="48" rx="6" fill="black"/>
<rect x="16" y="16" width="168" height="56" rx="10" stroke="#EBEBEB" stroke-width="8"/>
</g>
<path d="M38.3887 58.9996C38.0988 59.0047 37.8089 58.9563 37.536 58.8562L51.2711 45.4176L55.8176 49.8693L40.0344 58.5426C39.5345 58.8294 38.9681 58.9867 38.3887 58.9996ZM36.4037 57.8905C36.1245 57.3959 35.9855 56.8373 36.0012 56.2726V31.7454C35.9989 31.3731 36.0564 31.0028 36.1717 30.6479L50.2121 44.3835L36.3985 57.8938L36.4037 57.8905ZM57.1734 49.1204L52.3284 44.3851L57.6714 39.1611L62.4174 41.7681C63.3281 42.1684 63.9386 43.0274 64 44.0015C63.9698 44.48 63.8061 44.9413 63.5268 45.3353C63.2475 45.7293 62.8633 46.041 62.4157 46.2365L57.1734 49.1204ZM51.2711 43.3443L37.0483 29.4353C37.4388 29.1518 37.9112 29.0017 38.3972 29C38.9702 29.02 39.5296 29.1785 40.0259 29.462L56.3139 38.4155L51.2728 43.3443H51.2711Z" fill="white"/>
<path d="M74.1434 33.31H77.7534V34.17H74.1434V33.31ZM74.2434 37H73.2434V30H78.1834V30.87H74.2434V37ZM82.5457 37V35.88L82.4957 35.67V33.76C82.4957 33.3533 82.3757 33.04 82.1357 32.82C81.9024 32.5933 81.549 32.48 81.0757 32.48C80.7624 32.48 80.4557 32.5333 80.1557 32.64C79.8557 32.74 79.6024 32.8767 79.3957 33.05L78.9957 32.33C79.269 32.11 79.5957 31.9433 79.9757 31.83C80.3624 31.71 80.7657 31.65 81.1857 31.65C81.9124 31.65 82.4724 31.8267 82.8657 32.18C83.259 32.5333 83.4557 33.0733 83.4557 33.8V37H82.5457ZM80.8057 37.06C80.4124 37.06 80.0657 36.9933 79.7657 36.86C79.4724 36.7267 79.2457 36.5433 79.0857 36.31C78.9257 36.07 78.8457 35.8 78.8457 35.5C78.8457 35.2133 78.9124 34.9533 79.0457 34.72C79.1857 34.4867 79.409 34.3 79.7157 34.16C80.029 34.02 80.449 33.95 80.9757 33.95H82.6557V34.64H81.0157C80.5357 34.64 80.2124 34.72 80.0457 34.88C79.879 35.04 79.7957 35.2333 79.7957 35.46C79.7957 35.72 79.899 35.93 80.1057 36.09C80.3124 36.2433 80.599 36.32 80.9657 36.32C81.3257 36.32 81.639 36.24 81.9057 36.08C82.179 35.92 82.3757 35.6867 82.4957 35.38L82.6857 36.04C82.559 36.3533 82.3357 36.6033 82.0157 36.79C81.6957 36.97 81.2924 37.06 80.8057 37.06ZM84.7223 37V36.38L88.1223 32.16L88.3123 32.49H84.7823V31.7H89.0823V32.33L85.6823 36.54L85.4623 36.21H89.1623V37H84.7223ZM92.729 37.06C92.1623 37.06 91.6623 36.9433 91.229 36.71C90.8023 36.4767 90.469 36.1567 90.229 35.75C89.9957 35.3433 89.879 34.8767 89.879 34.35C89.879 33.8233 89.9923 33.3567 90.219 32.95C90.4523 32.5433 90.769 32.2267 91.169 32C91.5757 31.7667 92.0323 31.65 92.539 31.65C93.0523 31.65 93.5057 31.7633 93.899 31.99C94.2923 32.2167 94.599 32.5367 94.819 32.95C95.0457 33.3567 95.159 33.8333 95.159 34.38C95.159 34.42 95.1557 34.4667 95.149 34.52C95.149 34.5733 95.1457 34.6233 95.139 34.67H90.629V33.98H94.639L94.249 34.22C94.2557 33.88 94.1857 33.5767 94.039 33.31C93.8923 33.0433 93.689 32.8367 93.429 32.69C93.1757 32.5367 92.879 32.46 92.539 32.46C92.2057 32.46 91.909 32.5367 91.649 32.69C91.389 32.8367 91.1857 33.0467 91.039 33.32C90.8923 33.5867 90.819 33.8933 90.819 34.24V34.4C90.819 34.7533 90.899 35.07 91.059 35.35C91.2257 35.6233 91.4557 35.8367 91.749 35.99C92.0423 36.1433 92.379 36.22 92.759 36.22C93.0723 36.22 93.3557 36.1667 93.609 36.06C93.869 35.9533 94.0957 35.7933 94.289 35.58L94.819 36.2C94.579 36.48 94.279 36.6933 93.919 36.84C93.5657 36.9867 93.169 37.06 92.729 37.06ZM96.492 37V31.7H97.412V33.14L97.322 32.78C97.4687 32.4133 97.7154 32.1333 98.062 31.94C98.4087 31.7467 98.8354 31.65 99.342 31.65V32.58C99.302 32.5733 99.262 32.57 99.222 32.57C99.1887 32.57 99.1554 32.57 99.122 32.57C98.6087 32.57 98.202 32.7233 97.902 33.03C97.602 33.3367 97.452 33.78 97.452 34.36V37H96.492ZM105.469 37.06C104.956 37.06 104.496 36.9467 104.089 36.72C103.689 36.4933 103.372 36.1767 103.139 35.77C102.906 35.3633 102.789 34.89 102.789 34.35C102.789 33.81 102.906 33.34 103.139 32.94C103.372 32.5333 103.689 32.2167 104.089 31.99C104.496 31.7633 104.956 31.65 105.469 31.65C105.916 31.65 106.319 31.75 106.679 31.95C107.039 32.15 107.326 32.45 107.539 32.85C107.759 33.25 107.869 33.75 107.869 34.35C107.869 34.95 107.762 35.45 107.549 35.85C107.342 36.25 107.059 36.5533 106.699 36.76C106.339 36.96 105.929 37.06 105.469 37.06ZM105.549 36.22C105.882 36.22 106.182 36.1433 106.449 35.99C106.722 35.8367 106.936 35.62 107.089 35.34C107.249 35.0533 107.329 34.7233 107.329 34.35C107.329 33.97 107.249 33.6433 107.089 33.37C106.936 33.09 106.722 32.8733 106.449 32.72C106.182 32.5667 105.882 32.49 105.549 32.49C105.209 32.49 104.906 32.5667 104.639 32.72C104.372 32.8733 104.159 33.09 103.999 33.37C103.839 33.6433 103.759 33.97 103.759 34.35C103.759 34.7233 103.839 35.0533 103.999 35.34C104.159 35.62 104.372 35.8367 104.639 35.99C104.906 36.1433 105.209 36.22 105.549 36.22ZM107.359 37V35.57L107.419 34.34L107.319 33.11V29.58H108.279V37H107.359ZM112.366 37.06C111.832 37.06 111.359 36.9433 110.946 36.71C110.532 36.4767 110.206 36.1567 109.966 35.75C109.726 35.3367 109.606 34.87 109.606 34.35C109.606 33.8233 109.726 33.3567 109.966 32.95C110.206 32.5433 110.532 32.2267 110.946 32C111.359 31.7667 111.832 31.65 112.366 31.65C112.892 31.65 113.362 31.7667 113.776 32C114.196 32.2267 114.522 32.5433 114.756 32.95C114.996 33.35 115.116 33.8167 115.116 34.35C115.116 34.8767 114.996 35.3433 114.756 35.75C114.522 36.1567 114.196 36.4767 113.776 36.71C113.362 36.9433 112.892 37.06 112.366 37.06ZM112.366 36.22C112.706 36.22 113.009 36.1433 113.276 35.99C113.549 35.8367 113.762 35.62 113.916 35.34C114.069 35.0533 114.146 34.7233 114.146 34.35C114.146 33.97 114.069 33.6433 113.916 33.37C113.762 33.09 113.549 32.8733 113.276 32.72C113.009 32.5667 112.706 32.49 112.366 32.49C112.026 32.49 111.722 32.5667 111.456 32.72C111.189 32.8733 110.976 33.09 110.816 33.37C110.656 33.6433 110.576 33.97 110.576 34.35C110.576 34.7233 110.656 35.0533 110.816 35.34C110.976 35.62 111.189 35.8367 111.456 35.99C111.722 36.1433 112.026 36.22 112.366 36.22ZM117.417 37L115.447 31.7H116.357L118.107 36.5H117.677L119.497 31.7H120.307L122.087 36.5H121.667L123.457 31.7H124.317L122.337 37H121.417L119.747 32.62H120.027L118.337 37H117.417ZM128.121 31.65C128.554 31.65 128.934 31.7333 129.261 31.9C129.594 32.0667 129.854 32.32 130.041 32.66C130.228 33 130.321 33.43 130.321 33.95V37H129.361V34.06C129.361 33.5467 129.234 33.16 128.981 32.9C128.734 32.64 128.384 32.51 127.931 32.51C127.591 32.51 127.294 32.5767 127.041 32.71C126.788 32.8433 126.591 33.04 126.451 33.3C126.318 33.56 126.251 33.8833 126.251 34.27V37H125.291V31.7H126.211V33.13L126.061 32.75C126.234 32.4033 126.501 32.1333 126.861 31.94C127.221 31.7467 127.641 31.65 128.121 31.65ZM132.098 37V29.58H133.058V37H132.098ZM137.16 37.06C136.627 37.06 136.154 36.9433 135.74 36.71C135.327 36.4767 135 36.1567 134.76 35.75C134.52 35.3367 134.4 34.87 134.4 34.35C134.4 33.8233 134.52 33.3567 134.76 32.95C135 32.5433 135.327 32.2267 135.74 32C136.154 31.7667 136.627 31.65 137.16 31.65C137.687 31.65 138.157 31.7667 138.57 32C138.99 32.2267 139.317 32.5433 139.55 32.95C139.79 33.35 139.91 33.8167 139.91 34.35C139.91 34.8767 139.79 35.3433 139.55 35.75C139.317 36.1567 138.99 36.4767 138.57 36.71C138.157 36.9433 137.687 37.06 137.16 37.06ZM137.16 36.22C137.5 36.22 137.804 36.1433 138.07 35.99C138.344 35.8367 138.557 35.62 138.71 35.34C138.864 35.0533 138.94 34.7233 138.94 34.35C138.94 33.97 138.864 33.6433 138.71 33.37C138.557 33.09 138.344 32.8733 138.07 32.72C137.804 32.5667 137.5 32.49 137.16 32.49C136.82 32.49 136.517 32.5667 136.25 32.72C135.984 32.8733 135.77 33.09 135.61 33.37C135.45 33.6433 135.37 33.97 135.37 34.35C135.37 34.7233 135.45 35.0533 135.61 35.34C135.77 35.62 135.984 35.8367 136.25 35.99C136.517 36.1433 136.82 36.22 137.16 36.22ZM144.479 37V35.88L144.429 35.67V33.76C144.429 33.3533 144.309 33.04 144.069 32.82C143.836 32.5933 143.483 32.48 143.009 32.48C142.696 32.48 142.389 32.5333 142.089 32.64C141.789 32.74 141.536 32.8767 141.329 33.05L140.929 32.33C141.203 32.11 141.529 31.9433 141.909 31.83C142.296 31.71 142.699 31.65 143.119 31.65C143.846 31.65 144.406 31.8267 144.799 32.18C145.193 32.5333 145.389 33.0733 145.389 33.8V37H144.479ZM142.739 37.06C142.346 37.06 141.999 36.9933 141.699 36.86C141.406 36.7267 141.179 36.5433 141.019 36.31C140.859 36.07 140.779 35.8 140.779 35.5C140.779 35.2133 140.846 34.9533 140.979 34.72C141.119 34.4867 141.343 34.3 141.649 34.16C141.963 34.02 142.383 33.95 142.909 33.95H144.589V34.64H142.949C142.469 34.64 142.146 34.72 141.979 34.88C141.813 35.04 141.729 35.2333 141.729 35.46C141.729 35.72 141.833 35.93 142.039 36.09C142.246 36.2433 142.533 36.32 142.899 36.32C143.259 36.32 143.573 36.24 143.839 36.08C144.113 35.92 144.309 35.6867 144.429 35.38L144.619 36.04C144.493 36.3533 144.269 36.6033 143.949 36.79C143.629 36.97 143.226 37.06 142.739 37.06ZM149.356 37.06C148.843 37.06 148.383 36.9467 147.976 36.72C147.576 36.4933 147.259 36.1767 147.026 35.77C146.793 35.3633 146.676 34.89 146.676 34.35C146.676 33.81 146.793 33.34 147.026 32.94C147.259 32.5333 147.576 32.2167 147.976 31.99C148.383 31.7633 148.843 31.65 149.356 31.65C149.803 31.65 150.206 31.75 150.566 31.95C150.926 32.15 151.213 32.45 151.426 32.85C151.646 33.25 151.756 33.75 151.756 34.35C151.756 34.95 151.649 35.45 151.436 35.85C151.229 36.25 150.946 36.5533 150.586 36.76C150.226 36.96 149.816 37.06 149.356 37.06ZM149.436 36.22C149.769 36.22 150.069 36.1433 150.336 35.99C150.609 35.8367 150.823 35.62 150.976 35.34C151.136 35.0533 151.216 34.7233 151.216 34.35C151.216 33.97 151.136 33.6433 150.976 33.37C150.823 33.09 150.609 32.8733 150.336 32.72C150.069 32.5667 149.769 32.49 149.436 32.49C149.096 32.49 148.793 32.5667 148.526 32.72C148.259 32.8733 148.046 33.09 147.886 33.37C147.726 33.6433 147.646 33.97 147.646 34.35C147.646 34.7233 147.726 35.0533 147.886 35.34C148.046 35.62 148.259 35.8367 148.526 35.99C148.793 36.1433 149.096 36.22 149.436 36.22ZM151.246 37V35.57L151.306 34.34L151.206 33.11V29.58H152.166V37H151.246ZM159.498 31.65C159.931 31.65 160.311 31.7333 160.638 31.9C160.971 32.0667 161.231 32.32 161.418 32.66C161.604 33 161.698 33.43 161.698 33.95V37H160.738V34.06C160.738 33.5467 160.611 33.16 160.358 32.9C160.111 32.64 159.761 32.51 159.308 32.51C158.968 32.51 158.671 32.5767 158.418 32.71C158.164 32.8433 157.968 33.04 157.828 33.3C157.694 33.56 157.628 33.8833 157.628 34.27V37H156.668V31.7H157.588V33.13L157.438 32.75C157.611 32.4033 157.878 32.1333 158.238 31.94C158.598 31.7467 159.018 31.65 159.498 31.65ZM166.764 37V35.88L166.714 35.67V33.76C166.714 33.3533 166.594 33.04 166.354 32.82C166.121 32.5933 165.768 32.48 165.294 32.48C164.981 32.48 164.674 32.5333 164.374 32.64C164.074 32.74 163.821 32.8767 163.614 33.05L163.214 32.33C163.488 32.11 163.814 31.9433 164.194 31.83C164.581 31.71 164.984 31.65 165.404 31.65C166.131 31.65 166.691 31.8267 167.084 32.18C167.478 32.5333 167.674 33.0733 167.674 33.8V37H166.764ZM165.024 37.06C164.631 37.06 164.284 36.9933 163.984 36.86C163.691 36.7267 163.464 36.5433 163.304 36.31C163.144 36.07 163.064 35.8 163.064 35.5C163.064 35.2133 163.131 34.9533 163.264 34.72C163.404 34.4867 163.628 34.3 163.934 34.16C164.248 34.02 164.668 33.95 165.194 33.95H166.874V34.64H165.234C164.754 34.64 164.431 34.72 164.264 34.88C164.098 35.04 164.014 35.2333 164.014 35.46C164.014 35.72 164.118 35.93 164.324 36.09C164.531 36.2433 164.818 36.32 165.184 36.32C165.544 36.32 165.858 36.24 166.124 36.08C166.398 35.92 166.594 35.6867 166.714 35.38L166.904 36.04C166.778 36.3533 166.554 36.6033 166.234 36.79C165.914 36.97 165.511 37.06 165.024 37.06ZM169.681 33.02C169.494 33.02 169.334 32.9567 169.201 32.83C169.068 32.6967 169.001 32.53 169.001 32.33C169.001 32.13 169.068 31.9667 169.201 31.84C169.334 31.7133 169.494 31.65 169.681 31.65C169.861 31.65 170.014 31.7133 170.141 31.84C170.274 31.9667 170.341 32.13 170.341 32.33C170.341 32.53 170.274 32.6967 170.141 32.83C170.014 32.9567 169.861 33.02 169.681 33.02ZM169.681 37.06C169.494 37.06 169.334 36.9967 169.201 36.87C169.068 36.7367 169.001 36.57 169.001 36.37C169.001 36.17 169.068 36.0067 169.201 35.88C169.334 35.7533 169.494 35.69 169.681 35.69C169.861 35.69 170.014 35.7533 170.141 35.88C170.274 36.0067 170.341 36.17 170.341 36.37C170.341 36.57 170.274 36.7367 170.141 36.87C170.014 36.9967 169.861 37.06 169.681 37.06Z" fill="white"/>
<path d="M78.9157 56.128C78.0517 56.128 77.257 55.9893 76.5317 55.712C75.8064 55.424 75.177 55.024 74.6437 54.512C74.1104 53.9893 73.6944 53.3813 73.3957 52.688C73.097 51.9947 72.9477 51.232 72.9477 50.4C72.9477 49.568 73.097 48.8053 73.3957 48.112C73.6944 47.4187 74.1104 46.816 74.6437 46.304C75.1877 45.7813 75.8224 45.3813 76.5477 45.104C77.273 44.816 78.073 44.672 78.9477 44.672C79.833 44.672 80.6437 44.816 81.3797 45.104C82.1157 45.392 82.7397 45.824 83.2517 46.4L82.2597 47.392C81.801 46.944 81.2997 46.6187 80.7557 46.416C80.2224 46.2027 79.641 46.096 79.0117 46.096C78.3717 46.096 77.7744 46.2027 77.2197 46.416C76.6757 46.6293 76.201 46.928 75.7957 47.312C75.401 47.696 75.0917 48.1547 74.8677 48.688C74.6544 49.2107 74.5477 49.7813 74.5477 50.4C74.5477 51.008 74.6544 51.5787 74.8677 52.112C75.0917 52.6347 75.401 53.0933 75.7957 53.488C76.201 53.872 76.6757 54.1707 77.2197 54.384C77.7637 54.5973 78.3557 54.704 78.9957 54.704C79.593 54.704 80.1637 54.6133 80.7077 54.432C81.2624 54.24 81.7744 53.9253 82.2437 53.488L83.1557 54.704C82.601 55.1733 81.9504 55.5307 81.2037 55.776C80.4677 56.0107 79.705 56.128 78.9157 56.128ZM81.6197 54.496V50.336H83.1557V54.704L81.6197 54.496ZM89.6271 56.096C88.7737 56.096 88.0164 55.9093 87.3551 55.536C86.6937 55.1627 86.1711 54.6507 85.7871 54C85.4031 53.3387 85.2111 52.592 85.2111 51.76C85.2111 50.9173 85.4031 50.1707 85.7871 49.52C86.1711 48.8693 86.6937 48.3627 87.3551 48C88.0164 47.6267 88.7737 47.44 89.6271 47.44C90.4697 47.44 91.2217 47.6267 91.8831 48C92.5551 48.3627 93.0777 48.8693 93.4511 49.52C93.8351 50.16 94.0271 50.9067 94.0271 51.76C94.0271 52.6027 93.8351 53.3493 93.4511 54C93.0777 54.6507 92.5551 55.1627 91.8831 55.536C91.2217 55.9093 90.4697 56.096 89.6271 56.096ZM89.6271 54.752C90.1711 54.752 90.6564 54.6293 91.0831 54.384C91.5204 54.1387 91.8617 53.792 92.1071 53.344C92.3524 52.8853 92.4751 52.3573 92.4751 51.76C92.4751 51.152 92.3524 50.6293 92.1071 50.192C91.8617 49.744 91.5204 49.3973 91.0831 49.152C90.6564 48.9067 90.1711 48.784 89.6271 48.784C89.0831 48.784 88.5977 48.9067 88.1711 49.152C87.7444 49.3973 87.4031 49.744 87.1471 50.192C86.8911 50.6293 86.7631 51.152 86.7631 51.76C86.7631 52.3573 86.8911 52.8853 87.1471 53.344C87.4031 53.792 87.7444 54.1387 88.1711 54.384C88.5977 54.6293 89.0831 54.752 89.6271 54.752ZM99.7833 56.096C98.93 56.096 98.1726 55.9093 97.5113 55.536C96.85 55.1627 96.3273 54.6507 95.9433 54C95.5593 53.3387 95.3673 52.592 95.3673 51.76C95.3673 50.9173 95.5593 50.1707 95.9433 49.52C96.3273 48.8693 96.85 48.3627 97.5113 48C98.1726 47.6267 98.93 47.44 99.7833 47.44C100.626 47.44 101.378 47.6267 102.039 48C102.711 48.3627 103.234 48.8693 103.607 49.52C103.991 50.16 104.183 50.9067 104.183 51.76C104.183 52.6027 103.991 53.3493 103.607 54C103.234 54.6507 102.711 55.1627 102.039 55.536C101.378 55.9093 100.626 56.096 99.7833 56.096ZM99.7833 54.752C100.327 54.752 100.813 54.6293 101.239 54.384C101.677 54.1387 102.018 53.792 102.263 53.344C102.509 52.8853 102.631 52.3573 102.631 51.76C102.631 51.152 102.509 50.6293 102.263 50.192C102.018 49.744 101.677 49.3973 101.239 49.152C100.813 48.9067 100.327 48.784 99.7833 48.784C99.2393 48.784 98.754 48.9067 98.3273 49.152C97.9006 49.3973 97.5593 49.744 97.3033 50.192C97.0473 50.6293 96.9193 51.152 96.9193 51.76C96.9193 52.3573 97.0473 52.8853 97.3033 53.344C97.5593 53.792 97.9006 54.1387 98.3273 54.384C98.754 54.6293 99.2393 54.752 99.7833 54.752ZM110.02 59.2C109.241 59.2 108.484 59.088 107.748 58.864C107.022 58.6507 106.43 58.3413 105.972 57.936L106.708 56.752C107.102 57.0933 107.588 57.36 108.164 57.552C108.74 57.7547 109.342 57.856 109.972 57.856C110.974 57.856 111.71 57.6213 112.18 57.152C112.649 56.6827 112.884 55.968 112.884 55.008V53.216L113.044 51.536L112.964 49.84V47.52H114.42V54.848C114.42 56.3413 114.046 57.44 113.3 58.144C112.553 58.848 111.46 59.2 110.02 59.2ZM109.828 55.648C109.006 55.648 108.27 55.4773 107.62 55.136C106.98 54.784 106.468 54.2987 106.084 53.68C105.71 53.0613 105.524 52.3467 105.524 51.536C105.524 50.7147 105.71 50 106.084 49.392C106.468 48.7733 106.98 48.2933 107.62 47.952C108.27 47.6107 109.006 47.44 109.828 47.44C110.553 47.44 111.214 47.5893 111.812 47.888C112.409 48.176 112.884 48.624 113.236 49.232C113.598 49.84 113.78 50.608 113.78 51.536C113.78 52.4533 113.598 53.216 113.236 53.824C112.884 54.432 112.409 54.8907 111.812 55.2C111.214 55.4987 110.553 55.648 109.828 55.648ZM110.004 54.304C110.569 54.304 111.07 54.1867 111.508 53.952C111.945 53.7173 112.286 53.392 112.532 52.976C112.788 52.56 112.916 52.08 112.916 51.536C112.916 50.992 112.788 50.512 112.532 50.096C112.286 49.68 111.945 49.36 111.508 49.136C111.07 48.9013 110.569 48.784 110.004 48.784C109.438 48.784 108.932 48.9013 108.484 49.136C108.046 49.36 107.7 49.68 107.444 50.096C107.198 50.512 107.076 50.992 107.076 51.536C107.076 52.08 107.198 52.56 107.444 52.976C107.7 53.392 108.046 53.7173 108.484 53.952C108.932 54.1867 109.438 54.304 110.004 54.304ZM117.354 56V44.128H118.89V56H117.354ZM125.599 56.096C124.693 56.096 123.893 55.9093 123.199 55.536C122.517 55.1627 121.983 54.6507 121.599 54C121.226 53.3493 121.039 52.6027 121.039 51.76C121.039 50.9173 121.221 50.1707 121.583 49.52C121.957 48.8693 122.463 48.3627 123.103 48C123.754 47.6267 124.485 47.44 125.295 47.44C126.117 47.44 126.842 47.6213 127.471 47.984C128.101 48.3467 128.591 48.8587 128.943 49.52C129.306 50.1707 129.487 50.9333 129.487 51.808C129.487 51.872 129.482 51.9467 129.471 52.032C129.471 52.1173 129.466 52.1973 129.455 52.272H122.239V51.168H128.655L128.031 51.552C128.042 51.008 127.93 50.5227 127.695 50.096C127.461 49.6693 127.135 49.3387 126.719 49.104C126.314 48.8587 125.839 48.736 125.295 48.736C124.762 48.736 124.287 48.8587 123.871 49.104C123.455 49.3387 123.13 49.6747 122.895 50.112C122.661 50.5387 122.543 51.0293 122.543 51.584V51.84C122.543 52.4053 122.671 52.912 122.927 53.36C123.194 53.7973 123.562 54.1387 124.031 54.384C124.501 54.6293 125.039 54.752 125.647 54.752C126.149 54.752 126.602 54.6667 127.007 54.496C127.423 54.3253 127.786 54.0693 128.095 53.728L128.943 54.72C128.559 55.168 128.079 55.5093 127.503 55.744C126.938 55.9787 126.303 56.096 125.599 56.096ZM136.141 56V44.8H140.509C141.49 44.8 142.328 44.9547 143.021 45.264C143.714 45.5733 144.248 46.0213 144.621 46.608C144.994 47.1947 145.181 47.8933 145.181 48.704C145.181 49.5147 144.994 50.2133 144.621 50.8C144.248 51.376 143.714 51.824 143.021 52.144C142.328 52.4533 141.49 52.608 140.509 52.608H137.021L137.741 51.856V56H136.141ZM137.741 52.016L137.021 51.216H140.461C141.485 51.216 142.258 50.9973 142.781 50.56C143.314 50.1227 143.581 49.504 143.581 48.704C143.581 47.904 143.314 47.2853 142.781 46.848C142.258 46.4107 141.485 46.192 140.461 46.192H137.021L137.741 45.392V52.016ZM147.464 56V44.128H149V56H147.464ZM157.197 56V54.208L157.117 53.872V50.816C157.117 50.1653 156.925 49.664 156.541 49.312C156.167 48.9493 155.602 48.768 154.845 48.768C154.343 48.768 153.853 48.8533 153.373 49.024C152.893 49.184 152.487 49.4027 152.157 49.68L151.517 48.528C151.954 48.176 152.477 47.9093 153.085 47.728C153.703 47.536 154.349 47.44 155.021 47.44C156.183 47.44 157.079 47.7227 157.709 48.288C158.338 48.8533 158.653 49.7173 158.653 50.88V56H157.197ZM154.413 56.096C153.783 56.096 153.229 55.9893 152.749 55.776C152.279 55.5627 151.917 55.2693 151.661 54.896C151.405 54.512 151.277 54.08 151.277 53.6C151.277 53.1413 151.383 52.7253 151.597 52.352C151.821 51.9787 152.178 51.68 152.669 51.456C153.17 51.232 153.842 51.12 154.685 51.12H157.373V52.224H154.749C153.981 52.224 153.463 52.352 153.197 52.608C152.93 52.864 152.797 53.1733 152.797 53.536C152.797 53.952 152.962 54.288 153.293 54.544C153.623 54.7893 154.082 54.912 154.669 54.912C155.245 54.912 155.746 54.784 156.173 54.528C156.61 54.272 156.925 53.8987 157.117 53.408L157.421 54.464C157.218 54.9653 156.861 55.3653 156.349 55.664C155.837 55.952 155.191 56.096 154.413 56.096ZM161.707 59.2C161.301 59.2 160.907 59.1307 160.523 58.992C160.139 58.864 159.808 58.672 159.531 58.416L160.187 57.264C160.4 57.4667 160.635 57.6213 160.891 57.728C161.147 57.8347 161.419 57.888 161.707 57.888C162.08 57.888 162.389 57.792 162.635 57.6C162.88 57.408 163.109 57.0667 163.323 56.576L163.851 55.408L164.011 55.216L167.339 47.52H168.843L164.731 56.848C164.485 57.4453 164.208 57.9147 163.899 58.256C163.6 58.5973 163.269 58.8373 162.907 58.976C162.544 59.1253 162.144 59.2 161.707 59.2ZM163.723 56.272L159.851 47.52H161.451L164.747 55.072L163.723 56.272Z" fill="white"/>
<defs>
<filter id="filter0_dd_2204_6736" x="0" y="0" width="200" height="88" filterUnits="userSpaceOnUse" color-interpolation-filters="sRGB">
<feFlood flood-opacity="0" result="BackgroundImageFix"/>
<feColorMatrix in="SourceAlpha" type="matrix" values="0 0 0 0 0 0 0 0 0 0 0 0 0 0 0 0 0 0 127 0" result="hardAlpha"/>
<feOffset dx="4" dy="4"/>
<feGaussianBlur stdDeviation="4"/>
<feComposite in2="hardAlpha" operator="out"/>
<feColorMatrix type="matrix" values="0 0 0 0 0 0 0 0 0 0 0 0 0 0 0 0 0 0 0.25 0"/>
<feBlend mode="normal" in2="BackgroundImageFix" result="effect1_dropShadow_2204_6736"/>
<feColorMatrix in="SourceAlpha" type="matrix" values="0 0 0 0 0 0 0 0 0 0 0 0 0 0 0 0 0 0 127 0" result="hardAlpha"/>
<feOffset dx="-4" dy="-4"/>
<feGaussianBlur stdDeviation="4"/>
<feComposite in2="hardAlpha" operator="out"/>
<feColorMatrix type="matrix" values="0 0 0 0 1 0 0 0 0 1 0 0 0 0 1 0 0 0 0.75 0"/>
<feBlend mode="normal" in2="effect1_dropShadow_2204_6736" result="effect2_dropShadow_2204_6736"/>
<feBlend mode="normal" in="SourceGraphic" in2="effect2_dropShadow_2204_6736" result="shape"/>
</filter>
</defs>
</svg>
