<svg width="83" height="65" viewBox="0 0 83 65" fill="none" xmlns="http://www.w3.org/2000/svg">
<path d="M3.78641 35.6103C2.58437 33.3865 1.6528 31.1327 0.991678 28.8488C0.330559 26.565 0 24.2811 0 21.9972C0 15.8068 2.11919 10.5923 6.35756 6.35395C10.5935 2.11798 15.8067 0 21.9972 0C25.7235 0 29.284 0.871475 32.6785 2.61442C36.0755 4.35737 39.006 6.82154 41.4702 10.0069C43.9344 6.82154 46.8649 4.35737 50.2619 2.61442C53.6564 0.871475 57.2168 0 60.9431 0C67.1336 0 72.348 2.11798 76.5864 6.35395C80.8224 10.5923 82.9404 15.8068 82.9404 21.9972C82.9404 24.221 82.6098 26.4592 81.9487 28.7118C81.2876 30.9668 80.356 33.2362 79.154 35.5201C78.6731 34.7388 78.0721 34.0176 77.3509 33.3565C76.6297 32.6953 75.8183 32.1544 74.9168 31.7337C75.7582 30.0509 76.4037 28.3981 76.8533 26.7753C77.3052 25.1526 77.5312 23.5599 77.5312 21.9972C77.5312 17.3093 75.9385 13.3726 72.7531 10.1872C69.5677 7.00185 65.6311 5.40915 60.9431 5.40915C56.6759 5.40915 53.1299 6.64124 50.3051 9.10541C47.4804 11.5696 44.5354 14.6648 41.4702 18.3911C38.405 14.6047 35.46 11.4939 32.6352 9.05853C29.8104 6.62561 26.2644 5.40915 21.9972 5.40915C17.3093 5.40915 13.3726 7.00185 10.1872 10.1872C7.00185 13.3726 5.40915 17.3093 5.40915 21.9972C5.40915 23.62 5.63514 25.2427 6.0871 26.8655C6.53666 28.4882 7.1521 30.141 7.93343 31.8239C7.092 32.2446 6.3251 32.7699 5.63273 33.3997C4.94276 34.032 4.32732 34.7688 3.78641 35.6103ZM0 65V60.5825C0 58.1184 1.26214 56.135 3.78641 54.6325C6.31068 53.1299 9.55617 52.3786 13.5229 52.3786C14.3042 52.3786 15.0254 52.3943 15.6865 52.4255C16.3477 52.4544 16.9787 52.5289 17.5798 52.6491C16.9186 53.7309 16.4078 54.8729 16.0472 56.0749C15.6865 57.2769 15.5062 58.5391 15.5062 59.8613V65H0ZM21.6366 65V60.0416C21.6366 56.5557 23.4697 53.7754 27.1359 51.7007C30.8021 49.6284 35.5802 48.5922 41.4702 48.5922C47.4203 48.5922 52.214 49.6284 55.8513 51.7007C59.4863 53.7754 61.3037 56.5557 61.3037 60.0416V65H21.6366ZM67.4341 65V59.8613C67.4341 58.5391 67.2682 57.2769 66.9365 56.0749C66.6071 54.8729 66.1119 53.7309 65.4508 52.6491C66.1119 52.5289 66.773 52.4544 67.4341 52.4255C68.0952 52.3943 68.7564 52.3786 69.4175 52.3786C73.4443 52.3786 76.7042 53.1299 79.1972 54.6325C81.6927 56.135 82.9404 58.1184 82.9404 60.5825V65H67.4341ZM41.4702 54.0014C37.7439 54.0014 34.5284 54.4978 31.8239 55.4907C29.1193 56.4812 27.6167 57.7277 27.3162 59.2302V59.5908H55.7143V59.2302C55.3537 57.7277 53.8367 56.4812 51.1634 55.4907C48.4877 54.4978 45.2566 54.0014 41.4702 54.0014ZM13.5229 48.8627C11.84 48.8627 10.3976 48.2617 9.19556 47.0596C7.99353 45.8576 7.39251 44.3851 7.39251 42.6422C7.39251 40.9593 7.99353 39.5169 9.19556 38.3148C10.3976 37.1128 11.84 36.5118 13.5229 36.5118C15.2658 36.5118 16.7383 37.1128 17.9404 38.3148C19.1424 39.5169 19.7434 40.9593 19.7434 42.6422C19.7434 44.3851 19.1424 45.8576 17.9404 47.0596C16.7383 48.2617 15.2658 48.8627 13.5229 48.8627ZM69.4175 48.8627C67.7346 48.8627 66.2922 48.2617 65.0902 47.0596C63.8881 45.8576 63.2871 44.3851 63.2871 42.6422C63.2871 40.9593 63.8881 39.5169 65.0902 38.3148C66.2922 37.1128 67.7346 36.5118 69.4175 36.5118C71.1604 36.5118 72.6185 37.1128 73.7917 38.3148C74.9625 39.5169 75.5479 40.9593 75.5479 42.6422C75.5479 44.3851 74.9625 45.8576 73.7917 47.0596C72.6185 48.2617 71.1604 48.8627 69.4175 48.8627ZM41.4702 45.8877C38.8858 45.8877 36.6777 44.9861 34.8458 43.1831C33.0115 41.38 32.0943 39.1563 32.0943 36.5118C32.0943 33.8673 33.0115 31.658 34.8458 29.8838C36.6777 28.112 38.8858 27.2261 41.4702 27.2261C44.1147 27.2261 46.3384 28.112 48.1415 29.8838C49.9445 31.658 50.846 33.8673 50.846 36.5118C50.846 39.0962 49.9445 41.3055 48.1415 43.1398C46.3384 44.9717 44.1147 45.8877 41.4702 45.8877ZM41.4702 32.6352C40.3884 32.6352 39.4568 33.0103 38.6755 33.7603C37.8941 34.5128 37.5035 35.43 37.5035 36.5118C37.5035 37.6537 37.8941 38.5997 38.6755 39.3498C39.4568 40.1023 40.3884 40.4785 41.4702 40.4785C42.6121 40.4785 43.5593 40.1023 44.3118 39.3498C45.0619 38.5997 45.4369 37.6537 45.4369 36.5118C45.4369 35.43 45.0619 34.5128 44.3118 33.7603C43.5593 33.0103 42.6121 32.6352 41.4702 32.6352Z" fill="#FE5000"/>
</svg>
